<mxfile host="app.diagrams.net" agent="Mozilla/5.0 (X11; Linux x86_64) AppleWebKit/537.36 (KHTML, like Gecko) Chrome/127.0.0.0 Safari/537.36" version="24.7.7">
  <diagram name="Page-1" id="evIeKzIpnHdOSmaLCxZJ">
    <mxGraphModel dx="-150" dy="-307" grid="1" gridSize="10" guides="1" tooltips="1" connect="1" arrows="1" fold="1" page="1" pageScale="1" pageWidth="850" pageHeight="1100" math="0" shadow="0">
      <root>
        <mxCell id="0" />
        <mxCell id="1" parent="0" />
        <mxCell id="NpHVf7ny2RbtNi30LPNa-328" value="&lt;span style=&quot;&quot; id=&quot;docs-internal-guid-925710b6-7fff-e732-a554-69f1a39c68a7&quot;&gt;&lt;div style=&quot;&quot;&gt;&lt;span style=&quot;background-color: transparent; font-variant-numeric: normal; font-variant-east-asian: normal; font-variant-alternates: normal; font-variant-position: normal; vertical-align: baseline;&quot;&gt;&lt;br style=&quot;font-size: 18px;&quot;&gt;&lt;p dir=&quot;ltr&quot; style=&quot;font-family: Arial, sans-serif; font-size: 18px; white-space-collapse: preserve; line-height: 1.656; margin-top: 0pt; margin-bottom: 0pt;&quot;&gt;&lt;span style=&quot;font-size: 18px; background-color: transparent; font-variant-numeric: normal; font-variant-east-asian: normal; font-variant-alternates: normal; font-variant-position: normal; vertical-align: baseline;&quot;&gt;Região {id_regiao(PK), nome_regiao(SK)}&lt;/span&gt;&lt;/p&gt;&lt;p dir=&quot;ltr&quot; style=&quot;font-family: Arial, sans-serif; font-size: 18px; white-space-collapse: preserve; line-height: 1.656; margin-top: 0pt; margin-bottom: 0pt;&quot;&gt;&lt;br style=&quot;font-size: 18px;&quot;&gt;&lt;/p&gt;&lt;p dir=&quot;ltr&quot; style=&quot;font-family: Arial, sans-serif; font-size: 18px; white-space-collapse: preserve; line-height: 1.656; margin-top: 0pt; margin-bottom: 0pt;&quot;&gt;&lt;span style=&quot;font-size: 18px; background-color: transparent; font-variant-numeric: normal; font-variant-east-asian: normal; font-variant-alternates: normal; font-variant-position: normal; vertical-align: baseline;&quot;&gt;Área {id_area(PK), nome_area(SK), id_regiao(FK)}&lt;/span&gt;&lt;/p&gt;&lt;p dir=&quot;ltr&quot; style=&quot;font-family: Arial, sans-serif; font-size: 18px; white-space-collapse: preserve; line-height: 1.656; margin-top: 0pt; margin-bottom: 0pt;&quot;&gt;&lt;br style=&quot;font-size: 18px;&quot;&gt;&lt;/p&gt;&lt;p dir=&quot;ltr&quot; style=&quot;font-family: Arial, sans-serif; font-size: 18px; white-space-collapse: preserve; line-height: 1.656; margin-top: 0pt; margin-bottom: 0pt;&quot;&gt;&lt;span style=&quot;font-size: 18px; background-color: transparent; font-variant-numeric: normal; font-variant-east-asian: normal; font-variant-alternates: normal; font-variant-position: normal; vertical-align: baseline;&quot;&gt;Área_Conecta { id_origem(PK, FK), id_destino(PK, FK)}&lt;/span&gt;&lt;/p&gt;&lt;p dir=&quot;ltr&quot; style=&quot;font-family: Arial, sans-serif; font-size: 18px; white-space-collapse: preserve; line-height: 1.656; margin-top: 0pt; margin-bottom: 0pt;&quot;&gt;&lt;br style=&quot;font-size: 18px;&quot;&gt;&lt;/p&gt;&lt;p dir=&quot;ltr&quot; style=&quot;font-family: Arial, sans-serif; font-size: 18px; white-space-collapse: preserve; line-height: 1.656; margin-top: 0pt; margin-bottom: 0pt;&quot;&gt;&lt;span style=&quot;font-size: 18px; background-color: transparent; font-variant-numeric: normal; font-variant-east-asian: normal; font-variant-alternates: normal; font-variant-position: normal; vertical-align: baseline;&quot;&gt;Personagem {id_personagem(PK), tipo, nome, hp}&lt;/span&gt;&lt;/p&gt;&lt;p dir=&quot;ltr&quot; style=&quot;font-family: Arial, sans-serif; font-size: 18px; white-space-collapse: preserve; line-height: 1.656; margin-top: 0pt; margin-bottom: 0pt;&quot;&gt;&lt;br style=&quot;font-size: 18px;&quot;&gt;&lt;/p&gt;&lt;p dir=&quot;ltr&quot; style=&quot;font-family: Arial, sans-serif; font-size: 18px; white-space-collapse: preserve; line-height: 1.656; margin-top: 0pt; margin-bottom: 0pt;&quot;&gt;&lt;span style=&quot;font-size: 18px; background-color: transparent; font-variant-numeric: normal; font-variant-east-asian: normal; font-variant-alternates: normal; font-variant-position: normal; vertical-align: baseline;&quot;&gt;Jogador {id_jogador(PK, FK), nome, hp, vitalidade, vigor, int, fe, destreza, forca, peso_maximo, stamina, mp, nivel, runas, id_classe(FK), id_area(FK), id_classe(FK)}&lt;/span&gt;&lt;/p&gt;&lt;p dir=&quot;ltr&quot; style=&quot;font-family: Arial, sans-serif; font-size: 18px; white-space-collapse: preserve; line-height: 1.656; margin-top: 0pt; margin-bottom: 0pt;&quot;&gt;&lt;br style=&quot;font-size: 18px;&quot;&gt;&lt;/p&gt;&lt;p dir=&quot;ltr&quot; style=&quot;font-family: Arial, sans-serif; font-size: 18px; white-space-collapse: preserve; line-height: 1.38; margin-top: 0pt; margin-bottom: 0pt;&quot;&gt;&lt;span style=&quot;font-size: 18px; font-variant-numeric: normal; font-variant-east-asian: normal; font-variant-alternates: normal; font-variant-position: normal; vertical-align: baseline;&quot;&gt;npc {id_npc &lt;/span&gt;&lt;span style=&quot;font-size: 18px; background-color: transparent; font-variant-numeric: normal; font-variant-east-asian: normal; font-variant-alternates: normal; font-variant-position: normal; vertical-align: baseline;&quot;&gt;(PK, FK)&lt;/span&gt;&lt;span style=&quot;font-size: 18px; font-variant-numeric: normal; font-variant-east-asian: normal; font-variant-alternates: normal; font-variant-position: normal; vertical-align: baseline;&quot;&gt;, função,&lt;/span&gt;&lt;span style=&quot;font-size: 18px; background-color: transparent; font-variant-numeric: normal; font-variant-east-asian: normal; font-variant-alternates: normal; font-variant-position: normal; vertical-align: baseline;&quot;&gt; funcao, esta_hostil, resistencia, fraqueza, drop_runas, nome, hp, vitalidade&lt;/span&gt;&lt;span style=&quot;font-size: 18px; font-variant-numeric: normal; font-variant-east-asian: normal; font-variant-alternates: normal; font-variant-position: normal; vertical-align: baseline;&quot;&gt; }&lt;/span&gt;&lt;/p&gt;&lt;br style=&quot;font-size: 18px;&quot;&gt;&lt;p dir=&quot;ltr&quot; style=&quot;font-family: Arial, sans-serif; font-size: 18px; white-space-collapse: preserve; line-height: 1.38; margin-top: 0pt; margin-bottom: 0pt;&quot;&gt;&lt;span style=&quot;font-size: 18px; font-variant-numeric: normal; font-variant-east-asian: normal; font-variant-alternates: normal; font-variant-position: normal; vertical-align: baseline;&quot;&gt;função_npc {id_npc &lt;/span&gt;&lt;span style=&quot;font-size: 18px; background-color: transparent; font-variant-numeric: normal; font-variant-east-asian: normal; font-variant-alternates: normal; font-variant-position: normal; vertical-align: baseline;&quot;&gt;(PK, FK)&lt;/span&gt;&lt;span style=&quot;font-size: 18px; font-variant-numeric: normal; font-variant-east-asian: normal; font-variant-alternates: normal; font-variant-position: normal; vertical-align: baseline;&quot;&gt;, função (PK) }&lt;/span&gt;&lt;/p&gt;&lt;br style=&quot;font-size: 18px;&quot;&gt;&lt;p dir=&quot;ltr&quot; style=&quot;font-family: Arial, sans-serif; font-size: 18px; white-space-collapse: preserve; line-height: 1.656; margin-top: 0pt; margin-bottom: 0pt;&quot;&gt;&lt;span style=&quot;font-size: 18px; background-color: transparent; font-variant-numeric: normal; font-variant-east-asian: normal; font-variant-alternates: normal; font-variant-position: normal; vertical-align: baseline;&quot;&gt;Inimigo { id_inimigo(FK, PK), esta_hostil, resistencia, fraqueza, drop_runas, nome, hp, vitalidade, dano_base, tipo }&lt;/span&gt;&lt;/p&gt;&lt;br style=&quot;font-size: 18px;&quot;&gt;&lt;p dir=&quot;ltr&quot; style=&quot;font-family: Arial, sans-serif; font-size: 18px; white-space-collapse: preserve; line-height: 1.656; margin-top: 0pt; margin-bottom: 0pt;&quot;&gt;&lt;span style=&quot;font-size: 18px; background-color: transparent; font-variant-numeric: normal; font-variant-east-asian: normal; font-variant-alternates: normal; font-variant-position: normal; vertical-align: baseline;&quot;&gt;Ferreiro { id_ferreiro(FK, PK), função, esta_hostil, resistencia, fraqueza, drop_runas, nome, hp, vitalidade, tipo }&lt;/span&gt;&lt;/p&gt;&lt;br style=&quot;font-size: 18px;&quot;&gt;&lt;p dir=&quot;ltr&quot; style=&quot;font-family: Arial, sans-serif; font-size: 18px; white-space-collapse: preserve; line-height: 1.656; margin-top: 0pt; margin-bottom: 0pt;&quot;&gt;&lt;span style=&quot;font-size: 18px; background-color: transparent; font-variant-numeric: normal; font-variant-east-asian: normal; font-variant-alternates: normal; font-variant-position: normal; vertical-align: baseline;&quot;&gt;Chefe { id_chefe(PK), funcao, esta_hostil, resistencia, fraqueza, drop_runas, nome, hp, vitalidade, lembranca, dano_base, desperate_move, foi_derrotado_por (FK), tipo}&lt;/span&gt;&lt;/p&gt;&lt;p dir=&quot;ltr&quot; style=&quot;font-family: Arial, sans-serif; font-size: 18px; white-space-collapse: preserve; line-height: 1.656; margin-top: 0pt; margin-bottom: 0pt;&quot;&gt;&lt;br style=&quot;font-size: 18px;&quot;&gt;&lt;/p&gt;&lt;p dir=&quot;ltr&quot; style=&quot;font-family: Arial, sans-serif; font-size: 18px; white-space-collapse: preserve; line-height: 1.656; margin-top: 0pt; margin-bottom: 0pt;&quot;&gt;&lt;span style=&quot;font-size: 18px; background-color: transparent; font-variant-numeric: normal; font-variant-east-asian: normal; font-variant-alternates: normal; font-variant-position: normal; vertical-align: baseline;&quot;&gt;Golpe { id_golpe (PK), multiplicador, dano_final, npc(FK)}&lt;/span&gt;&lt;/p&gt;&lt;br style=&quot;font-size: 18px;&quot;&gt;&lt;p dir=&quot;ltr&quot; style=&quot;font-family: Arial, sans-serif; font-size: 18px; white-space-collapse: preserve; line-height: 1.656; margin-top: 0pt; margin-bottom: 0pt;&quot;&gt;&lt;span style=&quot;font-size: 18px; background-color: transparent; font-variant-numeric: normal; font-variant-east-asian: normal; font-variant-alternates: normal; font-variant-position: normal; vertical-align: baseline;&quot;&gt;Dialogo {id_dialogo,&amp;nbsp; texto, e_unico, id_npc(FK) }&lt;/span&gt;&lt;/p&gt;&lt;br style=&quot;font-size: 18px;&quot;&gt;&lt;p dir=&quot;ltr&quot; style=&quot;font-family: Arial, sans-serif; font-size: 18px; white-space-collapse: preserve; line-height: 1.656; margin-top: 0pt; margin-bottom: 0pt;&quot;&gt;&lt;span style=&quot;font-size: 18px; background-color: transparent; font-variant-numeric: normal; font-variant-east-asian: normal; font-variant-alternates: normal; font-variant-position: normal; vertical-align: baseline;&quot;&gt;Chefes_Derrotados { id_chefe(FK, PK), id_jogador(FK, PK) }&lt;/span&gt;&lt;/p&gt;&lt;p dir=&quot;ltr&quot; style=&quot;font-family: Arial, sans-serif; font-size: 18px; white-space-collapse: preserve; line-height: 1.656; margin-top: 0pt; margin-bottom: 0pt;&quot;&gt;&lt;br style=&quot;font-size: 18px;&quot;&gt;&lt;/p&gt;&lt;p dir=&quot;ltr&quot; style=&quot;font-family: Arial, sans-serif; font-size: 18px; white-space-collapse: preserve; line-height: 1.656; margin-top: 0pt; margin-bottom: 0pt;&quot;&gt;&lt;span style=&quot;font-size: 18px; background-color: transparent; font-variant-numeric: normal; font-variant-east-asian: normal; font-variant-alternates: normal; font-variant-position: normal; vertical-align: baseline;&quot;&gt;Subir_Nivel {id_nivel(PK), nmr_nivel (SK), runas_necessarias}&lt;/span&gt;&lt;/p&gt;&lt;br style=&quot;font-size: 18px;&quot;&gt;&lt;p dir=&quot;ltr&quot; style=&quot;font-family: Arial, sans-serif; font-size: 18px; white-space-collapse: preserve; line-height: 1.656; margin-top: 0pt; margin-bottom: 0pt;&quot;&gt;&lt;span style=&quot;font-size: 18px; background-color: transparent; font-variant-numeric: normal; font-variant-east-asian: normal; font-variant-alternates: normal; font-variant-position: normal; vertical-align: baseline;&quot;&gt;Classe {id_classe(PK), nome, base_vitalidade, base_vigor, base_int, base_fe, base_destreza, base_forca }&lt;/span&gt;&lt;/p&gt;&lt;br style=&quot;font-size: 18px;&quot;&gt;&lt;p dir=&quot;ltr&quot; style=&quot;font-family: Arial, sans-serif; font-size: 18px; white-space-collapse: preserve; line-height: 1.656; margin-top: 0pt; margin-bottom: 0pt;&quot;&gt;&lt;span style=&quot;font-size: 18px; background-color: transparent; font-variant-numeric: normal; font-variant-east-asian: normal; font-variant-alternates: normal; font-variant-position: normal; vertical-align: baseline;&quot;&gt;Area_de_Morte { id_area_de_morte(PK), runas_dropadas, id_jogador(FK, SK), id_area(FK)}&lt;/span&gt;&lt;/p&gt;&lt;br style=&quot;font-size: 18px;&quot;&gt;&lt;p dir=&quot;ltr&quot; style=&quot;font-family: Arial, sans-serif; font-size: 18px; white-space-collapse: preserve; line-height: 1.656; margin-top: 0pt; margin-bottom: 0pt;&quot;&gt;&lt;span style=&quot;font-size: 18px; background-color: transparent; font-variant-numeric: normal; font-variant-east-asian: normal; font-variant-alternates: normal; font-variant-position: normal; vertical-align: baseline;&quot;&gt;Equipados { id_jogador(FK, PK), mao_direita(FK). mão_esquerda(FK), armadura(FK)}&lt;/span&gt;&lt;/p&gt;&lt;p dir=&quot;ltr&quot; style=&quot;font-family: Arial, sans-serif; font-size: 18px; white-space-collapse: preserve; line-height: 1.656; margin-top: 0pt; margin-bottom: 0pt;&quot;&gt;&lt;br&gt;&lt;/p&gt;&lt;p dir=&quot;ltr&quot; style=&quot;font-family: Arial, sans-serif; font-size: 18px; white-space-collapse: preserve; line-height: 1.656; margin-top: 0pt; margin-bottom: 0pt;&quot;&gt;&lt;span style=&quot;font-size: 18px; background-color: transparent; font-variant-numeric: normal; font-variant-east-asian: normal; font-variant-alternates: normal; font-variant-position: normal; vertical-align: baseline;&quot;&gt;Instancia_Item {id_instancia(PK), id_item(FK) }&amp;nbsp;&lt;/span&gt;&lt;/p&gt;&lt;p dir=&quot;ltr&quot; style=&quot;font-family: Arial, sans-serif; font-size: 18px; white-space-collapse: preserve; line-height: 1.656; margin-top: 0pt; margin-bottom: 0pt;&quot;&gt;&lt;span style=&quot;font-size: 18px; background-color: transparent; font-variant-numeric: normal; font-variant-east-asian: normal; font-variant-alternates: normal; font-variant-position: normal; vertical-align: baseline;&quot;&gt;&lt;br&gt;&lt;/span&gt;&lt;/p&gt;&lt;p dir=&quot;ltr&quot; style=&quot;line-height: 1.656; margin-top: 0pt; margin-bottom: 0pt;&quot;&gt;&lt;span style=&quot;background-color: transparent; font-variant-numeric: normal; font-variant-east-asian: normal; font-variant-alternates: normal; font-variant-position: normal; vertical-align: baseline;&quot;&gt;&lt;font face=&quot;Arial, sans-serif&quot;&gt;&lt;span style=&quot;white-space-collapse: preserve;&quot;&gt;Localização_da_Instancia_de_Item { id_instancia_item(PK,FK), &lt;/span&gt;&lt;/font&gt;&lt;/span&gt;&lt;span style=&quot;background-color: transparent; white-space-collapse: preserve;&quot;&gt;&lt;font face=&quot;Arial, sans-serif&quot;&gt;id_area(FK) ,id_inventario_jogador(FK)&lt;/font&gt;&lt;/span&gt;&lt;span style=&quot;white-space-collapse: preserve; font-family: Arial, sans-serif; background-color: transparent;&quot;&gt;  }&lt;/span&gt;&lt;/p&gt;&lt;p dir=&quot;ltr&quot; style=&quot;font-family: Arial, sans-serif; font-size: 18px; white-space-collapse: preserve; line-height: 1.656; margin-top: 0pt; margin-bottom: 0pt;&quot;&gt;&lt;span style=&quot;font-size: 18px; background-color: transparent; font-style: italic; font-variant-numeric: normal; font-variant-east-asian: normal; font-variant-alternates: normal; font-variant-position: normal; vertical-align: baseline;&quot;&gt;OBS: se uma instância de item estiver em um inventário o id_area sera null e se uma instância de item estiver em uma área o id_inventario será null.&lt;/span&gt;&lt;/p&gt;&lt;br style=&quot;font-size: 18px;&quot;&gt;&lt;p dir=&quot;ltr&quot; style=&quot;font-family: Arial, sans-serif; font-size: 18px; white-space-collapse: preserve; line-height: 1.656; margin-top: 0pt; margin-bottom: 0pt;&quot;&gt;&lt;span style=&quot;font-size: 18px; background-color: transparent; font-variant-numeric: normal; font-variant-east-asian: normal; font-variant-alternates: normal; font-variant-position: normal; vertical-align: baseline;&quot;&gt;Instancia_Inimigo {id_instancia(PK), id_inimigo(FK), area_id(FK)}&amp;nbsp;&lt;/span&gt;&lt;/p&gt;&lt;p dir=&quot;ltr&quot; style=&quot;font-family: Arial, sans-serif; font-size: 18px; white-space-collapse: preserve; line-height: 1.656; margin-top: 0pt; margin-bottom: 0pt;&quot;&gt;&lt;br style=&quot;font-size: 18px;&quot;&gt;&lt;/p&gt;&lt;p dir=&quot;ltr&quot; style=&quot;font-family: Arial, sans-serif; font-size: 18px; white-space-collapse: preserve; line-height: 1.656; margin-top: 0pt; margin-bottom: 0pt;&quot;&gt;&lt;span style=&quot;font-size: 18px; background-color: transparent; font-variant-numeric: normal; font-variant-east-asian: normal; font-variant-alternates: normal; font-variant-position: normal; vertical-align: baseline;&quot;&gt;Item { id_item(PK), raridade, e_chave, nome, valor }&lt;/span&gt;&lt;/p&gt;&lt;p dir=&quot;ltr&quot; style=&quot;font-family: Arial, sans-serif; font-size: 18px; white-space-collapse: preserve; line-height: 1.656; margin-top: 0pt; margin-bottom: 0pt;&quot;&gt;&lt;br&gt;&lt;/p&gt;&lt;p dir=&quot;ltr&quot; style=&quot;font-family: Arial, sans-serif; font-size: 18px; white-space-collapse: preserve; line-height: 1.656; margin-top: 0pt; margin-bottom: 0pt;&quot;&gt;&lt;span style=&quot;font-size: 18px; background-color: transparent; font-variant-numeric: normal; font-variant-east-asian: normal; font-variant-alternates: normal; font-variant-position: normal; vertical-align: baseline;&quot;&gt;Consumivel {id_consumivel (PK, FK)), efeito, descricao, qtd_do_efeito }&lt;/span&gt;&lt;/p&gt;&lt;p dir=&quot;ltr&quot; style=&quot;font-family: Arial, sans-serif; font-size: 18px; white-space-collapse: preserve; line-height: 1.656; margin-top: 0pt; margin-bottom: 0pt;&quot;&gt;&lt;br style=&quot;font-size: 18px;&quot;&gt;&lt;/p&gt;&lt;p dir=&quot;ltr&quot; style=&quot;font-family: Arial, sans-serif; font-size: 18px; white-space-collapse: preserve; line-height: 1.656; margin-top: 0pt; margin-bottom: 0pt;&quot;&gt;&lt;span style=&quot;font-size: 18px; background-color: transparent; font-variant-numeric: normal; font-variant-east-asian: normal; font-variant-alternates: normal; font-variant-position: normal; vertical-align: baseline;&quot;&gt;Equipamento {id_equipamento(PK), tipo }&lt;/span&gt;&lt;/p&gt;&lt;p dir=&quot;ltr&quot; style=&quot;font-family: Arial, sans-serif; font-size: 18px; white-space-collapse: preserve; line-height: 1.656; margin-top: 0pt; margin-bottom: 0pt;&quot;&gt;&lt;br style=&quot;font-size: 18px;&quot;&gt;&lt;/p&gt;&lt;p dir=&quot;ltr&quot; style=&quot;font-family: Arial, sans-serif; font-size: 18px; white-space-collapse: preserve; line-height: 1.656; margin-top: 0pt; margin-bottom: 0pt;&quot;&gt;&lt;span style=&quot;font-size: 18px; background-color: transparent; font-variant-numeric: normal; font-variant-east-asian: normal; font-variant-alternates: normal; font-variant-position: normal; vertical-align: baseline;&quot;&gt;Arma {id_arma(PK), tipo}duracao&lt;/span&gt;&lt;/p&gt;&lt;p dir=&quot;ltr&quot; style=&quot;font-family: Arial, sans-serif; font-size: 18px; white-space-collapse: preserve; line-height: 1.38; margin-top: 0pt; margin-bottom: 0pt;&quot;&gt;&lt;br style=&quot;font-size: 18px;&quot;&gt;&lt;/p&gt;&lt;p dir=&quot;ltr&quot; style=&quot;font-family: Arial, sans-serif; font-size: 18px; white-space-collapse: preserve; line-height: 1.656; margin-top: 0pt; margin-bottom: 0pt;&quot;&gt;&lt;span style=&quot;font-size: 18px; background-color: transparent; font-variant-numeric: normal; font-variant-east-asian: normal; font-variant-alternates: normal; font-variant-position: normal; vertical-align: baseline;&quot;&gt;Armadura {id_armadura(PK, FK), tipo, requisitos, melhoria, peso, custo_melhoria, resistencia, item_id(FK, SK) }&lt;/span&gt;&lt;/p&gt;&lt;p dir=&quot;ltr&quot; style=&quot;font-family: Arial, sans-serif; font-size: 18px; white-space-collapse: preserve; line-height: 1.38; margin-top: 0pt; margin-bottom: 0pt;&quot;&gt;&lt;br style=&quot;font-size: 18px;&quot;&gt;&lt;/p&gt;&lt;p dir=&quot;ltr&quot; style=&quot;font-family: Arial, sans-serif; font-size: 18px; white-space-collapse: preserve; line-height: 1.656; margin-top: 0pt; margin-bottom: 0pt;&quot;&gt;&lt;span style=&quot;font-size: 18px; background-color: transparent; font-variant-numeric: normal; font-variant-east-asian: normal; font-variant-alternates: normal; font-variant-position: normal; vertical-align: baseline;&quot;&gt;Escudo { id_escudo(PK, FK), defesa, habilidade, tipo, requisitos, melhoria, peso, custo_melhoria, item_id(FK, SK) }duracao&lt;/span&gt;&lt;/p&gt;&lt;p dir=&quot;ltr&quot; style=&quot;font-family: Arial, sans-serif; font-size: 18px; white-space-collapse: preserve; line-height: 1.38; margin-top: 0pt; margin-bottom: 0pt;&quot;&gt;&lt;br style=&quot;font-size: 18px;&quot;&gt;&lt;/p&gt;&lt;p dir=&quot;ltr&quot; style=&quot;font-family: Arial, sans-serif; font-size: 18px; white-space-collapse: preserve; line-height: 1.656; margin-top: 0pt; margin-bottom: 0pt;&quot;&gt;&lt;span style=&quot;font-size: 18px; background-color: transparent; font-variant-numeric: normal; font-variant-east-asian: normal; font-variant-alternates: normal; font-variant-position: normal; vertical-align: baseline;&quot;&gt;Engaste { id_engaste (PK), atributo_extra, id_item (FK, SK) }&lt;/span&gt;&lt;/p&gt;&lt;p dir=&quot;ltr&quot; style=&quot;font-family: Arial, sans-serif; font-size: 18px; white-space-collapse: preserve; line-height: 1.38; margin-top: 0pt; margin-bottom: 0pt;&quot;&gt;&lt;br style=&quot;font-size: 18px;&quot;&gt;&lt;/p&gt;&lt;p dir=&quot;ltr&quot; style=&quot;font-family: Arial, sans-serif; font-size: 18px; white-space-collapse: preserve; line-height: 1.656; margin-top: 0pt; margin-bottom: 0pt;&quot;&gt;&lt;span style=&quot;font-size: 18px; background-color: transparent; font-variant-numeric: normal; font-variant-east-asian: normal; font-variant-alternates: normal; font-variant-position: normal; vertical-align: baseline;&quot;&gt;Cajado { id_cajado(PK, FK), tipo, requisitos, melhoria, peso, custo_melhoria, dano, critico, habilidade, proficiencia }&lt;/span&gt;&lt;/p&gt;&lt;p dir=&quot;ltr&quot; style=&quot;font-family: Arial, sans-serif; font-size: 18px; white-space-collapse: preserve; line-height: 1.38; margin-top: 0pt; margin-bottom: 0pt;&quot;&gt;&lt;br style=&quot;font-size: 18px;&quot;&gt;&lt;/p&gt;&lt;p dir=&quot;ltr&quot; style=&quot;font-family: Arial, sans-serif; font-size: 18px; white-space-collapse: preserve; line-height: 1.656; margin-top: 0pt; margin-bottom: 0pt;&quot;&gt;&lt;span style=&quot;font-size: 18px; background-color: transparent; font-variant-numeric: normal; font-variant-east-asian: normal; font-variant-alternates: normal; font-variant-position: normal; vertical-align: baseline;&quot;&gt;Selo {id_selo(PK, FK) tipo, requisitos, melhoria, peso, custo_melhoria, dano, critico, habilidade, Milagre }&lt;/span&gt;&lt;/p&gt;&lt;p dir=&quot;ltr&quot; style=&quot;font-family: Arial, sans-serif; font-size: 18px; white-space-collapse: preserve; line-height: 1.38; margin-top: 0pt; margin-bottom: 0pt;&quot;&gt;&lt;br style=&quot;font-size: 18px;&quot;&gt;&lt;/p&gt;&lt;p dir=&quot;ltr&quot; style=&quot;font-family: Arial, sans-serif; font-size: 18px; white-space-collapse: preserve; line-height: 1.656; margin-top: 0pt; margin-bottom: 0pt;&quot;&gt;&lt;span style=&quot;font-size: 18px; background-color: transparent; font-variant-numeric: normal; font-variant-east-asian: normal; font-variant-alternates: normal; font-variant-position: normal; vertical-align: baseline;&quot;&gt;Arma_Leve { id_arma_leve(PK, FK)) tipo, requisitos, melhoria, peso, custo_melhoria, dano, critico, habilidade, destreza}&lt;/span&gt;&lt;/p&gt;&lt;p dir=&quot;ltr&quot; style=&quot;font-family: Arial, sans-serif; font-size: 18px; white-space-collapse: preserve; line-height: 1.38; margin-top: 0pt; margin-bottom: 0pt;&quot;&gt;&lt;br style=&quot;font-size: 18px;&quot;&gt;&lt;/p&gt;&lt;p dir=&quot;ltr&quot; style=&quot;font-family: Arial, sans-serif; font-size: 18px; white-space-collapse: preserve; line-height: 1.656; margin-top: 0pt; margin-bottom: 0pt;&quot;&gt;&lt;span style=&quot;font-size: 18px; background-color: transparent; font-variant-numeric: normal; font-variant-east-asian: normal; font-variant-alternates: normal; font-variant-position: normal; vertical-align: baseline;&quot;&gt;Arma_Pesada { id_arma_pesada(PK, FK), tipo, requisitos, melhoria, peso, custo_melhoria, dano, critico, habilidade, força}&lt;/span&gt;&lt;/p&gt;&lt;/span&gt;&lt;/div&gt;&lt;/span&gt;" style="text;strokeColor=none;align=left;fillColor=none;html=1;verticalAlign=middle;whiteSpace=wrap;rounded=0;fontSize=18;" parent="1" vertex="1">
          <mxGeometry x="970" y="1640" width="660" height="1780" as="geometry" />
        </mxCell>
        <mxCell id="NpHVf7ny2RbtNi30LPNa-329" value="Região " style="shape=table;startSize=30;container=1;collapsible=0;childLayout=tableLayout;fixedRows=1;rowLines=0;fontStyle=0;strokeColor=default;fontSize=16;" parent="1" vertex="1">
          <mxGeometry x="3826" y="2380" width="200" height="100" as="geometry" />
        </mxCell>
        <mxCell id="NpHVf7ny2RbtNi30LPNa-330" value="" style="shape=tableRow;horizontal=0;startSize=0;swimlaneHead=0;swimlaneBody=0;top=0;left=0;bottom=0;right=0;collapsible=0;dropTarget=0;fillColor=none;points=[[0,0.5],[1,0.5]];portConstraint=eastwest;strokeColor=inherit;fontSize=16;" parent="NpHVf7ny2RbtNi30LPNa-329" vertex="1">
          <mxGeometry y="30" width="200" height="50" as="geometry" />
        </mxCell>
        <mxCell id="NpHVf7ny2RbtNi30LPNa-331" value="PK&lt;div&gt;SK&lt;/div&gt;" style="shape=partialRectangle;html=1;whiteSpace=wrap;connectable=0;fillColor=none;top=0;left=0;bottom=0;right=0;overflow=hidden;pointerEvents=1;strokeColor=inherit;fontSize=16;" parent="NpHVf7ny2RbtNi30LPNa-330" vertex="1">
          <mxGeometry width="44" height="50" as="geometry">
            <mxRectangle width="44" height="50" as="alternateBounds" />
          </mxGeometry>
        </mxCell>
        <mxCell id="NpHVf7ny2RbtNi30LPNa-332" value="&lt;span id=&quot;docs-internal-guid-9de013d8-7fff-9b33-baa0-55acf734d3be&quot;&gt;&lt;span style=&quot;font-size: 11pt; font-family: Arial, sans-serif; background-color: transparent; font-variant-numeric: normal; font-variant-east-asian: normal; font-variant-alternates: normal; font-variant-position: normal; vertical-align: baseline; white-space-collapse: preserve;&quot;&gt;id_regiao&lt;/span&gt;&lt;/span&gt;&lt;div&gt;&lt;span id=&quot;docs-internal-guid-81cacb7f-7fff-ba41-0c7b-e25bcdb17807&quot;&gt;&lt;span style=&quot;font-size: 11pt; font-family: Arial, sans-serif; background-color: transparent; font-variant-numeric: normal; font-variant-east-asian: normal; font-variant-alternates: normal; font-variant-position: normal; vertical-align: baseline; white-space-collapse: preserve;&quot;&gt;nome_regiao&lt;/span&gt;&lt;/span&gt;&lt;span&gt;&lt;span style=&quot;font-size: 11pt; font-family: Arial, sans-serif; background-color: transparent; font-variant-numeric: normal; font-variant-east-asian: normal; font-variant-alternates: normal; font-variant-position: normal; vertical-align: baseline; white-space-collapse: preserve;&quot;&gt;&lt;br&gt;&lt;/span&gt;&lt;/span&gt;&lt;/div&gt;" style="shape=partialRectangle;html=1;whiteSpace=wrap;connectable=0;fillColor=none;top=0;left=0;bottom=0;right=0;align=left;spacingLeft=6;overflow=hidden;strokeColor=inherit;fontSize=16;horizontal=1;" parent="NpHVf7ny2RbtNi30LPNa-330" vertex="1">
          <mxGeometry x="44" width="156" height="50" as="geometry">
            <mxRectangle width="156" height="50" as="alternateBounds" />
          </mxGeometry>
        </mxCell>
        <mxCell id="NpHVf7ny2RbtNi30LPNa-333" value="" style="shape=tableRow;horizontal=0;startSize=0;swimlaneHead=0;swimlaneBody=0;top=0;left=0;bottom=0;right=0;collapsible=0;dropTarget=0;fillColor=none;points=[[0,0.5],[1,0.5]];portConstraint=eastwest;strokeColor=inherit;fontSize=16;verticalAlign=top;" parent="NpHVf7ny2RbtNi30LPNa-329" vertex="1">
          <mxGeometry y="80" width="200" height="20" as="geometry" />
        </mxCell>
        <mxCell id="NpHVf7ny2RbtNi30LPNa-334" value="" style="shape=partialRectangle;html=1;whiteSpace=wrap;connectable=0;fillColor=none;top=1;left=0;bottom=1;right=0;overflow=hidden;strokeColor=inherit;fontSize=16;noLabel=0;snapToPoint=0;" parent="NpHVf7ny2RbtNi30LPNa-333" vertex="1">
          <mxGeometry width="44" height="20" as="geometry">
            <mxRectangle width="44" height="20" as="alternateBounds" />
          </mxGeometry>
        </mxCell>
        <mxCell id="NpHVf7ny2RbtNi30LPNa-335" value="&lt;p style=&quot;line-height: 100%; margin-top: 2px; margin-bottom: 2px;&quot;&gt;&lt;br&gt;&lt;/p&gt;" style="shape=partialRectangle;html=1;whiteSpace=wrap;connectable=0;fillColor=none;top=1;left=0;bottom=1;right=0;align=left;spacingLeft=6;overflow=hidden;strokeColor=inherit;fontSize=16;noLabel=0;snapToPoint=0;horizontal=1;verticalAlign=top;" parent="NpHVf7ny2RbtNi30LPNa-333" vertex="1">
          <mxGeometry x="44" width="156" height="20" as="geometry">
            <mxRectangle width="156" height="20" as="alternateBounds" />
          </mxGeometry>
        </mxCell>
        <mxCell id="NpHVf7ny2RbtNi30LPNa-336" value="Área" style="shape=table;startSize=30;container=1;collapsible=0;childLayout=tableLayout;fixedRows=1;rowLines=0;fontStyle=0;strokeColor=default;fontSize=16;" parent="1" vertex="1">
          <mxGeometry x="3826" y="2135" width="200" height="130" as="geometry" />
        </mxCell>
        <mxCell id="NpHVf7ny2RbtNi30LPNa-337" value="" style="shape=tableRow;horizontal=0;startSize=0;swimlaneHead=0;swimlaneBody=0;top=0;left=0;bottom=0;right=0;collapsible=0;dropTarget=0;fillColor=none;points=[[0,0.5],[1,0.5]];portConstraint=eastwest;strokeColor=inherit;fontSize=16;" parent="NpHVf7ny2RbtNi30LPNa-336" vertex="1">
          <mxGeometry y="30" width="200" height="60" as="geometry" />
        </mxCell>
        <mxCell id="NpHVf7ny2RbtNi30LPNa-338" value="PK&lt;div&gt;SK&lt;/div&gt;" style="shape=partialRectangle;html=1;whiteSpace=wrap;connectable=0;fillColor=none;top=0;left=0;bottom=0;right=0;overflow=hidden;pointerEvents=1;strokeColor=inherit;fontSize=16;" parent="NpHVf7ny2RbtNi30LPNa-337" vertex="1">
          <mxGeometry width="44" height="60" as="geometry">
            <mxRectangle width="44" height="60" as="alternateBounds" />
          </mxGeometry>
        </mxCell>
        <mxCell id="NpHVf7ny2RbtNi30LPNa-339" value="&lt;span id=&quot;docs-internal-guid-b573afe4-7fff-6cf1-a72c-a2d62d699c4b&quot;&gt;&lt;span style=&quot;font-size: 11pt; font-family: Arial, sans-serif; background-color: transparent; font-variant-numeric: normal; font-variant-east-asian: normal; font-variant-alternates: normal; font-variant-position: normal; vertical-align: baseline; white-space-collapse: preserve;&quot;&gt;id_area&lt;/span&gt;&lt;/span&gt;&lt;div&gt;&lt;span id=&quot;docs-internal-guid-5008f0fb-7fff-fd4a-83f7-17b81c33ce65&quot;&gt;&lt;span style=&quot;font-size: 11pt; font-family: Arial, sans-serif; background-color: transparent; font-variant-numeric: normal; font-variant-east-asian: normal; font-variant-alternates: normal; font-variant-position: normal; vertical-align: baseline; white-space-collapse: preserve;&quot;&gt;nome_area&lt;/span&gt;&lt;/span&gt;&lt;br&gt;&lt;/div&gt;" style="shape=partialRectangle;html=1;whiteSpace=wrap;connectable=0;fillColor=none;top=0;left=0;bottom=0;right=0;align=left;spacingLeft=6;overflow=hidden;strokeColor=inherit;fontSize=16;horizontal=1;" parent="NpHVf7ny2RbtNi30LPNa-337" vertex="1">
          <mxGeometry x="44" width="156" height="60" as="geometry">
            <mxRectangle width="156" height="60" as="alternateBounds" />
          </mxGeometry>
        </mxCell>
        <mxCell id="NpHVf7ny2RbtNi30LPNa-340" value="" style="shape=tableRow;horizontal=0;startSize=0;swimlaneHead=0;swimlaneBody=0;top=0;left=0;bottom=0;right=0;collapsible=0;dropTarget=0;fillColor=none;points=[[0,0.5],[1,0.5]];portConstraint=eastwest;strokeColor=inherit;fontSize=16;verticalAlign=top;" parent="NpHVf7ny2RbtNi30LPNa-336" vertex="1">
          <mxGeometry y="90" width="200" height="40" as="geometry" />
        </mxCell>
        <mxCell id="NpHVf7ny2RbtNi30LPNa-341" value="FK" style="shape=partialRectangle;html=1;whiteSpace=wrap;connectable=0;fillColor=none;top=1;left=0;bottom=1;right=0;overflow=hidden;strokeColor=inherit;fontSize=16;noLabel=0;snapToPoint=0;" parent="NpHVf7ny2RbtNi30LPNa-340" vertex="1">
          <mxGeometry width="44" height="40" as="geometry">
            <mxRectangle width="44" height="40" as="alternateBounds" />
          </mxGeometry>
        </mxCell>
        <mxCell id="NpHVf7ny2RbtNi30LPNa-342" value="&lt;p style=&quot;line-height: 100%; margin-top: 2px; margin-bottom: 2px;&quot;&gt;&lt;span id=&quot;docs-internal-guid-73743eb3-7fff-0ede-8437-65463135ddfc&quot;&gt;&lt;span style=&quot;font-size: 11pt; font-family: Arial, sans-serif; background-color: transparent; font-variant-numeric: normal; font-variant-east-asian: normal; font-variant-alternates: normal; font-variant-position: normal; vertical-align: baseline; white-space-collapse: preserve;&quot;&gt;id_regiao&lt;/span&gt;&lt;/span&gt;&lt;br&gt;&lt;/p&gt;" style="shape=partialRectangle;html=1;whiteSpace=wrap;connectable=0;fillColor=none;top=1;left=0;bottom=1;right=0;align=left;spacingLeft=6;overflow=hidden;strokeColor=inherit;fontSize=16;noLabel=0;snapToPoint=0;horizontal=1;verticalAlign=top;" parent="NpHVf7ny2RbtNi30LPNa-340" vertex="1">
          <mxGeometry x="44" width="156" height="40" as="geometry">
            <mxRectangle width="156" height="40" as="alternateBounds" />
          </mxGeometry>
        </mxCell>
        <mxCell id="NpHVf7ny2RbtNi30LPNa-343" value="Jogador" style="shape=table;startSize=30;container=1;collapsible=0;childLayout=tableLayout;fixedRows=1;rowLines=0;fontStyle=0;strokeColor=default;fontSize=16;" parent="1" vertex="1">
          <mxGeometry x="4266" y="2520" width="204" height="350" as="geometry" />
        </mxCell>
        <mxCell id="NpHVf7ny2RbtNi30LPNa-344" value="" style="shape=tableRow;horizontal=0;startSize=0;swimlaneHead=0;swimlaneBody=0;top=0;left=0;bottom=0;right=0;collapsible=0;dropTarget=0;fillColor=none;points=[[0,0.5],[1,0.5]];portConstraint=eastwest;strokeColor=inherit;fontSize=16;" parent="NpHVf7ny2RbtNi30LPNa-343" vertex="1">
          <mxGeometry y="30" width="204" height="30" as="geometry" />
        </mxCell>
        <mxCell id="NpHVf7ny2RbtNi30LPNa-345" value="PK, FK" style="shape=partialRectangle;html=1;whiteSpace=wrap;connectable=0;fillColor=none;top=0;left=0;bottom=0;right=0;overflow=hidden;pointerEvents=1;strokeColor=inherit;fontSize=16;" parent="NpHVf7ny2RbtNi30LPNa-344" vertex="1">
          <mxGeometry width="60" height="30" as="geometry">
            <mxRectangle width="60" height="30" as="alternateBounds" />
          </mxGeometry>
        </mxCell>
        <mxCell id="NpHVf7ny2RbtNi30LPNa-346" value="&lt;span id=&quot;docs-internal-guid-e88bfac6-7fff-c64e-e870-2d8f429155b9&quot;&gt;&lt;span style=&quot;font-size: 11pt; font-family: Arial, sans-serif; background-color: transparent; font-variant-numeric: normal; font-variant-east-asian: normal; font-variant-alternates: normal; font-variant-position: normal; vertical-align: baseline; white-space-collapse: preserve;&quot;&gt;id_jogador&lt;/span&gt;&lt;/span&gt;" style="shape=partialRectangle;html=1;whiteSpace=wrap;connectable=0;fillColor=none;top=0;left=0;bottom=0;right=0;align=left;spacingLeft=6;overflow=hidden;strokeColor=inherit;fontSize=16;horizontal=1;" parent="NpHVf7ny2RbtNi30LPNa-344" vertex="1">
          <mxGeometry x="60" width="144" height="30" as="geometry">
            <mxRectangle width="144" height="30" as="alternateBounds" />
          </mxGeometry>
        </mxCell>
        <mxCell id="NpHVf7ny2RbtNi30LPNa-347" value="" style="shape=tableRow;horizontal=0;startSize=0;swimlaneHead=0;swimlaneBody=0;top=0;left=0;bottom=0;right=0;collapsible=0;dropTarget=0;fillColor=none;points=[[0,0.5],[1,0.5]];portConstraint=eastwest;strokeColor=inherit;fontSize=16;verticalAlign=top;" parent="NpHVf7ny2RbtNi30LPNa-343" vertex="1">
          <mxGeometry y="60" width="204" height="290" as="geometry" />
        </mxCell>
        <mxCell id="NpHVf7ny2RbtNi30LPNa-348" value="&lt;div&gt;&lt;br&gt;&lt;/div&gt;&lt;div&gt;&lt;br&gt;&lt;/div&gt;&lt;div&gt;&lt;br&gt;&lt;/div&gt;&lt;div&gt;&lt;br&gt;&lt;/div&gt;&lt;div&gt;&lt;br&gt;&lt;/div&gt;&lt;div&gt;&lt;br&gt;&lt;/div&gt;&lt;div&gt;&lt;br&gt;&lt;/div&gt;&lt;div&gt;&lt;br&gt;&lt;/div&gt;&lt;div&gt;&lt;br&gt;&lt;/div&gt;&lt;div&gt;&lt;br&gt;&lt;/div&gt;&lt;div&gt;&lt;br&gt;&lt;/div&gt;&lt;div&gt;FK&lt;/div&gt;&lt;div&gt;FK&lt;/div&gt;&lt;div&gt;FK&lt;/div&gt;" style="shape=partialRectangle;html=1;whiteSpace=wrap;connectable=0;fillColor=none;top=1;left=0;bottom=1;right=0;overflow=hidden;strokeColor=inherit;fontSize=16;noLabel=0;snapToPoint=0;" parent="NpHVf7ny2RbtNi30LPNa-347" vertex="1">
          <mxGeometry width="60" height="290" as="geometry">
            <mxRectangle width="60" height="290" as="alternateBounds" />
          </mxGeometry>
        </mxCell>
        <mxCell id="NpHVf7ny2RbtNi30LPNa-349" value="&lt;p style=&quot;line-height: 100%; margin-top: 2px; margin-bottom: 2px;&quot;&gt;&lt;span id=&quot;docs-internal-guid-9f9c761b-7fff-f7ba-615e-49f5319a1079&quot;&gt;&lt;span style=&quot;font-size: 11pt; font-family: Arial, sans-serif; background-color: transparent; font-variant-numeric: normal; font-variant-east-asian: normal; font-variant-alternates: normal; font-variant-position: normal; vertical-align: baseline; white-space-collapse: preserve;&quot;&gt;nome&lt;/span&gt;&lt;/span&gt;&lt;br&gt;&lt;/p&gt;&lt;p style=&quot;line-height: 100%; margin-top: 2px; margin-bottom: 2px;&quot;&gt;&lt;span id=&quot;docs-internal-guid-078480d4-7fff-15d0-8b8c-13f725acce4c&quot;&gt;&lt;span style=&quot;font-size: 11pt; font-family: Arial, sans-serif; background-color: transparent; font-variant-numeric: normal; font-variant-east-asian: normal; font-variant-alternates: normal; font-variant-position: normal; vertical-align: baseline; white-space-collapse: preserve;&quot;&gt;hp&lt;/span&gt;&lt;/span&gt;&lt;span&gt;&lt;span style=&quot;font-size: 11pt; font-family: Arial, sans-serif; background-color: transparent; font-variant-numeric: normal; font-variant-east-asian: normal; font-variant-alternates: normal; font-variant-position: normal; vertical-align: baseline; white-space-collapse: preserve;&quot;&gt;&lt;br&gt;&lt;/span&gt;&lt;/span&gt;&lt;/p&gt;&lt;p style=&quot;line-height: 100%; margin-top: 2px; margin-bottom: 2px;&quot;&gt;&lt;span id=&quot;docs-internal-guid-be2ab53c-7fff-2585-26b5-68bac440c4f4&quot;&gt;&lt;span style=&quot;font-size: 11pt; font-family: Arial, sans-serif; background-color: transparent; font-variant-numeric: normal; font-variant-east-asian: normal; font-variant-alternates: normal; font-variant-position: normal; vertical-align: baseline; white-space-collapse: preserve;&quot;&gt;vitalidade&lt;/span&gt;&lt;/span&gt;&lt;span&gt;&lt;span style=&quot;font-size: 11pt; font-family: Arial, sans-serif; background-color: transparent; font-variant-numeric: normal; font-variant-east-asian: normal; font-variant-alternates: normal; font-variant-position: normal; vertical-align: baseline; white-space-collapse: preserve;&quot;&gt;&lt;br&gt;&lt;/span&gt;&lt;/span&gt;&lt;/p&gt;&lt;p style=&quot;line-height: 100%; margin-top: 2px; margin-bottom: 2px;&quot;&gt;&lt;span id=&quot;docs-internal-guid-0e669ab7-7fff-36fa-9d7c-b0061460c1b1&quot;&gt;&lt;span style=&quot;font-size: 11pt; font-family: Arial, sans-serif; background-color: transparent; font-variant-numeric: normal; font-variant-east-asian: normal; font-variant-alternates: normal; font-variant-position: normal; vertical-align: baseline; white-space-collapse: preserve;&quot;&gt;vigor&lt;/span&gt;&lt;/span&gt;&lt;span&gt;&lt;span style=&quot;font-size: 11pt; font-family: Arial, sans-serif; background-color: transparent; font-variant-numeric: normal; font-variant-east-asian: normal; font-variant-alternates: normal; font-variant-position: normal; vertical-align: baseline; white-space-collapse: preserve;&quot;&gt;&lt;br&gt;&lt;/span&gt;&lt;/span&gt;&lt;/p&gt;&lt;p style=&quot;line-height: 100%; margin-top: 2px; margin-bottom: 2px;&quot;&gt;&lt;span id=&quot;docs-internal-guid-48d795de-7fff-4ca6-87a7-32a16a1d3475&quot;&gt;&lt;span style=&quot;font-size: 11pt; font-family: Arial, sans-serif; background-color: transparent; font-variant-numeric: normal; font-variant-east-asian: normal; font-variant-alternates: normal; font-variant-position: normal; vertical-align: baseline; white-space-collapse: preserve;&quot;&gt;inteligencia&lt;/span&gt;&lt;/span&gt;&lt;/p&gt;&lt;p style=&quot;line-height: 100%; margin-top: 2px; margin-bottom: 2px;&quot;&gt;&lt;span style=&quot;background-color: transparent; font-family: Arial, sans-serif; font-size: 11pt; white-space-collapse: preserve;&quot;&gt;fé&lt;/span&gt;&lt;/p&gt;&lt;p style=&quot;line-height: 100%; margin-top: 2px; margin-bottom: 2px;&quot;&gt;&lt;span id=&quot;docs-internal-guid-96ec707c-7fff-7b85-a313-1b728ab4c4f4&quot;&gt;&lt;span style=&quot;font-size: 11pt; font-family: Arial, sans-serif; background-color: transparent; font-variant-numeric: normal; font-variant-east-asian: normal; font-variant-alternates: normal; font-variant-position: normal; vertical-align: baseline; white-space-collapse: preserve;&quot;&gt;destreza&lt;/span&gt;&lt;/span&gt;&lt;span&gt;&lt;span style=&quot;font-size: 11pt; font-family: Arial, sans-serif; background-color: transparent; font-variant-numeric: normal; font-variant-east-asian: normal; font-variant-alternates: normal; font-variant-position: normal; vertical-align: baseline; white-space-collapse: preserve;&quot;&gt;&lt;br&gt;&lt;/span&gt;&lt;/span&gt;&lt;/p&gt;&lt;p style=&quot;line-height: 100%; margin-top: 2px; margin-bottom: 2px;&quot;&gt;&lt;span id=&quot;docs-internal-guid-cd93c1f4-7fff-a164-152d-51d7bb64dcba&quot;&gt;&lt;span style=&quot;font-size: 11pt; font-family: Arial, sans-serif; background-color: transparent; font-variant-numeric: normal; font-variant-east-asian: normal; font-variant-alternates: normal; font-variant-position: normal; vertical-align: baseline; white-space-collapse: preserve;&quot;&gt;forca&lt;/span&gt;&lt;/span&gt;&lt;span&gt;&lt;span style=&quot;font-size: 11pt; font-family: Arial, sans-serif; background-color: transparent; font-variant-numeric: normal; font-variant-east-asian: normal; font-variant-alternates: normal; font-variant-position: normal; vertical-align: baseline; white-space-collapse: preserve;&quot;&gt;&lt;br&gt;&lt;/span&gt;&lt;/span&gt;&lt;/p&gt;&lt;p style=&quot;line-height: 100%; margin-top: 2px; margin-bottom: 2px;&quot;&gt;&lt;span id=&quot;docs-internal-guid-ab870ddc-7fff-c733-4c4e-f307968c8ce8&quot;&gt;&lt;span style=&quot;font-size: 11pt; font-family: Arial, sans-serif; background-color: transparent; font-variant-numeric: normal; font-variant-east-asian: normal; font-variant-alternates: normal; font-variant-position: normal; vertical-align: baseline; white-space-collapse: preserve;&quot;&gt;peso_maximo&lt;/span&gt;&lt;/span&gt;&lt;span&gt;&lt;span style=&quot;font-size: 11pt; font-family: Arial, sans-serif; background-color: transparent; font-variant-numeric: normal; font-variant-east-asian: normal; font-variant-alternates: normal; font-variant-position: normal; vertical-align: baseline; white-space-collapse: preserve;&quot;&gt;&lt;br&gt;&lt;/span&gt;&lt;/span&gt;&lt;/p&gt;&lt;p style=&quot;line-height: 100%; margin-top: 2px; margin-bottom: 2px;&quot;&gt;&lt;span id=&quot;docs-internal-guid-4bc39bea-7fff-d59a-d738-ee54279208b9&quot;&gt;&lt;span style=&quot;font-size: 11pt; font-family: Arial, sans-serif; background-color: transparent; font-variant-numeric: normal; font-variant-east-asian: normal; font-variant-alternates: normal; font-variant-position: normal; vertical-align: baseline; white-space-collapse: preserve;&quot;&gt;stamina&lt;/span&gt;&lt;/span&gt;&lt;span&gt;&lt;span style=&quot;font-size: 11pt; font-family: Arial, sans-serif; background-color: transparent; font-variant-numeric: normal; font-variant-east-asian: normal; font-variant-alternates: normal; font-variant-position: normal; vertical-align: baseline; white-space-collapse: preserve;&quot;&gt;&lt;br&gt;&lt;/span&gt;&lt;/span&gt;&lt;/p&gt;&lt;p style=&quot;line-height: 100%; margin-top: 2px; margin-bottom: 2px;&quot;&gt;&lt;span id=&quot;docs-internal-guid-f1aa317a-7fff-e3e8-5c72-22b1e95f97a4&quot;&gt;&lt;span style=&quot;font-size: 11pt; font-family: Arial, sans-serif; background-color: transparent; font-variant-numeric: normal; font-variant-east-asian: normal; font-variant-alternates: normal; font-variant-position: normal; vertical-align: baseline; white-space-collapse: preserve;&quot;&gt;mp&lt;/span&gt;&lt;/span&gt;&lt;/p&gt;&lt;p style=&quot;line-height: 100%; margin-top: 2px; margin-bottom: 2px;&quot;&gt;&lt;font face=&quot;Arial, sans-serif&quot;&gt;&lt;span style=&quot;font-size: 14.6667px; white-space-collapse: preserve;&quot;&gt;runas&lt;/span&gt;&lt;/font&gt;&lt;/p&gt;&lt;p style=&quot;line-height: 100%; margin-top: 2px; margin-bottom: 2px;&quot;&gt;&lt;span style=&quot;font-family: Arial, sans-serif; font-size: 14.6667px; white-space-collapse: preserve;&quot;&gt;id_nivel&lt;/span&gt;&lt;font face=&quot;Arial, sans-serif&quot;&gt;&lt;span style=&quot;font-size: 14.6667px; white-space-collapse: preserve;&quot;&gt;&lt;br&gt;&lt;/span&gt;&lt;/font&gt;&lt;/p&gt;&lt;p style=&quot;line-height: 100%; margin-top: 2px; margin-bottom: 2px;&quot;&gt;&lt;span id=&quot;docs-internal-guid-c7af0949-7fff-1a3b-9dbf-634b6a9e9e4d&quot;&gt;&lt;span style=&quot;font-size: 11pt; font-family: Arial, sans-serif; background-color: transparent; font-variant-numeric: normal; font-variant-east-asian: normal; font-variant-alternates: normal; font-variant-position: normal; vertical-align: baseline; white-space-collapse: preserve;&quot;&gt;id_classe&lt;/span&gt;&lt;/span&gt;&lt;font face=&quot;Arial, sans-serif&quot;&gt;&lt;span style=&quot;font-size: 14.6667px; white-space-collapse: preserve;&quot;&gt;&lt;br&gt;&lt;/span&gt;&lt;/font&gt;&lt;/p&gt;&lt;p style=&quot;line-height: 100%; margin-top: 2px; margin-bottom: 2px;&quot;&gt;&lt;span id=&quot;docs-internal-guid-f5a3716c-7fff-27cb-efbb-bca92fbd26fe&quot;&gt;&lt;span style=&quot;font-size: 11pt; font-family: Arial, sans-serif; background-color: transparent; font-variant-numeric: normal; font-variant-east-asian: normal; font-variant-alternates: normal; font-variant-position: normal; vertical-align: baseline; white-space-collapse: preserve;&quot;&gt;id_area&lt;/span&gt;&lt;/span&gt;&lt;span&gt;&lt;span style=&quot;font-size: 11pt; font-family: Arial, sans-serif; background-color: transparent; font-variant-numeric: normal; font-variant-east-asian: normal; font-variant-alternates: normal; font-variant-position: normal; vertical-align: baseline; white-space-collapse: preserve;&quot;&gt;&lt;br&gt;&lt;/span&gt;&lt;/span&gt;&lt;/p&gt;" style="shape=partialRectangle;html=1;whiteSpace=wrap;connectable=0;fillColor=none;top=1;left=0;bottom=1;right=0;align=left;spacingLeft=6;overflow=hidden;strokeColor=inherit;fontSize=16;noLabel=0;snapToPoint=0;horizontal=1;verticalAlign=top;" parent="NpHVf7ny2RbtNi30LPNa-347" vertex="1">
          <mxGeometry x="60" width="144" height="290" as="geometry">
            <mxRectangle width="144" height="290" as="alternateBounds" />
          </mxGeometry>
        </mxCell>
        <mxCell id="NpHVf7ny2RbtNi30LPNa-350" value="Classe" style="shape=table;startSize=30;container=1;collapsible=0;childLayout=tableLayout;fixedRows=1;rowLines=0;fontStyle=0;strokeColor=default;fontSize=16;" parent="1" vertex="1">
          <mxGeometry x="4526" y="2770" width="200" height="200" as="geometry" />
        </mxCell>
        <mxCell id="NpHVf7ny2RbtNi30LPNa-351" value="" style="shape=tableRow;horizontal=0;startSize=0;swimlaneHead=0;swimlaneBody=0;top=0;left=0;bottom=0;right=0;collapsible=0;dropTarget=0;fillColor=none;points=[[0,0.5],[1,0.5]];portConstraint=eastwest;strokeColor=inherit;fontSize=16;" parent="NpHVf7ny2RbtNi30LPNa-350" vertex="1">
          <mxGeometry y="30" width="200" height="30" as="geometry" />
        </mxCell>
        <mxCell id="NpHVf7ny2RbtNi30LPNa-352" value="PK" style="shape=partialRectangle;html=1;whiteSpace=wrap;connectable=0;fillColor=none;top=0;left=0;bottom=0;right=0;overflow=hidden;pointerEvents=1;strokeColor=inherit;fontSize=16;" parent="NpHVf7ny2RbtNi30LPNa-351" vertex="1">
          <mxGeometry width="44" height="30" as="geometry">
            <mxRectangle width="44" height="30" as="alternateBounds" />
          </mxGeometry>
        </mxCell>
        <mxCell id="NpHVf7ny2RbtNi30LPNa-353" value="&lt;span id=&quot;docs-internal-guid-f631e41e-7fff-d73c-ca9e-e82a4820749e&quot;&gt;&lt;span style=&quot;font-size: 11pt; font-family: Arial, sans-serif; background-color: transparent; font-variant-numeric: normal; font-variant-east-asian: normal; font-variant-alternates: normal; font-variant-position: normal; vertical-align: baseline; white-space-collapse: preserve;&quot;&gt;id_classe&lt;/span&gt;&lt;/span&gt;" style="shape=partialRectangle;html=1;whiteSpace=wrap;connectable=0;fillColor=none;top=0;left=0;bottom=0;right=0;align=left;spacingLeft=6;overflow=hidden;strokeColor=inherit;fontSize=16;horizontal=1;" parent="NpHVf7ny2RbtNi30LPNa-351" vertex="1">
          <mxGeometry x="44" width="156" height="30" as="geometry">
            <mxRectangle width="156" height="30" as="alternateBounds" />
          </mxGeometry>
        </mxCell>
        <mxCell id="NpHVf7ny2RbtNi30LPNa-354" value="" style="shape=tableRow;horizontal=0;startSize=0;swimlaneHead=0;swimlaneBody=0;top=0;left=0;bottom=0;right=0;collapsible=0;dropTarget=0;fillColor=none;points=[[0,0.5],[1,0.5]];portConstraint=eastwest;strokeColor=inherit;fontSize=16;verticalAlign=top;" parent="NpHVf7ny2RbtNi30LPNa-350" vertex="1">
          <mxGeometry y="60" width="200" height="140" as="geometry" />
        </mxCell>
        <mxCell id="NpHVf7ny2RbtNi30LPNa-355" value="" style="shape=partialRectangle;html=1;whiteSpace=wrap;connectable=0;fillColor=none;top=1;left=0;bottom=1;right=0;overflow=hidden;strokeColor=inherit;fontSize=16;noLabel=0;snapToPoint=0;" parent="NpHVf7ny2RbtNi30LPNa-354" vertex="1">
          <mxGeometry width="44" height="140" as="geometry">
            <mxRectangle width="44" height="140" as="alternateBounds" />
          </mxGeometry>
        </mxCell>
        <mxCell id="NpHVf7ny2RbtNi30LPNa-356" value="&lt;p style=&quot;line-height: 100%; margin-top: 2px; margin-bottom: 2px;&quot;&gt;&lt;span id=&quot;docs-internal-guid-1f823e37-7fff-f7b6-11d4-229c10f183b2&quot;&gt;&lt;span style=&quot;font-size: 11pt; font-family: Arial, sans-serif; background-color: transparent; font-variant-numeric: normal; font-variant-east-asian: normal; font-variant-alternates: normal; font-variant-position: normal; vertical-align: baseline; white-space-collapse: preserve;&quot;&gt;nome&lt;/span&gt;&lt;/span&gt;&lt;br&gt;&lt;/p&gt;&lt;p style=&quot;line-height: 100%; margin-top: 2px; margin-bottom: 2px;&quot;&gt;&lt;span id=&quot;docs-internal-guid-66696784-7fff-0a1d-2b62-2a7287d9cb6e&quot;&gt;&lt;span style=&quot;font-size: 11pt; font-family: Arial, sans-serif; background-color: transparent; font-variant-numeric: normal; font-variant-east-asian: normal; font-variant-alternates: normal; font-variant-position: normal; vertical-align: baseline; white-space-collapse: preserve;&quot;&gt;base_vitalidade&lt;/span&gt;&lt;/span&gt;&lt;span&gt;&lt;span style=&quot;font-size: 11pt; font-family: Arial, sans-serif; background-color: transparent; font-variant-numeric: normal; font-variant-east-asian: normal; font-variant-alternates: normal; font-variant-position: normal; vertical-align: baseline; white-space-collapse: preserve;&quot;&gt;&lt;br&gt;&lt;/span&gt;&lt;/span&gt;&lt;/p&gt;&lt;p style=&quot;line-height: 100%; margin-top: 2px; margin-bottom: 2px;&quot;&gt;&lt;span id=&quot;docs-internal-guid-961fafae-7fff-15de-0999-beb97e988114&quot;&gt;&lt;span style=&quot;font-size: 11pt; font-family: Arial, sans-serif; background-color: transparent; font-variant-numeric: normal; font-variant-east-asian: normal; font-variant-alternates: normal; font-variant-position: normal; vertical-align: baseline; white-space-collapse: preserve;&quot;&gt;base_vigor&lt;/span&gt;&lt;/span&gt;&lt;span&gt;&lt;span style=&quot;font-size: 11pt; font-family: Arial, sans-serif; background-color: transparent; font-variant-numeric: normal; font-variant-east-asian: normal; font-variant-alternates: normal; font-variant-position: normal; vertical-align: baseline; white-space-collapse: preserve;&quot;&gt;&lt;br&gt;&lt;/span&gt;&lt;/span&gt;&lt;/p&gt;&lt;p style=&quot;line-height: 100%; margin-top: 2px; margin-bottom: 2px;&quot;&gt;&lt;span id=&quot;docs-internal-guid-819da0a8-7fff-229e-0369-e50621905e2f&quot;&gt;&lt;span style=&quot;font-size: 11pt; font-family: Arial, sans-serif; background-color: transparent; font-variant-numeric: normal; font-variant-east-asian: normal; font-variant-alternates: normal; font-variant-position: normal; vertical-align: baseline; white-space-collapse: preserve;&quot;&gt;base_int&lt;/span&gt;&lt;/span&gt;&lt;span&gt;&lt;span style=&quot;font-size: 11pt; font-family: Arial, sans-serif; background-color: transparent; font-variant-numeric: normal; font-variant-east-asian: normal; font-variant-alternates: normal; font-variant-position: normal; vertical-align: baseline; white-space-collapse: preserve;&quot;&gt;&lt;br&gt;&lt;/span&gt;&lt;/span&gt;&lt;/p&gt;&lt;p style=&quot;line-height: 100%; margin-top: 2px; margin-bottom: 2px;&quot;&gt;&lt;span id=&quot;docs-internal-guid-f1d9ef55-7fff-3470-c0bc-62cb55bc47f4&quot;&gt;&lt;span style=&quot;font-size: 11pt; font-family: Arial, sans-serif; background-color: transparent; font-variant-numeric: normal; font-variant-east-asian: normal; font-variant-alternates: normal; font-variant-position: normal; vertical-align: baseline; white-space-collapse: preserve;&quot;&gt;base_fe&lt;/span&gt;&lt;/span&gt;&lt;span&gt;&lt;span style=&quot;font-size: 11pt; font-family: Arial, sans-serif; background-color: transparent; font-variant-numeric: normal; font-variant-east-asian: normal; font-variant-alternates: normal; font-variant-position: normal; vertical-align: baseline; white-space-collapse: preserve;&quot;&gt;&lt;br&gt;&lt;/span&gt;&lt;/span&gt;&lt;/p&gt;&lt;p style=&quot;line-height: 100%; margin-top: 2px; margin-bottom: 2px;&quot;&gt;&lt;span id=&quot;docs-internal-guid-3d2ed249-7fff-4402-9e8c-9f5d3a81be07&quot;&gt;&lt;span style=&quot;font-size: 11pt; font-family: Arial, sans-serif; background-color: transparent; font-variant-numeric: normal; font-variant-east-asian: normal; font-variant-alternates: normal; font-variant-position: normal; vertical-align: baseline; white-space-collapse: preserve;&quot;&gt;base_destreza&lt;/span&gt;&lt;/span&gt;&lt;span&gt;&lt;span style=&quot;font-size: 11pt; font-family: Arial, sans-serif; background-color: transparent; font-variant-numeric: normal; font-variant-east-asian: normal; font-variant-alternates: normal; font-variant-position: normal; vertical-align: baseline; white-space-collapse: preserve;&quot;&gt;&lt;br&gt;&lt;/span&gt;&lt;/span&gt;&lt;/p&gt;&lt;p style=&quot;line-height: 100%; margin-top: 2px; margin-bottom: 2px;&quot;&gt;&lt;span id=&quot;docs-internal-guid-61114a3c-7fff-6522-dc71-2fc00d107c6e&quot;&gt;&lt;span style=&quot;font-size: 11pt; font-family: Arial, sans-serif; background-color: transparent; font-variant-numeric: normal; font-variant-east-asian: normal; font-variant-alternates: normal; font-variant-position: normal; vertical-align: baseline; white-space-collapse: preserve;&quot;&gt;base_forca &lt;/span&gt;&lt;/span&gt;&lt;span&gt;&lt;span style=&quot;font-size: 11pt; font-family: Arial, sans-serif; background-color: transparent; font-variant-numeric: normal; font-variant-east-asian: normal; font-variant-alternates: normal; font-variant-position: normal; vertical-align: baseline; white-space-collapse: preserve;&quot;&gt;&lt;br&gt;&lt;/span&gt;&lt;/span&gt;&lt;/p&gt;" style="shape=partialRectangle;html=1;whiteSpace=wrap;connectable=0;fillColor=none;top=1;left=0;bottom=1;right=0;align=left;spacingLeft=6;overflow=hidden;strokeColor=inherit;fontSize=16;noLabel=0;snapToPoint=0;horizontal=1;verticalAlign=top;" parent="NpHVf7ny2RbtNi30LPNa-354" vertex="1">
          <mxGeometry x="44" width="156" height="140" as="geometry">
            <mxRectangle width="156" height="140" as="alternateBounds" />
          </mxGeometry>
        </mxCell>
        <mxCell id="NpHVf7ny2RbtNi30LPNa-357" style="edgeStyle=orthogonalEdgeStyle;rounded=0;orthogonalLoop=1;jettySize=auto;html=1;exitX=1.008;exitY=0.813;exitDx=0;exitDy=0;entryX=0;entryY=0.5;entryDx=0;entryDy=0;exitPerimeter=0;" parent="1" source="NpHVf7ny2RbtNi30LPNa-347" target="NpHVf7ny2RbtNi30LPNa-351" edge="1">
          <mxGeometry relative="1" as="geometry" />
        </mxCell>
        <mxCell id="NpHVf7ny2RbtNi30LPNa-358" value="Subir_Nivel " style="shape=table;startSize=30;container=1;collapsible=0;childLayout=tableLayout;fixedRows=1;rowLines=0;fontStyle=0;strokeColor=default;fontSize=16;" parent="1" vertex="1">
          <mxGeometry x="3866" y="2780" width="200" height="135" as="geometry" />
        </mxCell>
        <mxCell id="NpHVf7ny2RbtNi30LPNa-359" value="" style="shape=tableRow;horizontal=0;startSize=0;swimlaneHead=0;swimlaneBody=0;top=0;left=0;bottom=0;right=0;collapsible=0;dropTarget=0;fillColor=none;points=[[0,0.5],[1,0.5]];portConstraint=eastwest;strokeColor=inherit;fontSize=16;" parent="NpHVf7ny2RbtNi30LPNa-358" vertex="1">
          <mxGeometry y="30" width="200" height="65" as="geometry" />
        </mxCell>
        <mxCell id="NpHVf7ny2RbtNi30LPNa-360" value="PK&lt;div&gt;SK&lt;/div&gt;" style="shape=partialRectangle;html=1;whiteSpace=wrap;connectable=0;fillColor=none;top=0;left=0;bottom=0;right=0;overflow=hidden;pointerEvents=1;strokeColor=inherit;fontSize=16;" parent="NpHVf7ny2RbtNi30LPNa-359" vertex="1">
          <mxGeometry width="44" height="65" as="geometry">
            <mxRectangle width="44" height="65" as="alternateBounds" />
          </mxGeometry>
        </mxCell>
        <mxCell id="NpHVf7ny2RbtNi30LPNa-361" value="&lt;span id=&quot;docs-internal-guid-97d56221-7fff-46c4-c76d-a272a2c5222d&quot;&gt;&lt;span style=&quot;font-size: 11pt; font-family: Arial, sans-serif; background-color: transparent; font-variant-numeric: normal; font-variant-east-asian: normal; font-variant-alternates: normal; font-variant-position: normal; vertical-align: baseline; white-space-collapse: preserve;&quot;&gt;id_nivel&lt;/span&gt;&lt;/span&gt;&lt;div&gt;&lt;span id=&quot;docs-internal-guid-935f9e74-7fff-55d8-dc30-5875682f659f&quot;&gt;&lt;span style=&quot;font-size: 11pt; font-family: Arial, sans-serif; background-color: transparent; font-variant-numeric: normal; font-variant-east-asian: normal; font-variant-alternates: normal; font-variant-position: normal; vertical-align: baseline; white-space-collapse: preserve;&quot;&gt;nro_nivel &lt;/span&gt;&lt;/span&gt;&lt;span&gt;&lt;span style=&quot;font-size: 11pt; font-family: Arial, sans-serif; background-color: transparent; font-variant-numeric: normal; font-variant-east-asian: normal; font-variant-alternates: normal; font-variant-position: normal; vertical-align: baseline; white-space-collapse: preserve;&quot;&gt;&lt;br&gt;&lt;/span&gt;&lt;/span&gt;&lt;/div&gt;" style="shape=partialRectangle;html=1;whiteSpace=wrap;connectable=0;fillColor=none;top=0;left=0;bottom=0;right=0;align=left;spacingLeft=6;overflow=hidden;strokeColor=inherit;fontSize=16;horizontal=1;" parent="NpHVf7ny2RbtNi30LPNa-359" vertex="1">
          <mxGeometry x="44" width="156" height="65" as="geometry">
            <mxRectangle width="156" height="65" as="alternateBounds" />
          </mxGeometry>
        </mxCell>
        <mxCell id="NpHVf7ny2RbtNi30LPNa-362" value="" style="shape=tableRow;horizontal=0;startSize=0;swimlaneHead=0;swimlaneBody=0;top=0;left=0;bottom=0;right=0;collapsible=0;dropTarget=0;fillColor=none;points=[[0,0.5],[1,0.5]];portConstraint=eastwest;strokeColor=inherit;fontSize=16;verticalAlign=top;" parent="NpHVf7ny2RbtNi30LPNa-358" vertex="1">
          <mxGeometry y="95" width="200" height="40" as="geometry" />
        </mxCell>
        <mxCell id="NpHVf7ny2RbtNi30LPNa-363" value="" style="shape=partialRectangle;html=1;whiteSpace=wrap;connectable=0;fillColor=none;top=1;left=0;bottom=1;right=0;overflow=hidden;strokeColor=inherit;fontSize=16;noLabel=0;snapToPoint=0;" parent="NpHVf7ny2RbtNi30LPNa-362" vertex="1">
          <mxGeometry width="44" height="40" as="geometry">
            <mxRectangle width="44" height="40" as="alternateBounds" />
          </mxGeometry>
        </mxCell>
        <mxCell id="NpHVf7ny2RbtNi30LPNa-364" value="&lt;p style=&quot;line-height: 100%; margin-top: 2px; margin-bottom: 2px;&quot;&gt;&lt;span id=&quot;docs-internal-guid-da609e2c-7fff-dd6b-03e4-f1873841350f&quot;&gt;&lt;span style=&quot;font-size: 11pt; font-family: Arial, sans-serif; background-color: transparent; font-variant-numeric: normal; font-variant-east-asian: normal; font-variant-alternates: normal; font-variant-position: normal; vertical-align: baseline; white-space-collapse: preserve;&quot;&gt;runas_necessarias&lt;/span&gt;&lt;/span&gt;&lt;br&gt;&lt;/p&gt;" style="shape=partialRectangle;html=1;whiteSpace=wrap;connectable=0;fillColor=none;top=1;left=0;bottom=1;right=0;align=left;spacingLeft=6;overflow=hidden;strokeColor=inherit;fontSize=16;noLabel=0;snapToPoint=0;horizontal=1;verticalAlign=top;" parent="NpHVf7ny2RbtNi30LPNa-362" vertex="1">
          <mxGeometry x="44" width="156" height="40" as="geometry">
            <mxRectangle width="156" height="40" as="alternateBounds" />
          </mxGeometry>
        </mxCell>
        <mxCell id="NpHVf7ny2RbtNi30LPNa-365" value="Área_de_Morte " style="shape=table;startSize=30;container=1;collapsible=0;childLayout=tableLayout;fixedRows=1;rowLines=0;fontStyle=0;strokeColor=default;fontSize=16;" parent="1" vertex="1">
          <mxGeometry x="4266" y="2120" width="218" height="130" as="geometry" />
        </mxCell>
        <mxCell id="NpHVf7ny2RbtNi30LPNa-366" value="" style="shape=tableRow;horizontal=0;startSize=0;swimlaneHead=0;swimlaneBody=0;top=0;left=0;bottom=0;right=0;collapsible=0;dropTarget=0;fillColor=none;points=[[0,0.5],[1,0.5]];portConstraint=eastwest;strokeColor=inherit;fontSize=16;" parent="NpHVf7ny2RbtNi30LPNa-365" vertex="1">
          <mxGeometry y="30" width="218" height="50" as="geometry" />
        </mxCell>
        <mxCell id="NpHVf7ny2RbtNi30LPNa-367" value="PK&lt;div&gt;FK, SK&lt;/div&gt;" style="shape=partialRectangle;html=1;whiteSpace=wrap;connectable=0;fillColor=none;top=0;left=0;bottom=0;right=0;overflow=hidden;pointerEvents=1;strokeColor=inherit;fontSize=16;" parent="NpHVf7ny2RbtNi30LPNa-366" vertex="1">
          <mxGeometry width="57" height="50" as="geometry">
            <mxRectangle width="57" height="50" as="alternateBounds" />
          </mxGeometry>
        </mxCell>
        <mxCell id="NpHVf7ny2RbtNi30LPNa-368" value="&lt;span id=&quot;docs-internal-guid-bd97d2b2-7fff-eb5e-d437-71d8e2c1c94b&quot;&gt;&lt;span style=&quot;font-size: 11pt; font-family: Arial, sans-serif; background-color: transparent; font-variant-numeric: normal; font-variant-east-asian: normal; font-variant-alternates: normal; font-variant-position: normal; vertical-align: baseline; white-space-collapse: preserve;&quot;&gt;id_area_de_morte&lt;/span&gt;&lt;/span&gt;&lt;div&gt;&lt;span id=&quot;docs-internal-guid-fc1df192-7fff-1ada-0285-02106c4f0833&quot;&gt;&lt;span style=&quot;font-size: 11pt; font-family: Arial, sans-serif; background-color: transparent; font-variant-numeric: normal; font-variant-east-asian: normal; font-variant-alternates: normal; font-variant-position: normal; vertical-align: baseline; white-space-collapse: preserve;&quot;&gt;id_jogador&lt;/span&gt;&lt;/span&gt;&lt;span&gt;&lt;span style=&quot;font-size: 11pt; font-family: Arial, sans-serif; background-color: transparent; font-variant-numeric: normal; font-variant-east-asian: normal; font-variant-alternates: normal; font-variant-position: normal; vertical-align: baseline; white-space-collapse: preserve;&quot;&gt;&lt;br&gt;&lt;/span&gt;&lt;/span&gt;&lt;/div&gt;" style="shape=partialRectangle;html=1;whiteSpace=wrap;connectable=0;fillColor=none;top=0;left=0;bottom=0;right=0;align=left;spacingLeft=6;overflow=hidden;strokeColor=inherit;fontSize=16;horizontal=1;" parent="NpHVf7ny2RbtNi30LPNa-366" vertex="1">
          <mxGeometry x="57" width="161" height="50" as="geometry">
            <mxRectangle width="161" height="50" as="alternateBounds" />
          </mxGeometry>
        </mxCell>
        <mxCell id="NpHVf7ny2RbtNi30LPNa-369" value="" style="shape=tableRow;horizontal=0;startSize=0;swimlaneHead=0;swimlaneBody=0;top=0;left=0;bottom=0;right=0;collapsible=0;dropTarget=0;fillColor=none;points=[[0,0.5],[1,0.5]];portConstraint=eastwest;strokeColor=inherit;fontSize=16;verticalAlign=top;" parent="NpHVf7ny2RbtNi30LPNa-365" vertex="1">
          <mxGeometry y="80" width="218" height="50" as="geometry" />
        </mxCell>
        <mxCell id="NpHVf7ny2RbtNi30LPNa-370" value="&lt;div&gt;&lt;br&gt;&lt;/div&gt;FK" style="shape=partialRectangle;html=1;whiteSpace=wrap;connectable=0;fillColor=none;top=1;left=0;bottom=1;right=0;overflow=hidden;strokeColor=inherit;fontSize=16;noLabel=0;snapToPoint=0;" parent="NpHVf7ny2RbtNi30LPNa-369" vertex="1">
          <mxGeometry width="57" height="50" as="geometry">
            <mxRectangle width="57" height="50" as="alternateBounds" />
          </mxGeometry>
        </mxCell>
        <mxCell id="NpHVf7ny2RbtNi30LPNa-371" value="&lt;p style=&quot;line-height: 100%; margin-top: 2px; margin-bottom: 2px;&quot;&gt;&lt;span id=&quot;docs-internal-guid-91809c16-7fff-058e-6640-a2003f406c95&quot;&gt;&lt;span style=&quot;font-size: 11pt; font-family: Arial, sans-serif; background-color: transparent; font-variant-numeric: normal; font-variant-east-asian: normal; font-variant-alternates: normal; font-variant-position: normal; vertical-align: baseline; white-space-collapse: preserve;&quot;&gt;runas_dropadas&lt;/span&gt;&lt;/span&gt;&lt;br&gt;&lt;/p&gt;&lt;p style=&quot;line-height: 100%; margin-top: 2px; margin-bottom: 2px;&quot;&gt;&lt;span id=&quot;docs-internal-guid-91eb5d2d-7fff-44e5-e11c-e6db3be9bfaa&quot;&gt;&lt;span style=&quot;font-size: 11pt; font-family: Arial, sans-serif; background-color: transparent; font-variant-numeric: normal; font-variant-east-asian: normal; font-variant-alternates: normal; font-variant-position: normal; vertical-align: baseline; white-space-collapse: preserve;&quot;&gt;id_area&lt;/span&gt;&lt;/span&gt;&lt;br&gt;&lt;/p&gt;" style="shape=partialRectangle;html=1;whiteSpace=wrap;connectable=0;fillColor=none;top=1;left=0;bottom=1;right=0;align=left;spacingLeft=6;overflow=hidden;strokeColor=inherit;fontSize=16;noLabel=0;snapToPoint=0;horizontal=1;verticalAlign=top;" parent="NpHVf7ny2RbtNi30LPNa-369" vertex="1">
          <mxGeometry x="57" width="161" height="50" as="geometry">
            <mxRectangle width="161" height="50" as="alternateBounds" />
          </mxGeometry>
        </mxCell>
        <mxCell id="NpHVf7ny2RbtNi30LPNa-372" style="edgeStyle=orthogonalEdgeStyle;rounded=0;orthogonalLoop=1;jettySize=auto;html=1;exitX=0.25;exitY=0;exitDx=0;exitDy=0;entryX=0.673;entryY=0.995;entryDx=0;entryDy=0;entryPerimeter=0;" parent="1" source="NpHVf7ny2RbtNi30LPNa-373" target="NpHVf7ny2RbtNi30LPNa-508" edge="1">
          <mxGeometry relative="1" as="geometry">
            <mxPoint x="3096" y="3200" as="targetPoint" />
            <Array as="points">
              <mxPoint x="3236" y="3260" />
              <mxPoint x="3161" y="3260" />
            </Array>
          </mxGeometry>
        </mxCell>
        <mxCell id="NpHVf7ny2RbtNi30LPNa-373" value="Ferreiro " style="shape=table;startSize=30;container=1;collapsible=0;childLayout=tableLayout;fixedRows=1;rowLines=0;fontStyle=0;strokeColor=default;fontSize=16;" parent="1" vertex="1">
          <mxGeometry x="3186" y="3310" width="200" height="180" as="geometry" />
        </mxCell>
        <mxCell id="NpHVf7ny2RbtNi30LPNa-374" value="" style="shape=tableRow;horizontal=0;startSize=0;swimlaneHead=0;swimlaneBody=0;top=0;left=0;bottom=0;right=0;collapsible=0;dropTarget=0;fillColor=none;points=[[0,0.5],[1,0.5]];portConstraint=eastwest;strokeColor=inherit;fontSize=16;" parent="NpHVf7ny2RbtNi30LPNa-373" vertex="1">
          <mxGeometry y="30" width="200" height="30" as="geometry" />
        </mxCell>
        <mxCell id="NpHVf7ny2RbtNi30LPNa-375" value="PK, FK" style="shape=partialRectangle;html=1;whiteSpace=wrap;connectable=0;fillColor=none;top=0;left=0;bottom=0;right=0;overflow=hidden;pointerEvents=1;strokeColor=inherit;fontSize=16;" parent="NpHVf7ny2RbtNi30LPNa-374" vertex="1">
          <mxGeometry width="60" height="30" as="geometry">
            <mxRectangle width="60" height="30" as="alternateBounds" />
          </mxGeometry>
        </mxCell>
        <mxCell id="NpHVf7ny2RbtNi30LPNa-376" value="&lt;span id=&quot;docs-internal-guid-065b79fe-7fff-9a77-18f3-2db532187a32&quot;&gt;&lt;span style=&quot;font-size: 11pt; font-family: Arial, sans-serif; background-color: transparent; font-variant-numeric: normal; font-variant-east-asian: normal; font-variant-alternates: normal; font-variant-position: normal; vertical-align: baseline; white-space-collapse: preserve;&quot;&gt;id_ferreiro &lt;/span&gt;&lt;/span&gt;" style="shape=partialRectangle;html=1;whiteSpace=wrap;connectable=0;fillColor=none;top=0;left=0;bottom=0;right=0;align=left;spacingLeft=6;overflow=hidden;strokeColor=inherit;fontSize=16;horizontal=1;" parent="NpHVf7ny2RbtNi30LPNa-374" vertex="1">
          <mxGeometry x="60" width="140" height="30" as="geometry">
            <mxRectangle width="140" height="30" as="alternateBounds" />
          </mxGeometry>
        </mxCell>
        <mxCell id="NpHVf7ny2RbtNi30LPNa-377" value="" style="shape=tableRow;horizontal=0;startSize=0;swimlaneHead=0;swimlaneBody=0;top=0;left=0;bottom=0;right=0;collapsible=0;dropTarget=0;fillColor=none;points=[[0,0.5],[1,0.5]];portConstraint=eastwest;strokeColor=inherit;fontSize=16;verticalAlign=top;" parent="NpHVf7ny2RbtNi30LPNa-373" vertex="1">
          <mxGeometry y="60" width="200" height="120" as="geometry" />
        </mxCell>
        <mxCell id="NpHVf7ny2RbtNi30LPNa-378" value="" style="shape=partialRectangle;html=1;whiteSpace=wrap;connectable=0;fillColor=none;top=1;left=0;bottom=1;right=0;overflow=hidden;strokeColor=inherit;fontSize=16;noLabel=0;snapToPoint=0;" parent="NpHVf7ny2RbtNi30LPNa-377" vertex="1">
          <mxGeometry width="60" height="120" as="geometry">
            <mxRectangle width="60" height="120" as="alternateBounds" />
          </mxGeometry>
        </mxCell>
        <mxCell id="NpHVf7ny2RbtNi30LPNa-379" value="&lt;p style=&quot;line-height: 16px; margin-top: 2px; margin-bottom: 2px;&quot;&gt;&lt;span style=&quot;background-color: transparent; font-family: Arial, sans-serif; font-size: 11pt; white-space-collapse: preserve;&quot;&gt;esta_hostil&lt;/span&gt;&lt;br&gt;&lt;/p&gt;&lt;p style=&quot;line-height: 16px; margin-top: 2px; margin-bottom: 2px;&quot;&gt;&lt;span id=&quot;docs-internal-guid-128dbace-7fff-d433-2f5d-5eabf77b7272&quot;&gt;&lt;span style=&quot;font-size: 11pt; font-family: Arial, sans-serif; background-color: transparent; font-variant-numeric: normal; font-variant-east-asian: normal; font-variant-alternates: normal; font-variant-position: normal; vertical-align: baseline; white-space-collapse: preserve;&quot;&gt;resistencia&lt;/span&gt;&lt;/span&gt;&lt;span style=&quot;font-size: 11pt; font-family: Arial, sans-serif; background-color: transparent; font-variant-numeric: normal; font-variant-east-asian: normal; font-variant-alternates: normal; font-variant-position: normal; vertical-align: baseline; white-space-collapse: preserve;&quot;&gt;&lt;br&gt;&lt;/span&gt;&lt;/p&gt;&lt;p style=&quot;line-height: 16px; margin-top: 2px; margin-bottom: 2px;&quot;&gt;&lt;span id=&quot;docs-internal-guid-0ccb7a14-7fff-df71-784e-f1c155ebce9b&quot;&gt;&lt;span style=&quot;font-size: 11pt; font-family: Arial, sans-serif; background-color: transparent; font-variant-numeric: normal; font-variant-east-asian: normal; font-variant-alternates: normal; font-variant-position: normal; vertical-align: baseline; white-space-collapse: preserve;&quot;&gt;fraqueza&lt;/span&gt;&lt;/span&gt;&lt;span style=&quot;font-size: 11pt; font-family: Arial, sans-serif; background-color: transparent; font-variant-numeric: normal; font-variant-east-asian: normal; font-variant-alternates: normal; font-variant-position: normal; vertical-align: baseline; white-space-collapse: preserve;&quot;&gt;&lt;br&gt;&lt;/span&gt;&lt;/p&gt;&lt;p style=&quot;line-height: 16px; margin-top: 2px; margin-bottom: 2px;&quot;&gt;&lt;span id=&quot;docs-internal-guid-047b7ae8-7fff-ef1c-21b9-ed77b8745935&quot;&gt;&lt;span style=&quot;font-size: 11pt; font-family: Arial, sans-serif; background-color: transparent; font-variant-numeric: normal; font-variant-east-asian: normal; font-variant-alternates: normal; font-variant-position: normal; vertical-align: baseline; white-space-collapse: preserve;&quot;&gt;drop_runas&lt;/span&gt;&lt;/span&gt;&lt;span style=&quot;font-size: 11pt; font-family: Arial, sans-serif; background-color: transparent; font-variant-numeric: normal; font-variant-east-asian: normal; font-variant-alternates: normal; font-variant-position: normal; vertical-align: baseline; white-space-collapse: preserve;&quot;&gt;&lt;br&gt;&lt;/span&gt;&lt;/p&gt;&lt;p style=&quot;line-height: 16px; margin-top: 2px; margin-bottom: 2px;&quot;&gt;&lt;span id=&quot;docs-internal-guid-6d2343f9-7fff-1b7c-17f2-91c780a77ade&quot;&gt;&lt;span style=&quot;font-size: 11pt; font-family: Arial, sans-serif; background-color: transparent; font-variant-numeric: normal; font-variant-east-asian: normal; font-variant-alternates: normal; font-variant-position: normal; vertical-align: baseline; white-space-collapse: preserve;&quot;&gt;nome&lt;/span&gt;&lt;/span&gt;&lt;br&gt;&lt;/p&gt;&lt;p style=&quot;line-height: 16px; margin-top: 2px; margin-bottom: 2px;&quot;&gt;&lt;span id=&quot;docs-internal-guid-c55acf81-7fff-244a-fdf5-20c4c6c7b7da&quot;&gt;&lt;span style=&quot;font-size: 11pt; font-family: Arial, sans-serif; background-color: transparent; font-variant-numeric: normal; font-variant-east-asian: normal; font-variant-alternates: normal; font-variant-position: normal; vertical-align: baseline; white-space-collapse: preserve;&quot;&gt;hp&lt;/span&gt;&lt;/span&gt;&lt;/p&gt;&lt;p style=&quot;line-height: 16px; margin-top: 2px; margin-bottom: 2px;&quot;&gt;&lt;br&gt;&lt;/p&gt;" style="shape=partialRectangle;html=1;whiteSpace=wrap;connectable=0;fillColor=none;top=1;left=0;bottom=1;right=0;align=left;spacingLeft=6;overflow=hidden;strokeColor=inherit;fontSize=16;noLabel=0;snapToPoint=0;horizontal=1;verticalAlign=top;" parent="NpHVf7ny2RbtNi30LPNa-377" vertex="1">
          <mxGeometry x="60" width="140" height="120" as="geometry">
            <mxRectangle width="140" height="120" as="alternateBounds" />
          </mxGeometry>
        </mxCell>
        <mxCell id="NpHVf7ny2RbtNi30LPNa-380" value="Inimigo " style="shape=table;startSize=30;container=1;collapsible=0;childLayout=tableLayout;fixedRows=1;rowLines=0;fontStyle=0;strokeColor=default;fontSize=16;" parent="1" vertex="1">
          <mxGeometry x="2941" y="3310" width="200" height="210" as="geometry" />
        </mxCell>
        <mxCell id="NpHVf7ny2RbtNi30LPNa-381" value="" style="shape=tableRow;horizontal=0;startSize=0;swimlaneHead=0;swimlaneBody=0;top=0;left=0;bottom=0;right=0;collapsible=0;dropTarget=0;fillColor=none;points=[[0,0.5],[1,0.5]];portConstraint=eastwest;strokeColor=inherit;fontSize=16;" parent="NpHVf7ny2RbtNi30LPNa-380" vertex="1">
          <mxGeometry y="30" width="200" height="30" as="geometry" />
        </mxCell>
        <mxCell id="NpHVf7ny2RbtNi30LPNa-382" value="PK, FK" style="shape=partialRectangle;html=1;whiteSpace=wrap;connectable=0;fillColor=none;top=0;left=0;bottom=0;right=0;overflow=hidden;pointerEvents=1;strokeColor=inherit;fontSize=16;" parent="NpHVf7ny2RbtNi30LPNa-381" vertex="1">
          <mxGeometry width="60" height="30" as="geometry">
            <mxRectangle width="60" height="30" as="alternateBounds" />
          </mxGeometry>
        </mxCell>
        <mxCell id="NpHVf7ny2RbtNi30LPNa-383" value="&lt;span id=&quot;docs-internal-guid-92d52973-7fff-9a64-9e7a-e45d0ab4c4ce&quot;&gt;&lt;span style=&quot;font-size: 11pt; font-family: Arial, sans-serif; background-color: transparent; font-variant-numeric: normal; font-variant-east-asian: normal; font-variant-alternates: normal; font-variant-position: normal; vertical-align: baseline; white-space-collapse: preserve;&quot;&gt;id_inimigo&lt;/span&gt;&lt;/span&gt;" style="shape=partialRectangle;html=1;whiteSpace=wrap;connectable=0;fillColor=none;top=0;left=0;bottom=0;right=0;align=left;spacingLeft=6;overflow=hidden;strokeColor=inherit;fontSize=16;horizontal=1;" parent="NpHVf7ny2RbtNi30LPNa-381" vertex="1">
          <mxGeometry x="60" width="140" height="30" as="geometry">
            <mxRectangle width="140" height="30" as="alternateBounds" />
          </mxGeometry>
        </mxCell>
        <mxCell id="NpHVf7ny2RbtNi30LPNa-384" value="" style="shape=tableRow;horizontal=0;startSize=0;swimlaneHead=0;swimlaneBody=0;top=0;left=0;bottom=0;right=0;collapsible=0;dropTarget=0;fillColor=none;points=[[0,0.5],[1,0.5]];portConstraint=eastwest;strokeColor=inherit;fontSize=16;verticalAlign=top;" parent="NpHVf7ny2RbtNi30LPNa-380" vertex="1">
          <mxGeometry y="60" width="200" height="150" as="geometry" />
        </mxCell>
        <mxCell id="NpHVf7ny2RbtNi30LPNa-385" value="" style="shape=partialRectangle;html=1;whiteSpace=wrap;connectable=0;fillColor=none;top=1;left=0;bottom=1;right=0;overflow=hidden;strokeColor=inherit;fontSize=16;noLabel=0;snapToPoint=0;" parent="NpHVf7ny2RbtNi30LPNa-384" vertex="1">
          <mxGeometry width="60" height="150" as="geometry">
            <mxRectangle width="60" height="150" as="alternateBounds" />
          </mxGeometry>
        </mxCell>
        <mxCell id="NpHVf7ny2RbtNi30LPNa-386" value="&lt;p style=&quot;line-height: 100%; margin-top: 2px; margin-bottom: 2px;&quot;&gt;&lt;span style=&quot;background-color: transparent; font-family: Arial, sans-serif; font-size: 11pt; white-space-collapse: preserve;&quot;&gt;esta_hostil&lt;/span&gt;&lt;br&gt;&lt;/p&gt;&lt;p style=&quot;line-height: 100%; margin-top: 2px; margin-bottom: 2px;&quot;&gt;&lt;span id=&quot;docs-internal-guid-128dbace-7fff-d433-2f5d-5eabf77b7272&quot;&gt;&lt;span style=&quot;font-size: 11pt; font-family: Arial, sans-serif; background-color: transparent; font-variant-numeric: normal; font-variant-east-asian: normal; font-variant-alternates: normal; font-variant-position: normal; vertical-align: baseline; white-space-collapse: preserve;&quot;&gt;resistencia&lt;/span&gt;&lt;/span&gt;&lt;span&gt;&lt;span style=&quot;font-size: 11pt; font-family: Arial, sans-serif; background-color: transparent; font-variant-numeric: normal; font-variant-east-asian: normal; font-variant-alternates: normal; font-variant-position: normal; vertical-align: baseline; white-space-collapse: preserve;&quot;&gt;&lt;br&gt;&lt;/span&gt;&lt;/span&gt;&lt;/p&gt;&lt;p style=&quot;line-height: 100%; margin-top: 2px; margin-bottom: 2px;&quot;&gt;&lt;span id=&quot;docs-internal-guid-0ccb7a14-7fff-df71-784e-f1c155ebce9b&quot;&gt;&lt;span style=&quot;font-size: 11pt; font-family: Arial, sans-serif; background-color: transparent; font-variant-numeric: normal; font-variant-east-asian: normal; font-variant-alternates: normal; font-variant-position: normal; vertical-align: baseline; white-space-collapse: preserve;&quot;&gt;fraqueza&lt;/span&gt;&lt;/span&gt;&lt;span&gt;&lt;span style=&quot;font-size: 11pt; font-family: Arial, sans-serif; background-color: transparent; font-variant-numeric: normal; font-variant-east-asian: normal; font-variant-alternates: normal; font-variant-position: normal; vertical-align: baseline; white-space-collapse: preserve;&quot;&gt;&lt;br&gt;&lt;/span&gt;&lt;/span&gt;&lt;/p&gt;&lt;p style=&quot;line-height: 100%; margin-top: 2px; margin-bottom: 2px;&quot;&gt;&lt;span id=&quot;docs-internal-guid-047b7ae8-7fff-ef1c-21b9-ed77b8745935&quot;&gt;&lt;span style=&quot;font-size: 11pt; font-family: Arial, sans-serif; background-color: transparent; font-variant-numeric: normal; font-variant-east-asian: normal; font-variant-alternates: normal; font-variant-position: normal; vertical-align: baseline; white-space-collapse: preserve;&quot;&gt;drop_runas&lt;/span&gt;&lt;/span&gt;&lt;span&gt;&lt;span style=&quot;font-size: 11pt; font-family: Arial, sans-serif; background-color: transparent; font-variant-numeric: normal; font-variant-east-asian: normal; font-variant-alternates: normal; font-variant-position: normal; vertical-align: baseline; white-space-collapse: preserve;&quot;&gt;&lt;br&gt;&lt;/span&gt;&lt;/span&gt;&lt;/p&gt;&lt;p style=&quot;line-height: 100%; margin-top: 2px; margin-bottom: 2px;&quot;&gt;&lt;span id=&quot;docs-internal-guid-6d2343f9-7fff-1b7c-17f2-91c780a77ade&quot;&gt;&lt;span style=&quot;font-size: 11pt; font-family: Arial, sans-serif; background-color: transparent; font-variant-numeric: normal; font-variant-east-asian: normal; font-variant-alternates: normal; font-variant-position: normal; vertical-align: baseline; white-space-collapse: preserve;&quot;&gt;nome&lt;/span&gt;&lt;/span&gt;&lt;br&gt;&lt;/p&gt;&lt;p style=&quot;line-height: 100%; margin-top: 2px; margin-bottom: 2px;&quot;&gt;&lt;span id=&quot;docs-internal-guid-c55acf81-7fff-244a-fdf5-20c4c6c7b7da&quot;&gt;&lt;span style=&quot;font-size: 11pt; font-family: Arial, sans-serif; background-color: transparent; font-variant-numeric: normal; font-variant-east-asian: normal; font-variant-alternates: normal; font-variant-position: normal; vertical-align: baseline; white-space-collapse: preserve;&quot;&gt;hp&lt;/span&gt;&lt;/span&gt;&lt;/p&gt;&lt;p style=&quot;line-height: 100%; margin-top: 2px; margin-bottom: 2px;&quot;&gt;&lt;span id=&quot;docs-internal-guid-53b1db44-7fff-3be7-56dd-37fed8b0ff46&quot;&gt;&lt;span style=&quot;font-size: 11pt; font-family: Arial, sans-serif; background-color: transparent; font-variant-numeric: normal; font-variant-east-asian: normal; font-variant-alternates: normal; font-variant-position: normal; vertical-align: baseline; white-space-collapse: preserve;&quot;&gt;dano_base&lt;/span&gt;&lt;/span&gt;&lt;/p&gt;" style="shape=partialRectangle;html=1;whiteSpace=wrap;connectable=0;fillColor=none;top=1;left=0;bottom=1;right=0;align=left;spacingLeft=6;overflow=hidden;strokeColor=inherit;fontSize=16;noLabel=0;snapToPoint=0;horizontal=1;verticalAlign=top;" parent="NpHVf7ny2RbtNi30LPNa-384" vertex="1">
          <mxGeometry x="60" width="140" height="150" as="geometry">
            <mxRectangle width="140" height="150" as="alternateBounds" />
          </mxGeometry>
        </mxCell>
        <mxCell id="NpHVf7ny2RbtNi30LPNa-387" style="edgeStyle=orthogonalEdgeStyle;rounded=0;orthogonalLoop=1;jettySize=auto;html=1;exitX=0.25;exitY=0;exitDx=0;exitDy=0;entryX=0.837;entryY=1.004;entryDx=0;entryDy=0;entryPerimeter=0;" parent="1" source="NpHVf7ny2RbtNi30LPNa-388" target="NpHVf7ny2RbtNi30LPNa-508" edge="1">
          <mxGeometry relative="1" as="geometry">
            <mxPoint x="3196" y="3140" as="targetPoint" />
            <Array as="points">
              <mxPoint x="3486" y="3230" />
              <mxPoint x="3193" y="3230" />
            </Array>
          </mxGeometry>
        </mxCell>
        <mxCell id="NpHVf7ny2RbtNi30LPNa-388" value="Chefe" style="shape=table;startSize=30;container=1;collapsible=0;childLayout=tableLayout;fixedRows=1;rowLines=0;fontStyle=0;strokeColor=default;fontSize=16;" parent="1" vertex="1">
          <mxGeometry x="3436" y="3310" width="200" height="270" as="geometry" />
        </mxCell>
        <mxCell id="NpHVf7ny2RbtNi30LPNa-389" value="" style="shape=tableRow;horizontal=0;startSize=0;swimlaneHead=0;swimlaneBody=0;top=0;left=0;bottom=0;right=0;collapsible=0;dropTarget=0;fillColor=none;points=[[0,0.5],[1,0.5]];portConstraint=eastwest;strokeColor=inherit;fontSize=16;" parent="NpHVf7ny2RbtNi30LPNa-388" vertex="1">
          <mxGeometry y="30" width="200" height="30" as="geometry" />
        </mxCell>
        <mxCell id="NpHVf7ny2RbtNi30LPNa-390" value="PK, FK" style="shape=partialRectangle;html=1;whiteSpace=wrap;connectable=0;fillColor=none;top=0;left=0;bottom=0;right=0;overflow=hidden;pointerEvents=1;strokeColor=inherit;fontSize=16;" parent="NpHVf7ny2RbtNi30LPNa-389" vertex="1">
          <mxGeometry width="70" height="30" as="geometry">
            <mxRectangle width="70" height="30" as="alternateBounds" />
          </mxGeometry>
        </mxCell>
        <mxCell id="NpHVf7ny2RbtNi30LPNa-391" value="&lt;span id=&quot;docs-internal-guid-6166ad8c-7fff-8693-5275-796e19fdaada&quot;&gt;&lt;span style=&quot;font-size: 11pt; font-family: Arial, sans-serif; background-color: transparent; font-variant-numeric: normal; font-variant-east-asian: normal; font-variant-alternates: normal; font-variant-position: normal; vertical-align: baseline; white-space-collapse: preserve;&quot;&gt;id_chefe&lt;/span&gt;&lt;/span&gt;" style="shape=partialRectangle;html=1;whiteSpace=wrap;connectable=0;fillColor=none;top=0;left=0;bottom=0;right=0;align=left;spacingLeft=6;overflow=hidden;strokeColor=inherit;fontSize=16;horizontal=1;" parent="NpHVf7ny2RbtNi30LPNa-389" vertex="1">
          <mxGeometry x="70" width="130" height="30" as="geometry">
            <mxRectangle width="130" height="30" as="alternateBounds" />
          </mxGeometry>
        </mxCell>
        <mxCell id="NpHVf7ny2RbtNi30LPNa-392" value="" style="shape=tableRow;horizontal=0;startSize=0;swimlaneHead=0;swimlaneBody=0;top=0;left=0;bottom=0;right=0;collapsible=0;dropTarget=0;fillColor=none;points=[[0,0.5],[1,0.5]];portConstraint=eastwest;strokeColor=inherit;fontSize=16;verticalAlign=top;" parent="NpHVf7ny2RbtNi30LPNa-388" vertex="1">
          <mxGeometry y="60" width="200" height="210" as="geometry" />
        </mxCell>
        <mxCell id="NpHVf7ny2RbtNi30LPNa-393" value="" style="shape=partialRectangle;html=1;whiteSpace=wrap;connectable=0;fillColor=none;top=1;left=0;bottom=1;right=0;overflow=hidden;strokeColor=inherit;fontSize=16;noLabel=0;snapToPoint=0;" parent="NpHVf7ny2RbtNi30LPNa-392" vertex="1">
          <mxGeometry width="70" height="210" as="geometry">
            <mxRectangle width="70" height="210" as="alternateBounds" />
          </mxGeometry>
        </mxCell>
        <mxCell id="NpHVf7ny2RbtNi30LPNa-394" value="&lt;p style=&quot;line-height: 16px; margin-top: 2px; margin-bottom: 2px;&quot;&gt;&lt;span style=&quot;background-color: transparent; font-family: Arial, sans-serif; font-size: 11pt; white-space-collapse: preserve;&quot;&gt;esta_hostil&lt;/span&gt;&lt;br&gt;&lt;/p&gt;&lt;p style=&quot;line-height: 16px; margin-top: 2px; margin-bottom: 2px;&quot;&gt;&lt;span id=&quot;docs-internal-guid-128dbace-7fff-d433-2f5d-5eabf77b7272&quot;&gt;&lt;span style=&quot;font-size: 11pt; font-family: Arial, sans-serif; background-color: transparent; font-variant-numeric: normal; font-variant-east-asian: normal; font-variant-alternates: normal; font-variant-position: normal; vertical-align: baseline; white-space-collapse: preserve;&quot;&gt;resistencia&lt;/span&gt;&lt;/span&gt;&lt;span style=&quot;font-size: 11pt; font-family: Arial, sans-serif; background-color: transparent; font-variant-numeric: normal; font-variant-east-asian: normal; font-variant-alternates: normal; font-variant-position: normal; vertical-align: baseline; white-space-collapse: preserve;&quot;&gt;&lt;br&gt;&lt;/span&gt;&lt;/p&gt;&lt;p style=&quot;line-height: 16px; margin-top: 2px; margin-bottom: 2px;&quot;&gt;&lt;span id=&quot;docs-internal-guid-0ccb7a14-7fff-df71-784e-f1c155ebce9b&quot;&gt;&lt;span style=&quot;font-size: 11pt; font-family: Arial, sans-serif; background-color: transparent; font-variant-numeric: normal; font-variant-east-asian: normal; font-variant-alternates: normal; font-variant-position: normal; vertical-align: baseline; white-space-collapse: preserve;&quot;&gt;fraqueza&lt;/span&gt;&lt;/span&gt;&lt;span style=&quot;font-size: 11pt; font-family: Arial, sans-serif; background-color: transparent; font-variant-numeric: normal; font-variant-east-asian: normal; font-variant-alternates: normal; font-variant-position: normal; vertical-align: baseline; white-space-collapse: preserve;&quot;&gt;&lt;br&gt;&lt;/span&gt;&lt;/p&gt;&lt;p style=&quot;line-height: 16px; margin-top: 2px; margin-bottom: 2px;&quot;&gt;&lt;span id=&quot;docs-internal-guid-047b7ae8-7fff-ef1c-21b9-ed77b8745935&quot;&gt;&lt;span style=&quot;font-size: 11pt; font-family: Arial, sans-serif; background-color: transparent; font-variant-numeric: normal; font-variant-east-asian: normal; font-variant-alternates: normal; font-variant-position: normal; vertical-align: baseline; white-space-collapse: preserve;&quot;&gt;drop_runas&lt;/span&gt;&lt;/span&gt;&lt;span style=&quot;font-size: 11pt; font-family: Arial, sans-serif; background-color: transparent; font-variant-numeric: normal; font-variant-east-asian: normal; font-variant-alternates: normal; font-variant-position: normal; vertical-align: baseline; white-space-collapse: preserve;&quot;&gt;&lt;br&gt;&lt;/span&gt;&lt;/p&gt;&lt;p style=&quot;line-height: 16px; margin-top: 2px; margin-bottom: 2px;&quot;&gt;&lt;span id=&quot;docs-internal-guid-6d2343f9-7fff-1b7c-17f2-91c780a77ade&quot;&gt;&lt;span style=&quot;font-size: 11pt; font-family: Arial, sans-serif; background-color: transparent; font-variant-numeric: normal; font-variant-east-asian: normal; font-variant-alternates: normal; font-variant-position: normal; vertical-align: baseline; white-space-collapse: preserve;&quot;&gt;nome&lt;/span&gt;&lt;/span&gt;&lt;br&gt;&lt;/p&gt;&lt;p style=&quot;line-height: 16px; margin-top: 2px; margin-bottom: 2px;&quot;&gt;&lt;span id=&quot;docs-internal-guid-c55acf81-7fff-244a-fdf5-20c4c6c7b7da&quot;&gt;&lt;span style=&quot;font-size: 11pt; font-family: Arial, sans-serif; background-color: transparent; font-variant-numeric: normal; font-variant-east-asian: normal; font-variant-alternates: normal; font-variant-position: normal; vertical-align: baseline; white-space-collapse: preserve;&quot;&gt;hp&lt;/span&gt;&lt;/span&gt;&lt;/p&gt;&lt;p style=&quot;line-height: 16px; margin-top: 2px; margin-bottom: 2px;&quot;&gt;&lt;span id=&quot;docs-internal-guid-53b1db44-7fff-3be7-56dd-37fed8b0ff46&quot;&gt;&lt;span style=&quot;font-size: 11pt; font-family: Arial, sans-serif; background-color: transparent; font-variant-numeric: normal; font-variant-east-asian: normal; font-variant-alternates: normal; font-variant-position: normal; vertical-align: baseline; white-space-collapse: preserve;&quot;&gt;dano_base &lt;/span&gt;&lt;/span&gt;&lt;/p&gt;&lt;p style=&quot;line-height: 16px; margin-top: 2px; margin-bottom: 2px;&quot;&gt;&lt;span id=&quot;docs-internal-guid-233c7ae8-7fff-e20b-8d24-d3c771fda6db&quot;&gt;&lt;span style=&quot;font-size: 11pt; font-family: Arial, sans-serif; background-color: transparent; font-variant-numeric: normal; font-variant-east-asian: normal; font-variant-alternates: normal; font-variant-position: normal; vertical-align: baseline; white-space-collapse: preserve;&quot;&gt;lembranca&lt;/span&gt;&lt;/span&gt;&lt;span&gt;&lt;span style=&quot;font-size: 11pt; font-family: Arial, sans-serif; background-color: transparent; font-variant-numeric: normal; font-variant-east-asian: normal; font-variant-alternates: normal; font-variant-position: normal; vertical-align: baseline; white-space-collapse: preserve;&quot;&gt;&lt;br&gt;&lt;/span&gt;&lt;/span&gt;&lt;/p&gt;&lt;p style=&quot;line-height: 16px; margin-top: 2px; margin-bottom: 2px;&quot;&gt;&lt;span id=&quot;docs-internal-guid-63965858-7fff-17f3-1364-9ba526885a56&quot;&gt;&lt;span style=&quot;font-size: 11pt; font-family: Arial, sans-serif; background-color: transparent; font-variant-numeric: normal; font-variant-east-asian: normal; font-variant-alternates: normal; font-variant-position: normal; vertical-align: baseline; white-space-collapse: preserve;&quot;&gt;desperate_move&lt;/span&gt;&lt;/span&gt;&lt;/p&gt;" style="shape=partialRectangle;html=1;whiteSpace=wrap;connectable=0;fillColor=none;top=1;left=0;bottom=1;right=0;align=left;spacingLeft=6;overflow=hidden;strokeColor=inherit;fontSize=16;noLabel=0;snapToPoint=0;horizontal=1;verticalAlign=top;" parent="NpHVf7ny2RbtNi30LPNa-392" vertex="1">
          <mxGeometry x="70" width="130" height="210" as="geometry">
            <mxRectangle width="130" height="210" as="alternateBounds" />
          </mxGeometry>
        </mxCell>
        <mxCell id="NpHVf7ny2RbtNi30LPNa-395" value="Chefes_Derrotados " style="shape=table;startSize=30;container=1;collapsible=0;childLayout=tableLayout;fixedRows=1;rowLines=0;fontStyle=0;strokeColor=default;fontSize=16;" parent="1" vertex="1">
          <mxGeometry x="3756" y="3070" width="210" height="130.00000000000023" as="geometry" />
        </mxCell>
        <mxCell id="NpHVf7ny2RbtNi30LPNa-396" value="" style="shape=tableRow;horizontal=0;startSize=0;swimlaneHead=0;swimlaneBody=0;top=0;left=0;bottom=0;right=0;collapsible=0;dropTarget=0;fillColor=none;points=[[0,0.5],[1,0.5]];portConstraint=eastwest;strokeColor=inherit;fontSize=16;" parent="NpHVf7ny2RbtNi30LPNa-395" vertex="1">
          <mxGeometry y="30" width="210" height="80" as="geometry" />
        </mxCell>
        <mxCell id="NpHVf7ny2RbtNi30LPNa-397" value="PK, FK&lt;div&gt;PK, FK&lt;/div&gt;" style="shape=partialRectangle;html=1;whiteSpace=wrap;connectable=0;fillColor=none;top=0;left=0;bottom=0;right=0;overflow=hidden;pointerEvents=1;strokeColor=inherit;fontSize=16;" parent="NpHVf7ny2RbtNi30LPNa-396" vertex="1">
          <mxGeometry width="70" height="80" as="geometry">
            <mxRectangle width="70" height="80" as="alternateBounds" />
          </mxGeometry>
        </mxCell>
        <mxCell id="NpHVf7ny2RbtNi30LPNa-398" value="&lt;span id=&quot;docs-internal-guid-2d66a903-7fff-82d3-04bc-5d4b8f3e8b57&quot;&gt;&lt;span style=&quot;font-size: 11pt; font-family: Arial, sans-serif; background-color: transparent; font-variant-numeric: normal; font-variant-east-asian: normal; font-variant-alternates: normal; font-variant-position: normal; vertical-align: baseline; white-space-collapse: preserve;&quot;&gt;id_chefe&lt;/span&gt;&lt;/span&gt;&lt;div&gt;&lt;span id=&quot;docs-internal-guid-003b58ba-7fff-b83d-f782-462d31763c02&quot;&gt;&lt;span style=&quot;font-size: 11pt; font-family: Arial, sans-serif; background-color: transparent; font-variant-numeric: normal; font-variant-east-asian: normal; font-variant-alternates: normal; font-variant-position: normal; vertical-align: baseline; white-space-collapse: preserve;&quot;&gt;id_jogador&lt;/span&gt;&lt;/span&gt;&lt;span&gt;&lt;span style=&quot;font-size: 11pt; font-family: Arial, sans-serif; background-color: transparent; font-variant-numeric: normal; font-variant-east-asian: normal; font-variant-alternates: normal; font-variant-position: normal; vertical-align: baseline; white-space-collapse: preserve;&quot;&gt;&lt;br&gt;&lt;/span&gt;&lt;/span&gt;&lt;/div&gt;" style="shape=partialRectangle;html=1;whiteSpace=wrap;connectable=0;fillColor=none;top=0;left=0;bottom=0;right=0;align=left;spacingLeft=6;overflow=hidden;strokeColor=inherit;fontSize=16;horizontal=1;" parent="NpHVf7ny2RbtNi30LPNa-396" vertex="1">
          <mxGeometry x="70" width="140" height="80" as="geometry">
            <mxRectangle width="140" height="80" as="alternateBounds" />
          </mxGeometry>
        </mxCell>
        <mxCell id="NpHVf7ny2RbtNi30LPNa-399" value="" style="shape=tableRow;horizontal=0;startSize=0;swimlaneHead=0;swimlaneBody=0;top=0;left=0;bottom=0;right=0;collapsible=0;dropTarget=0;fillColor=none;points=[[0,0.5],[1,0.5]];portConstraint=eastwest;strokeColor=inherit;fontSize=16;verticalAlign=top;" parent="NpHVf7ny2RbtNi30LPNa-395" vertex="1">
          <mxGeometry y="110" width="210" height="20" as="geometry" />
        </mxCell>
        <mxCell id="NpHVf7ny2RbtNi30LPNa-400" value="" style="shape=partialRectangle;html=1;whiteSpace=wrap;connectable=0;fillColor=none;top=1;left=0;bottom=1;right=0;overflow=hidden;strokeColor=inherit;fontSize=16;noLabel=0;snapToPoint=0;" parent="NpHVf7ny2RbtNi30LPNa-399" vertex="1">
          <mxGeometry width="70" height="20" as="geometry">
            <mxRectangle width="70" height="20" as="alternateBounds" />
          </mxGeometry>
        </mxCell>
        <mxCell id="NpHVf7ny2RbtNi30LPNa-401" value="&lt;p style=&quot;line-height: 100%; margin-top: 2px; margin-bottom: 2px;&quot;&gt;&lt;br&gt;&lt;/p&gt;" style="shape=partialRectangle;html=1;whiteSpace=wrap;connectable=0;fillColor=none;top=1;left=0;bottom=1;right=0;align=left;spacingLeft=6;overflow=hidden;strokeColor=inherit;fontSize=16;noLabel=0;snapToPoint=0;horizontal=1;verticalAlign=top;" parent="NpHVf7ny2RbtNi30LPNa-399" vertex="1">
          <mxGeometry x="70" width="140" height="20" as="geometry">
            <mxRectangle width="140" height="20" as="alternateBounds" />
          </mxGeometry>
        </mxCell>
        <mxCell id="NpHVf7ny2RbtNi30LPNa-402" value="Dialogo" style="shape=table;startSize=30;container=1;collapsible=0;childLayout=tableLayout;fixedRows=1;rowLines=0;fontStyle=0;strokeColor=default;fontSize=16;" parent="1" vertex="1">
          <mxGeometry x="3546" y="2880" width="200" height="130" as="geometry" />
        </mxCell>
        <mxCell id="NpHVf7ny2RbtNi30LPNa-403" value="" style="shape=tableRow;horizontal=0;startSize=0;swimlaneHead=0;swimlaneBody=0;top=0;left=0;bottom=0;right=0;collapsible=0;dropTarget=0;fillColor=none;points=[[0,0.5],[1,0.5]];portConstraint=eastwest;strokeColor=inherit;fontSize=16;" parent="NpHVf7ny2RbtNi30LPNa-402" vertex="1">
          <mxGeometry y="30" width="200" height="30" as="geometry" />
        </mxCell>
        <mxCell id="NpHVf7ny2RbtNi30LPNa-404" value="PK" style="shape=partialRectangle;html=1;whiteSpace=wrap;connectable=0;fillColor=none;top=0;left=0;bottom=0;right=0;overflow=hidden;pointerEvents=1;strokeColor=inherit;fontSize=16;" parent="NpHVf7ny2RbtNi30LPNa-403" vertex="1">
          <mxGeometry width="44" height="30" as="geometry">
            <mxRectangle width="44" height="30" as="alternateBounds" />
          </mxGeometry>
        </mxCell>
        <mxCell id="NpHVf7ny2RbtNi30LPNa-405" value="&lt;span id=&quot;docs-internal-guid-14770907-7fff-5889-afd3-2d7ff9d312d9&quot;&gt;&lt;span style=&quot;font-size: 11pt; font-family: Arial, sans-serif; background-color: transparent; font-variant-numeric: normal; font-variant-east-asian: normal; font-variant-alternates: normal; font-variant-position: normal; vertical-align: baseline; white-space-collapse: preserve;&quot;&gt;id_dialogo&lt;/span&gt;&lt;/span&gt;" style="shape=partialRectangle;html=1;whiteSpace=wrap;connectable=0;fillColor=none;top=0;left=0;bottom=0;right=0;align=left;spacingLeft=6;overflow=hidden;strokeColor=inherit;fontSize=16;horizontal=1;" parent="NpHVf7ny2RbtNi30LPNa-403" vertex="1">
          <mxGeometry x="44" width="156" height="30" as="geometry">
            <mxRectangle width="156" height="30" as="alternateBounds" />
          </mxGeometry>
        </mxCell>
        <mxCell id="NpHVf7ny2RbtNi30LPNa-406" value="" style="shape=tableRow;horizontal=0;startSize=0;swimlaneHead=0;swimlaneBody=0;top=0;left=0;bottom=0;right=0;collapsible=0;dropTarget=0;fillColor=none;points=[[0,0.5],[1,0.5]];portConstraint=eastwest;strokeColor=inherit;fontSize=16;verticalAlign=top;" parent="NpHVf7ny2RbtNi30LPNa-402" vertex="1">
          <mxGeometry y="60" width="200" height="70" as="geometry" />
        </mxCell>
        <mxCell id="NpHVf7ny2RbtNi30LPNa-407" value="&lt;div&gt;&lt;br&gt;&lt;/div&gt;&lt;div&gt;&lt;br&gt;&lt;/div&gt;&lt;div&gt;FK&lt;/div&gt;" style="shape=partialRectangle;html=1;whiteSpace=wrap;connectable=0;fillColor=none;top=1;left=0;bottom=1;right=0;overflow=hidden;strokeColor=inherit;fontSize=16;noLabel=0;snapToPoint=0;" parent="NpHVf7ny2RbtNi30LPNa-406" vertex="1">
          <mxGeometry width="44" height="70" as="geometry">
            <mxRectangle width="44" height="70" as="alternateBounds" />
          </mxGeometry>
        </mxCell>
        <mxCell id="NpHVf7ny2RbtNi30LPNa-408" value="&lt;p style=&quot;line-height: 100%; margin-top: 2px; margin-bottom: 2px;&quot;&gt;&lt;span id=&quot;docs-internal-guid-14812b62-7fff-6e84-ad52-f6301fcc3a4b&quot;&gt;&lt;span style=&quot;font-size: 11pt; font-family: Arial, sans-serif; background-color: transparent; font-variant-numeric: normal; font-variant-east-asian: normal; font-variant-alternates: normal; font-variant-position: normal; vertical-align: baseline; white-space-collapse: preserve;&quot;&gt;texto&lt;/span&gt;&lt;/span&gt;&lt;br&gt;&lt;/p&gt;&lt;p style=&quot;line-height: 100%; margin-top: 2px; margin-bottom: 2px;&quot;&gt;&lt;span id=&quot;docs-internal-guid-3273ad79-7fff-7fa3-0f40-e9cbb89c4805&quot;&gt;&lt;span style=&quot;font-size: 11pt; font-family: Arial, sans-serif; background-color: transparent; font-variant-numeric: normal; font-variant-east-asian: normal; font-variant-alternates: normal; font-variant-position: normal; vertical-align: baseline; white-space-collapse: preserve;&quot;&gt;e_unico&lt;/span&gt;&lt;/span&gt;&lt;span&gt;&lt;span style=&quot;font-size: 11pt; font-family: Arial, sans-serif; background-color: transparent; font-variant-numeric: normal; font-variant-east-asian: normal; font-variant-alternates: normal; font-variant-position: normal; vertical-align: baseline; white-space-collapse: preserve;&quot;&gt;&lt;br&gt;&lt;/span&gt;&lt;/span&gt;&lt;/p&gt;&lt;p style=&quot;line-height: 100%; margin-top: 2px; margin-bottom: 2px;&quot;&gt;&lt;span id=&quot;docs-internal-guid-e127a061-7fff-8ce1-4dbc-56c30ac11722&quot;&gt;&lt;span style=&quot;font-size: 11pt; font-family: Arial, sans-serif; background-color: transparent; font-variant-numeric: normal; font-variant-east-asian: normal; font-variant-alternates: normal; font-variant-position: normal; vertical-align: baseline; white-space-collapse: preserve;&quot;&gt;id_npc&lt;/span&gt;&lt;/span&gt;&lt;span&gt;&lt;span style=&quot;font-size: 11pt; font-family: Arial, sans-serif; background-color: transparent; font-variant-numeric: normal; font-variant-east-asian: normal; font-variant-alternates: normal; font-variant-position: normal; vertical-align: baseline; white-space-collapse: preserve;&quot;&gt;&lt;br&gt;&lt;/span&gt;&lt;/span&gt;&lt;/p&gt;" style="shape=partialRectangle;html=1;whiteSpace=wrap;connectable=0;fillColor=none;top=1;left=0;bottom=1;right=0;align=left;spacingLeft=6;overflow=hidden;strokeColor=inherit;fontSize=16;noLabel=0;snapToPoint=0;horizontal=1;verticalAlign=top;" parent="NpHVf7ny2RbtNi30LPNa-406" vertex="1">
          <mxGeometry x="44" width="156" height="70" as="geometry">
            <mxRectangle width="156" height="70" as="alternateBounds" />
          </mxGeometry>
        </mxCell>
        <mxCell id="NpHVf7ny2RbtNi30LPNa-409" style="edgeStyle=orthogonalEdgeStyle;rounded=0;orthogonalLoop=1;jettySize=auto;html=1;exitX=1;exitY=0.5;exitDx=0;exitDy=0;entryX=0.487;entryY=1.003;entryDx=0;entryDy=0;entryPerimeter=0;" parent="1" source="NpHVf7ny2RbtNi30LPNa-396" target="NpHVf7ny2RbtNi30LPNa-347" edge="1">
          <mxGeometry relative="1" as="geometry" />
        </mxCell>
        <mxCell id="NpHVf7ny2RbtNi30LPNa-410" style="edgeStyle=orthogonalEdgeStyle;rounded=0;orthogonalLoop=1;jettySize=auto;html=1;exitX=0.5;exitY=0;exitDx=0;exitDy=0;entryX=0.569;entryY=0.993;entryDx=0;entryDy=0;entryPerimeter=0;endArrow=none;endFill=0;startArrow=classic;startFill=1;" parent="1" source="NpHVf7ny2RbtNi30LPNa-388" target="NpHVf7ny2RbtNi30LPNa-399" edge="1">
          <mxGeometry relative="1" as="geometry" />
        </mxCell>
        <mxCell id="NpHVf7ny2RbtNi30LPNa-411" style="edgeStyle=orthogonalEdgeStyle;rounded=0;orthogonalLoop=1;jettySize=auto;html=1;entryX=0;entryY=0.5;entryDx=0;entryDy=0;startArrow=classic;startFill=1;endArrow=none;endFill=0;exitX=1;exitY=0.188;exitDx=0;exitDy=0;exitPerimeter=0;" parent="1" source="NpHVf7ny2RbtNi30LPNa-508" target="NpHVf7ny2RbtNi30LPNa-406" edge="1">
          <mxGeometry relative="1" as="geometry">
            <mxPoint x="3306" y="2860" as="sourcePoint" />
            <Array as="points">
              <mxPoint x="3346" y="2990" />
              <mxPoint x="3346" y="2975" />
            </Array>
          </mxGeometry>
        </mxCell>
        <mxCell id="NpHVf7ny2RbtNi30LPNa-412" style="edgeStyle=orthogonalEdgeStyle;rounded=0;orthogonalLoop=1;jettySize=auto;html=1;exitX=1.005;exitY=0.225;exitDx=0;exitDy=0;exitPerimeter=0;" parent="1" source="NpHVf7ny2RbtNi30LPNa-406" target="NpHVf7ny2RbtNi30LPNa-347" edge="1">
          <mxGeometry relative="1" as="geometry">
            <mxPoint x="4426" y="2900" as="targetPoint" />
            <Array as="points">
              <mxPoint x="4390" y="2956" />
            </Array>
            <mxPoint x="3726" y="2820" as="sourcePoint" />
          </mxGeometry>
        </mxCell>
        <mxCell id="NpHVf7ny2RbtNi30LPNa-413" value="Instancia_Item " style="shape=table;startSize=30;container=1;collapsible=0;childLayout=tableLayout;fixedRows=1;rowLines=0;fontStyle=0;strokeColor=default;fontSize=16;" parent="1" vertex="1">
          <mxGeometry x="3086" y="2230" width="200" height="90" as="geometry" />
        </mxCell>
        <mxCell id="NpHVf7ny2RbtNi30LPNa-414" value="" style="shape=tableRow;horizontal=0;startSize=0;swimlaneHead=0;swimlaneBody=0;top=0;left=0;bottom=0;right=0;collapsible=0;dropTarget=0;fillColor=none;points=[[0,0.5],[1,0.5]];portConstraint=eastwest;strokeColor=inherit;fontSize=16;" parent="NpHVf7ny2RbtNi30LPNa-413" vertex="1">
          <mxGeometry y="30" width="200" height="30" as="geometry" />
        </mxCell>
        <mxCell id="NpHVf7ny2RbtNi30LPNa-415" value="PK" style="shape=partialRectangle;html=1;whiteSpace=wrap;connectable=0;fillColor=none;top=0;left=0;bottom=0;right=0;overflow=hidden;pointerEvents=1;strokeColor=inherit;fontSize=16;" parent="NpHVf7ny2RbtNi30LPNa-414" vertex="1">
          <mxGeometry width="70" height="30" as="geometry">
            <mxRectangle width="70" height="30" as="alternateBounds" />
          </mxGeometry>
        </mxCell>
        <mxCell id="NpHVf7ny2RbtNi30LPNa-416" value="&lt;span id=&quot;docs-internal-guid-b961dc90-7fff-bc8e-be0c-cd91ac7e59c0&quot;&gt;&lt;span style=&quot;font-size: 11pt; font-family: Arial, sans-serif; background-color: transparent; font-variant-numeric: normal; font-variant-east-asian: normal; font-variant-alternates: normal; font-variant-position: normal; vertical-align: baseline; white-space-collapse: preserve;&quot;&gt;id_instancia&lt;/span&gt;&lt;/span&gt;" style="shape=partialRectangle;html=1;whiteSpace=wrap;connectable=0;fillColor=none;top=0;left=0;bottom=0;right=0;align=left;spacingLeft=6;overflow=hidden;strokeColor=inherit;fontSize=16;horizontal=1;" parent="NpHVf7ny2RbtNi30LPNa-414" vertex="1">
          <mxGeometry x="70" width="130" height="30" as="geometry">
            <mxRectangle width="130" height="30" as="alternateBounds" />
          </mxGeometry>
        </mxCell>
        <mxCell id="NpHVf7ny2RbtNi30LPNa-417" value="" style="shape=tableRow;horizontal=0;startSize=0;swimlaneHead=0;swimlaneBody=0;top=0;left=0;bottom=0;right=0;collapsible=0;dropTarget=0;fillColor=none;points=[[0,0.5],[1,0.5]];portConstraint=eastwest;strokeColor=inherit;fontSize=16;verticalAlign=top;" parent="NpHVf7ny2RbtNi30LPNa-413" vertex="1">
          <mxGeometry y="60" width="200" height="30" as="geometry" />
        </mxCell>
        <mxCell id="NpHVf7ny2RbtNi30LPNa-418" value="&lt;div&gt;FK&lt;/div&gt;" style="shape=partialRectangle;html=1;whiteSpace=wrap;connectable=0;fillColor=none;top=1;left=0;bottom=1;right=0;overflow=hidden;strokeColor=inherit;fontSize=16;noLabel=0;snapToPoint=0;" parent="NpHVf7ny2RbtNi30LPNa-417" vertex="1">
          <mxGeometry width="70" height="30" as="geometry">
            <mxRectangle width="70" height="30" as="alternateBounds" />
          </mxGeometry>
        </mxCell>
        <mxCell id="NpHVf7ny2RbtNi30LPNa-419" value="&lt;p style=&quot;line-height: 100%; margin-top: 2px; margin-bottom: 2px;&quot;&gt;&lt;span style=&quot;font-family: Arial, sans-serif; font-size: 14.6667px; white-space-collapse: preserve;&quot;&gt;id_item&lt;/span&gt;&lt;/p&gt;" style="shape=partialRectangle;html=1;whiteSpace=wrap;connectable=0;fillColor=none;top=1;left=0;bottom=1;right=0;align=left;spacingLeft=6;overflow=hidden;strokeColor=inherit;fontSize=16;noLabel=0;snapToPoint=0;horizontal=1;verticalAlign=top;" parent="NpHVf7ny2RbtNi30LPNa-417" vertex="1">
          <mxGeometry x="70" width="130" height="30" as="geometry">
            <mxRectangle width="130" height="30" as="alternateBounds" />
          </mxGeometry>
        </mxCell>
        <mxCell id="NpHVf7ny2RbtNi30LPNa-420" value="Instancia_NPC" style="shape=table;startSize=30;container=1;collapsible=0;childLayout=tableLayout;fixedRows=1;rowLines=0;fontStyle=0;strokeColor=default;fontSize=16;" parent="1" vertex="1">
          <mxGeometry x="2996" y="2490" width="200" height="120" as="geometry" />
        </mxCell>
        <mxCell id="NpHVf7ny2RbtNi30LPNa-421" value="" style="shape=tableRow;horizontal=0;startSize=0;swimlaneHead=0;swimlaneBody=0;top=0;left=0;bottom=0;right=0;collapsible=0;dropTarget=0;fillColor=none;points=[[0,0.5],[1,0.5]];portConstraint=eastwest;strokeColor=inherit;fontSize=16;" parent="NpHVf7ny2RbtNi30LPNa-420" vertex="1">
          <mxGeometry y="30" width="200" height="30" as="geometry" />
        </mxCell>
        <mxCell id="NpHVf7ny2RbtNi30LPNa-422" value="PK" style="shape=partialRectangle;html=1;whiteSpace=wrap;connectable=0;fillColor=none;top=0;left=0;bottom=0;right=0;overflow=hidden;pointerEvents=1;strokeColor=inherit;fontSize=16;" parent="NpHVf7ny2RbtNi30LPNa-421" vertex="1">
          <mxGeometry width="44" height="30" as="geometry">
            <mxRectangle width="44" height="30" as="alternateBounds" />
          </mxGeometry>
        </mxCell>
        <mxCell id="NpHVf7ny2RbtNi30LPNa-423" value="&lt;span id=&quot;docs-internal-guid-63d4f2f8-7fff-e176-d109-c837a14ab8af&quot;&gt;&lt;span style=&quot;font-size: 11pt; font-family: Arial, sans-serif; background-color: transparent; font-variant-numeric: normal; font-variant-east-asian: normal; font-variant-alternates: normal; font-variant-position: normal; vertical-align: baseline; white-space-collapse: preserve;&quot;&gt;id_instancia&lt;/span&gt;&lt;/span&gt;" style="shape=partialRectangle;html=1;whiteSpace=wrap;connectable=0;fillColor=none;top=0;left=0;bottom=0;right=0;align=left;spacingLeft=6;overflow=hidden;strokeColor=inherit;fontSize=16;horizontal=1;" parent="NpHVf7ny2RbtNi30LPNa-421" vertex="1">
          <mxGeometry x="44" width="156" height="30" as="geometry">
            <mxRectangle width="156" height="30" as="alternateBounds" />
          </mxGeometry>
        </mxCell>
        <mxCell id="NpHVf7ny2RbtNi30LPNa-424" value="" style="shape=tableRow;horizontal=0;startSize=0;swimlaneHead=0;swimlaneBody=0;top=0;left=0;bottom=0;right=0;collapsible=0;dropTarget=0;fillColor=none;points=[[0,0.5],[1,0.5]];portConstraint=eastwest;strokeColor=inherit;fontSize=16;verticalAlign=top;" parent="NpHVf7ny2RbtNi30LPNa-420" vertex="1">
          <mxGeometry y="60" width="200" height="60" as="geometry" />
        </mxCell>
        <mxCell id="NpHVf7ny2RbtNi30LPNa-425" value="FK&lt;div&gt;FK&lt;/div&gt;" style="shape=partialRectangle;html=1;whiteSpace=wrap;connectable=0;fillColor=none;top=1;left=0;bottom=1;right=0;overflow=hidden;strokeColor=inherit;fontSize=16;noLabel=0;snapToPoint=0;" parent="NpHVf7ny2RbtNi30LPNa-424" vertex="1">
          <mxGeometry width="44" height="60" as="geometry">
            <mxRectangle width="44" height="60" as="alternateBounds" />
          </mxGeometry>
        </mxCell>
        <mxCell id="NpHVf7ny2RbtNi30LPNa-426" value="&lt;p style=&quot;line-height: 100%; margin-top: 2px; margin-bottom: 2px;&quot;&gt;&lt;span id=&quot;docs-internal-guid-e125e02c-7fff-f482-0a0d-0823dc2ea8a4&quot;&gt;&lt;span style=&quot;font-size: 11pt; font-family: Arial, sans-serif; background-color: transparent; font-variant-numeric: normal; font-variant-east-asian: normal; font-variant-alternates: normal; font-variant-position: normal; vertical-align: baseline; white-space-collapse: preserve;&quot;&gt;id_npc&lt;/span&gt;&lt;/span&gt;&lt;br&gt;&lt;/p&gt;&lt;p style=&quot;line-height: 100%; margin-top: 2px; margin-bottom: 2px;&quot;&gt;&lt;span id=&quot;docs-internal-guid-ea2fa881-7fff-10af-5b10-f5ea5106c965&quot;&gt;&lt;span style=&quot;font-size: 11pt; font-family: Arial, sans-serif; background-color: transparent; font-variant-numeric: normal; font-variant-east-asian: normal; font-variant-alternates: normal; font-variant-position: normal; vertical-align: baseline; white-space-collapse: preserve;&quot;&gt;area_id&lt;/span&gt;&lt;/span&gt;&lt;span&gt;&lt;span style=&quot;font-size: 11pt; font-family: Arial, sans-serif; background-color: transparent; font-variant-numeric: normal; font-variant-east-asian: normal; font-variant-alternates: normal; font-variant-position: normal; vertical-align: baseline; white-space-collapse: preserve;&quot;&gt;&lt;br&gt;&lt;/span&gt;&lt;/span&gt;&lt;/p&gt;" style="shape=partialRectangle;html=1;whiteSpace=wrap;connectable=0;fillColor=none;top=1;left=0;bottom=1;right=0;align=left;spacingLeft=6;overflow=hidden;strokeColor=inherit;fontSize=16;noLabel=0;snapToPoint=0;horizontal=1;verticalAlign=top;" parent="NpHVf7ny2RbtNi30LPNa-424" vertex="1">
          <mxGeometry x="44" width="156" height="60" as="geometry">
            <mxRectangle width="156" height="60" as="alternateBounds" />
          </mxGeometry>
        </mxCell>
        <mxCell id="NpHVf7ny2RbtNi30LPNa-427" value="Equipados" style="shape=table;startSize=30;container=1;collapsible=0;childLayout=tableLayout;fixedRows=1;rowLines=0;fontStyle=0;strokeColor=default;fontSize=16;" parent="1" vertex="1">
          <mxGeometry x="4590" y="2470" width="200" height="120" as="geometry" />
        </mxCell>
        <mxCell id="NpHVf7ny2RbtNi30LPNa-428" value="" style="shape=tableRow;horizontal=0;startSize=0;swimlaneHead=0;swimlaneBody=0;top=0;left=0;bottom=0;right=0;collapsible=0;dropTarget=0;fillColor=none;points=[[0,0.5],[1,0.5]];portConstraint=eastwest;strokeColor=inherit;fontSize=16;" parent="NpHVf7ny2RbtNi30LPNa-427" vertex="1">
          <mxGeometry y="30" width="200" height="20" as="geometry" />
        </mxCell>
        <mxCell id="NpHVf7ny2RbtNi30LPNa-429" value="PK, FK" style="shape=partialRectangle;html=1;whiteSpace=wrap;connectable=0;fillColor=none;top=0;left=0;bottom=0;right=0;overflow=hidden;pointerEvents=1;strokeColor=inherit;fontSize=16;" parent="NpHVf7ny2RbtNi30LPNa-428" vertex="1">
          <mxGeometry width="60" height="20" as="geometry">
            <mxRectangle width="60" height="20" as="alternateBounds" />
          </mxGeometry>
        </mxCell>
        <mxCell id="NpHVf7ny2RbtNi30LPNa-430" value="&lt;span id=&quot;docs-internal-guid-b51e7df8-7fff-9247-2de8-edc97919bc00&quot;&gt;&lt;span style=&quot;font-size: 11pt; font-family: Arial, sans-serif; background-color: transparent; font-variant-numeric: normal; font-variant-east-asian: normal; font-variant-alternates: normal; font-variant-position: normal; vertical-align: baseline; white-space-collapse: preserve;&quot;&gt;id_jogador&lt;/span&gt;&lt;/span&gt;" style="shape=partialRectangle;html=1;whiteSpace=wrap;connectable=0;fillColor=none;top=0;left=0;bottom=0;right=0;align=left;spacingLeft=6;overflow=hidden;strokeColor=inherit;fontSize=16;horizontal=1;" parent="NpHVf7ny2RbtNi30LPNa-428" vertex="1">
          <mxGeometry x="60" width="140" height="20" as="geometry">
            <mxRectangle width="140" height="20" as="alternateBounds" />
          </mxGeometry>
        </mxCell>
        <mxCell id="NpHVf7ny2RbtNi30LPNa-431" value="" style="shape=tableRow;horizontal=0;startSize=0;swimlaneHead=0;swimlaneBody=0;top=0;left=0;bottom=0;right=0;collapsible=0;dropTarget=0;fillColor=none;points=[[0,0.5],[1,0.5]];portConstraint=eastwest;strokeColor=inherit;fontSize=16;verticalAlign=top;" parent="NpHVf7ny2RbtNi30LPNa-427" vertex="1">
          <mxGeometry y="50" width="200" height="70" as="geometry" />
        </mxCell>
        <mxCell id="NpHVf7ny2RbtNi30LPNa-432" value="&lt;div&gt;&lt;span style=&quot;background-color: initial;&quot;&gt;FK&lt;/span&gt;&lt;br&gt;&lt;/div&gt;&lt;div&gt;FK&lt;/div&gt;&lt;div&gt;FK&lt;/div&gt;" style="shape=partialRectangle;html=1;whiteSpace=wrap;connectable=0;fillColor=none;top=1;left=0;bottom=1;right=0;overflow=hidden;strokeColor=inherit;fontSize=16;noLabel=0;snapToPoint=0;" parent="NpHVf7ny2RbtNi30LPNa-431" vertex="1">
          <mxGeometry width="60" height="70" as="geometry">
            <mxRectangle width="60" height="70" as="alternateBounds" />
          </mxGeometry>
        </mxCell>
        <mxCell id="NpHVf7ny2RbtNi30LPNa-433" value="&lt;p style=&quot;line-height: 100%; margin-top: 2px; margin-bottom: 2px;&quot;&gt;&lt;span id=&quot;docs-internal-guid-7ae1457d-7fff-a1cf-b16c-11d4ae6d3486&quot;&gt;&lt;span style=&quot;font-size: 11pt; font-family: Arial, sans-serif; background-color: transparent; font-variant-numeric: normal; font-variant-east-asian: normal; font-variant-alternates: normal; font-variant-position: normal; vertical-align: baseline; white-space-collapse: preserve;&quot;&gt;mao_direita&lt;/span&gt;&lt;/span&gt;&lt;br&gt;&lt;/p&gt;&lt;p style=&quot;line-height: 100%; margin-top: 2px; margin-bottom: 2px;&quot;&gt;&lt;span id=&quot;docs-internal-guid-120ebb62-7fff-b3a3-74b1-03a9f989b488&quot;&gt;&lt;span style=&quot;font-size: 11pt; font-family: Arial, sans-serif; background-color: transparent; font-variant-numeric: normal; font-variant-east-asian: normal; font-variant-alternates: normal; font-variant-position: normal; vertical-align: baseline; white-space-collapse: preserve;&quot;&gt;mão_esquerda&lt;/span&gt;&lt;/span&gt;&lt;span&gt;&lt;span style=&quot;font-size: 11pt; font-family: Arial, sans-serif; background-color: transparent; font-variant-numeric: normal; font-variant-east-asian: normal; font-variant-alternates: normal; font-variant-position: normal; vertical-align: baseline; white-space-collapse: preserve;&quot;&gt;&lt;br&gt;&lt;/span&gt;&lt;/span&gt;&lt;/p&gt;&lt;p style=&quot;line-height: 100%; margin-top: 2px; margin-bottom: 2px;&quot;&gt;&lt;font face=&quot;Arial, sans-serif&quot;&gt;&lt;span style=&quot;font-size: 14.6667px; white-space-collapse: preserve;&quot;&gt;armadura&lt;/span&gt;&lt;/font&gt;&lt;/p&gt;" style="shape=partialRectangle;html=1;whiteSpace=wrap;connectable=0;fillColor=none;top=1;left=0;bottom=1;right=0;align=left;spacingLeft=6;overflow=hidden;strokeColor=inherit;fontSize=16;noLabel=0;snapToPoint=0;horizontal=1;verticalAlign=top;" parent="NpHVf7ny2RbtNi30LPNa-431" vertex="1">
          <mxGeometry x="60" width="140" height="70" as="geometry">
            <mxRectangle width="140" height="70" as="alternateBounds" />
          </mxGeometry>
        </mxCell>
        <mxCell id="NpHVf7ny2RbtNi30LPNa-434" value="OBSERVAÇÃO" style="swimlane;fontStyle=0;childLayout=stackLayout;horizontal=1;startSize=20;fillColor=none;horizontalStack=0;resizeParent=1;resizeParentMax=0;resizeLast=0;collapsible=1;marginBottom=0;whiteSpace=wrap;html=1;" parent="1" vertex="1">
          <mxGeometry x="3356" y="2160" width="190" height="140" as="geometry" />
        </mxCell>
        <mxCell id="NpHVf7ny2RbtNi30LPNa-435" value="&lt;span id=&quot;docs-internal-guid-ff6fdbab-7fff-44e4-a10f-f229078572c2&quot;&gt;&lt;span style=&quot;font-size: 11pt; font-family: Arial, sans-serif; background-color: transparent; font-style: italic; font-variant-numeric: normal; font-variant-east-asian: normal; font-variant-alternates: normal; font-variant-position: normal; vertical-align: baseline; white-space-collapse: preserve;&quot;&gt;OBS: se uma instância de item estiver em um inventário o id_area sera null e se uma instância de item estiver em uma área o id_inventario será null.&lt;/span&gt;&lt;/span&gt;" style="text;strokeColor=none;fillColor=none;align=left;verticalAlign=top;spacingLeft=4;spacingRight=4;overflow=hidden;rotatable=0;points=[[0,0.5],[1,0.5]];portConstraint=eastwest;whiteSpace=wrap;html=1;" parent="NpHVf7ny2RbtNi30LPNa-434" vertex="1">
          <mxGeometry y="20" width="190" height="120" as="geometry" />
        </mxCell>
        <mxCell id="NpHVf7ny2RbtNi30LPNa-438" style="edgeStyle=orthogonalEdgeStyle;rounded=0;orthogonalLoop=1;jettySize=auto;html=1;exitX=1;exitY=0.5;exitDx=0;exitDy=0;entryX=0;entryY=0.833;entryDx=0;entryDy=0;entryPerimeter=0;" parent="1" source="NpHVf7ny2RbtNi30LPNa-424" target="NpHVf7ny2RbtNi30LPNa-337" edge="1">
          <mxGeometry relative="1" as="geometry">
            <Array as="points">
              <mxPoint x="3736" y="2580" />
              <mxPoint x="3736" y="2215" />
            </Array>
          </mxGeometry>
        </mxCell>
        <mxCell id="NpHVf7ny2RbtNi30LPNa-439" style="edgeStyle=orthogonalEdgeStyle;rounded=0;orthogonalLoop=1;jettySize=auto;html=1;exitX=0;exitY=0.5;exitDx=0;exitDy=0;entryX=0.205;entryY=0.004;entryDx=0;entryDy=0;entryPerimeter=0;" parent="1" source="NpHVf7ny2RbtNi30LPNa-424" target="NpHVf7ny2RbtNi30LPNa-504" edge="1">
          <mxGeometry relative="1" as="geometry" />
        </mxCell>
        <mxCell id="NpHVf7ny2RbtNi30LPNa-440" value="Golpes" style="shape=table;startSize=30;container=1;collapsible=0;childLayout=tableLayout;fixedRows=1;rowLines=0;fontStyle=0;strokeColor=default;fontSize=16;" parent="1" vertex="1">
          <mxGeometry x="2636" y="2770" width="200" height="130" as="geometry" />
        </mxCell>
        <mxCell id="NpHVf7ny2RbtNi30LPNa-441" value="" style="shape=tableRow;horizontal=0;startSize=0;swimlaneHead=0;swimlaneBody=0;top=0;left=0;bottom=0;right=0;collapsible=0;dropTarget=0;fillColor=none;points=[[0,0.5],[1,0.5]];portConstraint=eastwest;strokeColor=inherit;fontSize=16;" parent="NpHVf7ny2RbtNi30LPNa-440" vertex="1">
          <mxGeometry y="30" width="200" height="30" as="geometry" />
        </mxCell>
        <mxCell id="NpHVf7ny2RbtNi30LPNa-442" value="PK" style="shape=partialRectangle;html=1;whiteSpace=wrap;connectable=0;fillColor=none;top=0;left=0;bottom=0;right=0;overflow=hidden;pointerEvents=1;strokeColor=inherit;fontSize=16;" parent="NpHVf7ny2RbtNi30LPNa-441" vertex="1">
          <mxGeometry width="44" height="30" as="geometry">
            <mxRectangle width="44" height="30" as="alternateBounds" />
          </mxGeometry>
        </mxCell>
        <mxCell id="NpHVf7ny2RbtNi30LPNa-443" value="&lt;span id=&quot;docs-internal-guid-14770907-7fff-5889-afd3-2d7ff9d312d9&quot;&gt;&lt;span style=&quot;font-size: 11pt; font-family: Arial, sans-serif; background-color: transparent; font-variant-numeric: normal; font-variant-east-asian: normal; font-variant-alternates: normal; font-variant-position: normal; vertical-align: baseline; white-space-collapse: preserve;&quot;&gt;id_golpe&lt;/span&gt;&lt;/span&gt;" style="shape=partialRectangle;html=1;whiteSpace=wrap;connectable=0;fillColor=none;top=0;left=0;bottom=0;right=0;align=left;spacingLeft=6;overflow=hidden;strokeColor=inherit;fontSize=16;horizontal=1;" parent="NpHVf7ny2RbtNi30LPNa-441" vertex="1">
          <mxGeometry x="44" width="156" height="30" as="geometry">
            <mxRectangle width="156" height="30" as="alternateBounds" />
          </mxGeometry>
        </mxCell>
        <mxCell id="NpHVf7ny2RbtNi30LPNa-444" value="" style="shape=tableRow;horizontal=0;startSize=0;swimlaneHead=0;swimlaneBody=0;top=0;left=0;bottom=0;right=0;collapsible=0;dropTarget=0;fillColor=none;points=[[0,0.5],[1,0.5]];portConstraint=eastwest;strokeColor=inherit;fontSize=16;verticalAlign=top;" parent="NpHVf7ny2RbtNi30LPNa-440" vertex="1">
          <mxGeometry y="60" width="200" height="70" as="geometry" />
        </mxCell>
        <mxCell id="NpHVf7ny2RbtNi30LPNa-445" value="&lt;div&gt;&lt;br&gt;&lt;/div&gt;&lt;div&gt;&lt;br&gt;&lt;/div&gt;&lt;div&gt;FK&lt;/div&gt;" style="shape=partialRectangle;html=1;whiteSpace=wrap;connectable=0;fillColor=none;top=1;left=0;bottom=1;right=0;overflow=hidden;strokeColor=inherit;fontSize=16;noLabel=0;snapToPoint=0;" parent="NpHVf7ny2RbtNi30LPNa-444" vertex="1">
          <mxGeometry width="44" height="70" as="geometry">
            <mxRectangle width="44" height="70" as="alternateBounds" />
          </mxGeometry>
        </mxCell>
        <mxCell id="NpHVf7ny2RbtNi30LPNa-446" value="&lt;p style=&quot;line-height: 100%; margin-top: 2px; margin-bottom: 2px;&quot;&gt;&lt;font face=&quot;Arial, sans-serif&quot;&gt;&lt;span style=&quot;font-size: 14.6667px; white-space-collapse: preserve;&quot;&gt;multiplicador&lt;/span&gt;&lt;/font&gt;&lt;/p&gt;&lt;p style=&quot;line-height: 100%; margin-top: 2px; margin-bottom: 2px;&quot;&gt;&lt;span id=&quot;docs-internal-guid-3273ad79-7fff-7fa3-0f40-e9cbb89c4805&quot;&gt;&lt;span style=&quot;font-size: 11pt; font-family: Arial, sans-serif; background-color: transparent; font-variant-numeric: normal; font-variant-east-asian: normal; font-variant-alternates: normal; font-variant-position: normal; vertical-align: baseline; white-space-collapse: preserve;&quot;&gt;dano_final&lt;/span&gt;&lt;/span&gt;&lt;span&gt;&lt;span style=&quot;font-size: 11pt; font-family: Arial, sans-serif; background-color: transparent; font-variant-numeric: normal; font-variant-east-asian: normal; font-variant-alternates: normal; font-variant-position: normal; vertical-align: baseline; white-space-collapse: preserve;&quot;&gt;&lt;br&gt;&lt;/span&gt;&lt;/span&gt;&lt;/p&gt;&lt;p style=&quot;line-height: 100%; margin-top: 2px; margin-bottom: 2px;&quot;&gt;&lt;span id=&quot;docs-internal-guid-e127a061-7fff-8ce1-4dbc-56c30ac11722&quot;&gt;&lt;span style=&quot;font-size: 11pt; font-family: Arial, sans-serif; background-color: transparent; font-variant-numeric: normal; font-variant-east-asian: normal; font-variant-alternates: normal; font-variant-position: normal; vertical-align: baseline; white-space-collapse: preserve;&quot;&gt;id_npc&lt;/span&gt;&lt;/span&gt;&lt;span&gt;&lt;span style=&quot;font-size: 11pt; font-family: Arial, sans-serif; background-color: transparent; font-variant-numeric: normal; font-variant-east-asian: normal; font-variant-alternates: normal; font-variant-position: normal; vertical-align: baseline; white-space-collapse: preserve;&quot;&gt;&lt;br&gt;&lt;/span&gt;&lt;/span&gt;&lt;/p&gt;" style="shape=partialRectangle;html=1;whiteSpace=wrap;connectable=0;fillColor=none;top=1;left=0;bottom=1;right=0;align=left;spacingLeft=6;overflow=hidden;strokeColor=inherit;fontSize=16;noLabel=0;snapToPoint=0;horizontal=1;verticalAlign=top;" parent="NpHVf7ny2RbtNi30LPNa-444" vertex="1">
          <mxGeometry x="44" width="156" height="70" as="geometry">
            <mxRectangle width="156" height="70" as="alternateBounds" />
          </mxGeometry>
        </mxCell>
        <mxCell id="NpHVf7ny2RbtNi30LPNa-447" value="Armadura" style="shape=table;startSize=30;container=1;collapsible=0;childLayout=tableLayout;fixedRows=1;rowLines=0;fontStyle=0;strokeColor=default;fontSize=16;" parent="1" vertex="1">
          <mxGeometry x="2060" y="1250" width="260" height="210" as="geometry" />
        </mxCell>
        <mxCell id="NpHVf7ny2RbtNi30LPNa-448" value="" style="shape=tableRow;horizontal=0;startSize=0;swimlaneHead=0;swimlaneBody=0;top=0;left=0;bottom=0;right=0;collapsible=0;dropTarget=0;fillColor=none;points=[[0,0.5],[1,0.5]];portConstraint=eastwest;strokeColor=inherit;fontSize=16;" parent="NpHVf7ny2RbtNi30LPNa-447" vertex="1">
          <mxGeometry y="30" width="260" height="50" as="geometry" />
        </mxCell>
        <mxCell id="NpHVf7ny2RbtNi30LPNa-449" value="FK, PK" style="shape=partialRectangle;html=1;whiteSpace=wrap;connectable=0;fillColor=none;top=0;left=0;bottom=0;right=0;overflow=hidden;pointerEvents=1;strokeColor=inherit;fontSize=16;" parent="NpHVf7ny2RbtNi30LPNa-448" vertex="1">
          <mxGeometry width="70" height="50" as="geometry">
            <mxRectangle width="70" height="50" as="alternateBounds" />
          </mxGeometry>
        </mxCell>
        <mxCell id="NpHVf7ny2RbtNi30LPNa-450" value="&lt;div&gt;id_armadura&lt;/div&gt;" style="shape=partialRectangle;html=1;whiteSpace=wrap;connectable=0;fillColor=none;top=0;left=0;bottom=0;right=0;align=left;spacingLeft=6;overflow=hidden;strokeColor=inherit;fontSize=16;horizontal=1;" parent="NpHVf7ny2RbtNi30LPNa-448" vertex="1">
          <mxGeometry x="70" width="190" height="50" as="geometry">
            <mxRectangle width="190" height="50" as="alternateBounds" />
          </mxGeometry>
        </mxCell>
        <mxCell id="NpHVf7ny2RbtNi30LPNa-451" value="" style="shape=tableRow;horizontal=0;startSize=0;swimlaneHead=0;swimlaneBody=0;top=0;left=0;bottom=0;right=0;collapsible=0;dropTarget=0;fillColor=none;points=[[0,0.5],[1,0.5]];portConstraint=eastwest;strokeColor=inherit;fontSize=16;verticalAlign=top;" parent="NpHVf7ny2RbtNi30LPNa-447" vertex="1">
          <mxGeometry y="80" width="260" height="130" as="geometry" />
        </mxCell>
        <mxCell id="NpHVf7ny2RbtNi30LPNa-452" value="" style="shape=partialRectangle;html=1;whiteSpace=wrap;connectable=0;fillColor=none;top=1;left=0;bottom=1;right=0;overflow=hidden;strokeColor=inherit;fontSize=16;noLabel=0;snapToPoint=0;" parent="NpHVf7ny2RbtNi30LPNa-451" vertex="1">
          <mxGeometry width="70" height="130" as="geometry">
            <mxRectangle width="70" height="130" as="alternateBounds" />
          </mxGeometry>
        </mxCell>
        <mxCell id="NpHVf7ny2RbtNi30LPNa-453" value="&lt;div&gt;requisitos&lt;/div&gt;&lt;div&gt;melhoria&lt;/div&gt;&lt;div&gt;peso&lt;/div&gt;&lt;div&gt;custo_melhoria&lt;/div&gt;&lt;div&gt;resistencia&lt;/div&gt;&lt;div&gt;&lt;br&gt;&lt;/div&gt;&lt;div&gt;&lt;br&gt;&lt;/div&gt;" style="shape=partialRectangle;html=1;whiteSpace=wrap;connectable=0;fillColor=none;top=1;left=0;bottom=1;right=0;align=left;spacingLeft=6;overflow=hidden;strokeColor=inherit;fontSize=16;noLabel=0;snapToPoint=0;horizontal=1;verticalAlign=top;" parent="NpHVf7ny2RbtNi30LPNa-451" vertex="1">
          <mxGeometry x="70" width="190" height="130" as="geometry">
            <mxRectangle width="190" height="130" as="alternateBounds" />
          </mxGeometry>
        </mxCell>
        <mxCell id="NpHVf7ny2RbtNi30LPNa-454" value="Escudo" style="shape=table;startSize=30;container=1;collapsible=0;childLayout=tableLayout;fixedRows=1;rowLines=0;fontStyle=0;strokeColor=default;fontSize=16;" parent="1" vertex="1">
          <mxGeometry x="2480" y="1240" width="250" height="230" as="geometry" />
        </mxCell>
        <mxCell id="NpHVf7ny2RbtNi30LPNa-455" value="" style="shape=tableRow;horizontal=0;startSize=0;swimlaneHead=0;swimlaneBody=0;top=0;left=0;bottom=0;right=0;collapsible=0;dropTarget=0;fillColor=none;points=[[0,0.5],[1,0.5]];portConstraint=eastwest;strokeColor=inherit;fontSize=16;" parent="NpHVf7ny2RbtNi30LPNa-454" vertex="1">
          <mxGeometry y="30" width="250" height="50" as="geometry" />
        </mxCell>
        <mxCell id="NpHVf7ny2RbtNi30LPNa-456" value="FK, PK" style="shape=partialRectangle;html=1;whiteSpace=wrap;connectable=0;fillColor=none;top=0;left=0;bottom=0;right=0;overflow=hidden;pointerEvents=1;strokeColor=inherit;fontSize=16;" parent="NpHVf7ny2RbtNi30LPNa-455" vertex="1">
          <mxGeometry width="70" height="50" as="geometry">
            <mxRectangle width="70" height="50" as="alternateBounds" />
          </mxGeometry>
        </mxCell>
        <mxCell id="NpHVf7ny2RbtNi30LPNa-457" value="&lt;div&gt;id_escudo&lt;/div&gt;" style="shape=partialRectangle;html=1;whiteSpace=wrap;connectable=0;fillColor=none;top=0;left=0;bottom=0;right=0;align=left;spacingLeft=6;overflow=hidden;strokeColor=inherit;fontSize=16;horizontal=1;" parent="NpHVf7ny2RbtNi30LPNa-455" vertex="1">
          <mxGeometry x="70" width="180" height="50" as="geometry">
            <mxRectangle width="180" height="50" as="alternateBounds" />
          </mxGeometry>
        </mxCell>
        <mxCell id="NpHVf7ny2RbtNi30LPNa-458" value="" style="shape=tableRow;horizontal=0;startSize=0;swimlaneHead=0;swimlaneBody=0;top=0;left=0;bottom=0;right=0;collapsible=0;dropTarget=0;fillColor=none;points=[[0,0.5],[1,0.5]];portConstraint=eastwest;strokeColor=inherit;fontSize=16;verticalAlign=top;" parent="NpHVf7ny2RbtNi30LPNa-454" vertex="1">
          <mxGeometry y="80" width="250" height="150" as="geometry" />
        </mxCell>
        <mxCell id="NpHVf7ny2RbtNi30LPNa-459" value="" style="shape=partialRectangle;html=1;whiteSpace=wrap;connectable=0;fillColor=none;top=1;left=0;bottom=1;right=0;overflow=hidden;strokeColor=inherit;fontSize=16;noLabel=0;snapToPoint=0;" parent="NpHVf7ny2RbtNi30LPNa-458" vertex="1">
          <mxGeometry width="70" height="150" as="geometry">
            <mxRectangle width="70" height="150" as="alternateBounds" />
          </mxGeometry>
        </mxCell>
        <mxCell id="NpHVf7ny2RbtNi30LPNa-460" value="defesa&lt;div&gt;habilidade&lt;/div&gt;&lt;div&gt;requisitos&lt;/div&gt;&lt;div&gt;melhoria&lt;/div&gt;&lt;div&gt;peso&lt;/div&gt;&lt;div&gt;custo_melhoria&lt;/div&gt;" style="shape=partialRectangle;html=1;whiteSpace=wrap;connectable=0;fillColor=none;top=1;left=0;bottom=1;right=0;align=left;spacingLeft=6;overflow=hidden;strokeColor=inherit;fontSize=16;noLabel=0;snapToPoint=0;horizontal=1;verticalAlign=top;" parent="NpHVf7ny2RbtNi30LPNa-458" vertex="1">
          <mxGeometry x="70" width="180" height="150" as="geometry">
            <mxRectangle width="180" height="150" as="alternateBounds" />
          </mxGeometry>
        </mxCell>
        <mxCell id="NpHVf7ny2RbtNi30LPNa-461" value="Engaste" style="shape=table;startSize=30;container=1;collapsible=0;childLayout=tableLayout;fixedRows=1;rowLines=0;fontStyle=0;strokeColor=default;fontSize=16;" parent="1" vertex="1">
          <mxGeometry x="2700" y="1915" width="180" height="130" as="geometry" />
        </mxCell>
        <mxCell id="NpHVf7ny2RbtNi30LPNa-462" value="" style="shape=tableRow;horizontal=0;startSize=0;swimlaneHead=0;swimlaneBody=0;top=0;left=0;bottom=0;right=0;collapsible=0;dropTarget=0;fillColor=none;points=[[0,0.5],[1,0.5]];portConstraint=eastwest;strokeColor=inherit;fontSize=16;" parent="NpHVf7ny2RbtNi30LPNa-461" vertex="1">
          <mxGeometry y="30" width="180" height="70" as="geometry" />
        </mxCell>
        <mxCell id="NpHVf7ny2RbtNi30LPNa-463" value="PK&lt;div&gt;FK, SK&lt;/div&gt;" style="shape=partialRectangle;html=1;whiteSpace=wrap;connectable=0;fillColor=none;top=0;left=0;bottom=0;right=0;overflow=hidden;pointerEvents=1;strokeColor=inherit;fontSize=16;" parent="NpHVf7ny2RbtNi30LPNa-462" vertex="1">
          <mxGeometry width="60" height="70" as="geometry">
            <mxRectangle width="60" height="70" as="alternateBounds" />
          </mxGeometry>
        </mxCell>
        <mxCell id="NpHVf7ny2RbtNi30LPNa-464" value="id_engaste&lt;div&gt;id_arma&lt;/div&gt;" style="shape=partialRectangle;html=1;whiteSpace=wrap;connectable=0;fillColor=none;top=0;left=0;bottom=0;right=0;align=left;spacingLeft=6;overflow=hidden;strokeColor=inherit;fontSize=16;horizontal=1;" parent="NpHVf7ny2RbtNi30LPNa-462" vertex="1">
          <mxGeometry x="60" width="120" height="70" as="geometry">
            <mxRectangle width="120" height="70" as="alternateBounds" />
          </mxGeometry>
        </mxCell>
        <mxCell id="NpHVf7ny2RbtNi30LPNa-465" value="" style="shape=tableRow;horizontal=0;startSize=0;swimlaneHead=0;swimlaneBody=0;top=0;left=0;bottom=0;right=0;collapsible=0;dropTarget=0;fillColor=none;points=[[0,0.5],[1,0.5]];portConstraint=eastwest;strokeColor=inherit;fontSize=16;verticalAlign=top;" parent="NpHVf7ny2RbtNi30LPNa-461" vertex="1">
          <mxGeometry y="100" width="180" height="30" as="geometry" />
        </mxCell>
        <mxCell id="NpHVf7ny2RbtNi30LPNa-466" value="" style="shape=partialRectangle;html=1;whiteSpace=wrap;connectable=0;fillColor=none;top=1;left=0;bottom=1;right=0;overflow=hidden;strokeColor=inherit;fontSize=16;noLabel=0;snapToPoint=0;" parent="NpHVf7ny2RbtNi30LPNa-465" vertex="1">
          <mxGeometry width="60" height="30" as="geometry">
            <mxRectangle width="60" height="30" as="alternateBounds" />
          </mxGeometry>
        </mxCell>
        <mxCell id="NpHVf7ny2RbtNi30LPNa-467" value="atributo_extra&lt;div&gt;&lt;br&gt;&lt;/div&gt;" style="shape=partialRectangle;html=1;whiteSpace=wrap;connectable=0;fillColor=none;top=1;left=0;bottom=1;right=0;align=left;spacingLeft=6;overflow=hidden;strokeColor=inherit;fontSize=16;noLabel=0;snapToPoint=0;horizontal=1;verticalAlign=top;" parent="NpHVf7ny2RbtNi30LPNa-465" vertex="1">
          <mxGeometry x="60" width="120" height="30" as="geometry">
            <mxRectangle width="120" height="30" as="alternateBounds" />
          </mxGeometry>
        </mxCell>
        <mxCell id="NpHVf7ny2RbtNi30LPNa-468" value="Cajado" style="shape=table;startSize=30;container=1;collapsible=0;childLayout=tableLayout;fixedRows=1;rowLines=0;fontStyle=0;strokeColor=default;fontSize=16;" parent="1" vertex="1">
          <mxGeometry x="2400" y="1955" width="200" height="260" as="geometry" />
        </mxCell>
        <mxCell id="NpHVf7ny2RbtNi30LPNa-469" value="" style="shape=tableRow;horizontal=0;startSize=0;swimlaneHead=0;swimlaneBody=0;top=0;left=0;bottom=0;right=0;collapsible=0;dropTarget=0;fillColor=none;points=[[0,0.5],[1,0.5]];portConstraint=eastwest;strokeColor=inherit;fontSize=16;" parent="NpHVf7ny2RbtNi30LPNa-468" vertex="1">
          <mxGeometry y="30" width="200" height="50" as="geometry" />
        </mxCell>
        <mxCell id="NpHVf7ny2RbtNi30LPNa-470" value="FK, PK" style="shape=partialRectangle;html=1;whiteSpace=wrap;connectable=0;fillColor=none;top=0;left=0;bottom=0;right=0;overflow=hidden;pointerEvents=1;strokeColor=inherit;fontSize=16;" parent="NpHVf7ny2RbtNi30LPNa-469" vertex="1">
          <mxGeometry width="60" height="50" as="geometry">
            <mxRectangle width="60" height="50" as="alternateBounds" />
          </mxGeometry>
        </mxCell>
        <mxCell id="NpHVf7ny2RbtNi30LPNa-471" value="&lt;div&gt;id_cajado&lt;/div&gt;" style="shape=partialRectangle;html=1;whiteSpace=wrap;connectable=0;fillColor=none;top=0;left=0;bottom=0;right=0;align=left;spacingLeft=6;overflow=hidden;strokeColor=inherit;fontSize=16;horizontal=1;" parent="NpHVf7ny2RbtNi30LPNa-469" vertex="1">
          <mxGeometry x="60" width="140" height="50" as="geometry">
            <mxRectangle width="140" height="50" as="alternateBounds" />
          </mxGeometry>
        </mxCell>
        <mxCell id="NpHVf7ny2RbtNi30LPNa-472" value="" style="shape=tableRow;horizontal=0;startSize=0;swimlaneHead=0;swimlaneBody=0;top=0;left=0;bottom=0;right=0;collapsible=0;dropTarget=0;fillColor=none;points=[[0,0.5],[1,0.5]];portConstraint=eastwest;strokeColor=inherit;fontSize=16;verticalAlign=top;" parent="NpHVf7ny2RbtNi30LPNa-468" vertex="1">
          <mxGeometry y="80" width="200" height="180" as="geometry" />
        </mxCell>
        <mxCell id="NpHVf7ny2RbtNi30LPNa-473" value="" style="shape=partialRectangle;html=1;whiteSpace=wrap;connectable=0;fillColor=none;top=1;left=0;bottom=1;right=0;overflow=hidden;strokeColor=inherit;fontSize=16;noLabel=0;snapToPoint=0;" parent="NpHVf7ny2RbtNi30LPNa-472" vertex="1">
          <mxGeometry width="60" height="180" as="geometry">
            <mxRectangle width="60" height="180" as="alternateBounds" />
          </mxGeometry>
        </mxCell>
        <mxCell id="NpHVf7ny2RbtNi30LPNa-474" value="&lt;div&gt;&lt;div&gt;&lt;span style=&quot;background-color: initial;&quot;&gt;dano&lt;/span&gt;&lt;br&gt;&lt;/div&gt;&lt;div&gt;critico&lt;/div&gt;&lt;div&gt;habilidade&lt;/div&gt;&lt;div&gt;&lt;div&gt;requisitos&lt;/div&gt;&lt;div&gt;melhoria&lt;/div&gt;&lt;div&gt;peso&lt;/div&gt;&lt;/div&gt;&lt;div&gt;&lt;span style=&quot;background-color: initial;&quot;&gt;custo_melhoria&lt;/span&gt;&lt;/div&gt;&lt;/div&gt;&lt;div&gt;proficiencia&lt;/div&gt;" style="shape=partialRectangle;html=1;whiteSpace=wrap;connectable=0;fillColor=none;top=1;left=0;bottom=1;right=0;align=left;spacingLeft=6;overflow=hidden;strokeColor=inherit;fontSize=16;noLabel=0;snapToPoint=0;horizontal=1;verticalAlign=top;" parent="NpHVf7ny2RbtNi30LPNa-472" vertex="1">
          <mxGeometry x="60" width="140" height="180" as="geometry">
            <mxRectangle width="140" height="180" as="alternateBounds" />
          </mxGeometry>
        </mxCell>
        <mxCell id="NpHVf7ny2RbtNi30LPNa-475" value="Selo" style="shape=table;startSize=30;container=1;collapsible=0;childLayout=tableLayout;fixedRows=1;rowLines=0;fontStyle=0;strokeColor=default;fontSize=16;" parent="1" vertex="1">
          <mxGeometry x="1840" y="1460" width="200" height="270" as="geometry" />
        </mxCell>
        <mxCell id="NpHVf7ny2RbtNi30LPNa-476" value="" style="shape=tableRow;horizontal=0;startSize=0;swimlaneHead=0;swimlaneBody=0;top=0;left=0;bottom=0;right=0;collapsible=0;dropTarget=0;fillColor=none;points=[[0,0.5],[1,0.5]];portConstraint=eastwest;strokeColor=inherit;fontSize=16;" parent="NpHVf7ny2RbtNi30LPNa-475" vertex="1">
          <mxGeometry y="30" width="200" height="50" as="geometry" />
        </mxCell>
        <mxCell id="NpHVf7ny2RbtNi30LPNa-477" value="FK, PK" style="shape=partialRectangle;html=1;whiteSpace=wrap;connectable=0;fillColor=none;top=0;left=0;bottom=0;right=0;overflow=hidden;pointerEvents=1;strokeColor=inherit;fontSize=16;" parent="NpHVf7ny2RbtNi30LPNa-476" vertex="1">
          <mxGeometry width="60" height="50" as="geometry">
            <mxRectangle width="60" height="50" as="alternateBounds" />
          </mxGeometry>
        </mxCell>
        <mxCell id="NpHVf7ny2RbtNi30LPNa-478" value="&lt;div&gt;id_selo&lt;/div&gt;" style="shape=partialRectangle;html=1;whiteSpace=wrap;connectable=0;fillColor=none;top=0;left=0;bottom=0;right=0;align=left;spacingLeft=6;overflow=hidden;strokeColor=inherit;fontSize=16;horizontal=1;" parent="NpHVf7ny2RbtNi30LPNa-476" vertex="1">
          <mxGeometry x="60" width="140" height="50" as="geometry">
            <mxRectangle width="140" height="50" as="alternateBounds" />
          </mxGeometry>
        </mxCell>
        <mxCell id="NpHVf7ny2RbtNi30LPNa-479" value="" style="shape=tableRow;horizontal=0;startSize=0;swimlaneHead=0;swimlaneBody=0;top=0;left=0;bottom=0;right=0;collapsible=0;dropTarget=0;fillColor=none;points=[[0,0.5],[1,0.5]];portConstraint=eastwest;strokeColor=inherit;fontSize=16;verticalAlign=top;" parent="NpHVf7ny2RbtNi30LPNa-475" vertex="1">
          <mxGeometry y="80" width="200" height="190" as="geometry" />
        </mxCell>
        <mxCell id="NpHVf7ny2RbtNi30LPNa-480" value="" style="shape=partialRectangle;html=1;whiteSpace=wrap;connectable=0;fillColor=none;top=1;left=0;bottom=1;right=0;overflow=hidden;strokeColor=inherit;fontSize=16;noLabel=0;snapToPoint=0;" parent="NpHVf7ny2RbtNi30LPNa-479" vertex="1">
          <mxGeometry width="60" height="190" as="geometry">
            <mxRectangle width="60" height="190" as="alternateBounds" />
          </mxGeometry>
        </mxCell>
        <mxCell id="NpHVf7ny2RbtNi30LPNa-481" value="&lt;div&gt;&lt;div&gt;&lt;span style=&quot;background-color: initial;&quot;&gt;dano&lt;/span&gt;&lt;br&gt;&lt;/div&gt;&lt;div&gt;critico&lt;/div&gt;&lt;div&gt;habilidade&lt;/div&gt;&lt;div&gt;&lt;div&gt;requisitos&lt;/div&gt;&lt;div&gt;melhoria&lt;/div&gt;&lt;div&gt;peso&lt;/div&gt;&lt;div&gt;custo_melhoria&lt;/div&gt;&lt;/div&gt;&lt;/div&gt;&lt;div&gt;milagre&lt;/div&gt;" style="shape=partialRectangle;html=1;whiteSpace=wrap;connectable=0;fillColor=none;top=1;left=0;bottom=1;right=0;align=left;spacingLeft=6;overflow=hidden;strokeColor=inherit;fontSize=16;noLabel=0;snapToPoint=0;horizontal=1;verticalAlign=top;" parent="NpHVf7ny2RbtNi30LPNa-479" vertex="1">
          <mxGeometry x="60" width="140" height="190" as="geometry">
            <mxRectangle width="140" height="190" as="alternateBounds" />
          </mxGeometry>
        </mxCell>
        <mxCell id="NpHVf7ny2RbtNi30LPNa-482" value="Arma_Leve" style="shape=table;startSize=30;container=1;collapsible=0;childLayout=tableLayout;fixedRows=1;rowLines=0;fontStyle=0;strokeColor=default;fontSize=16;" parent="1" vertex="1">
          <mxGeometry x="2130" y="1950" width="200" height="270" as="geometry" />
        </mxCell>
        <mxCell id="NpHVf7ny2RbtNi30LPNa-483" value="" style="shape=tableRow;horizontal=0;startSize=0;swimlaneHead=0;swimlaneBody=0;top=0;left=0;bottom=0;right=0;collapsible=0;dropTarget=0;fillColor=none;points=[[0,0.5],[1,0.5]];portConstraint=eastwest;strokeColor=inherit;fontSize=16;" parent="NpHVf7ny2RbtNi30LPNa-482" vertex="1">
          <mxGeometry y="30" width="200" height="50" as="geometry" />
        </mxCell>
        <mxCell id="NpHVf7ny2RbtNi30LPNa-484" value="FK, PK" style="shape=partialRectangle;html=1;whiteSpace=wrap;connectable=0;fillColor=none;top=0;left=0;bottom=0;right=0;overflow=hidden;pointerEvents=1;strokeColor=inherit;fontSize=16;" parent="NpHVf7ny2RbtNi30LPNa-483" vertex="1">
          <mxGeometry width="60" height="50" as="geometry">
            <mxRectangle width="60" height="50" as="alternateBounds" />
          </mxGeometry>
        </mxCell>
        <mxCell id="NpHVf7ny2RbtNi30LPNa-485" value="&lt;div&gt;id_arma_leve&lt;/div&gt;" style="shape=partialRectangle;html=1;whiteSpace=wrap;connectable=0;fillColor=none;top=0;left=0;bottom=0;right=0;align=left;spacingLeft=6;overflow=hidden;strokeColor=inherit;fontSize=16;horizontal=1;" parent="NpHVf7ny2RbtNi30LPNa-483" vertex="1">
          <mxGeometry x="60" width="140" height="50" as="geometry">
            <mxRectangle width="140" height="50" as="alternateBounds" />
          </mxGeometry>
        </mxCell>
        <mxCell id="NpHVf7ny2RbtNi30LPNa-486" value="" style="shape=tableRow;horizontal=0;startSize=0;swimlaneHead=0;swimlaneBody=0;top=0;left=0;bottom=0;right=0;collapsible=0;dropTarget=0;fillColor=none;points=[[0,0.5],[1,0.5]];portConstraint=eastwest;strokeColor=inherit;fontSize=16;verticalAlign=top;" parent="NpHVf7ny2RbtNi30LPNa-482" vertex="1">
          <mxGeometry y="80" width="200" height="190" as="geometry" />
        </mxCell>
        <mxCell id="NpHVf7ny2RbtNi30LPNa-487" value="" style="shape=partialRectangle;html=1;whiteSpace=wrap;connectable=0;fillColor=none;top=1;left=0;bottom=1;right=0;overflow=hidden;strokeColor=inherit;fontSize=16;noLabel=0;snapToPoint=0;" parent="NpHVf7ny2RbtNi30LPNa-486" vertex="1">
          <mxGeometry width="60" height="190" as="geometry">
            <mxRectangle width="60" height="190" as="alternateBounds" />
          </mxGeometry>
        </mxCell>
        <mxCell id="NpHVf7ny2RbtNi30LPNa-488" value="&lt;div&gt;destreza&lt;/div&gt;&lt;div&gt;&lt;div&gt;&lt;span style=&quot;background-color: initial;&quot;&gt;dano&lt;/span&gt;&lt;br&gt;&lt;/div&gt;&lt;div&gt;critico&lt;/div&gt;&lt;div&gt;habilidade&lt;/div&gt;&lt;div&gt;&lt;div&gt;requisitos&lt;/div&gt;&lt;div&gt;melhoria&lt;/div&gt;&lt;div&gt;peso&lt;/div&gt;&lt;div&gt;custo_melhoria&lt;/div&gt;&lt;/div&gt;&lt;/div&gt;" style="shape=partialRectangle;html=1;whiteSpace=wrap;connectable=0;fillColor=none;top=1;left=0;bottom=1;right=0;align=left;spacingLeft=6;overflow=hidden;strokeColor=inherit;fontSize=16;noLabel=0;snapToPoint=0;horizontal=1;verticalAlign=top;" parent="NpHVf7ny2RbtNi30LPNa-486" vertex="1">
          <mxGeometry x="60" width="140" height="190" as="geometry">
            <mxRectangle width="140" height="190" as="alternateBounds" />
          </mxGeometry>
        </mxCell>
        <mxCell id="NpHVf7ny2RbtNi30LPNa-489" value="Arma_Pesada" style="shape=table;startSize=30;container=1;collapsible=0;childLayout=tableLayout;fixedRows=1;rowLines=0;fontStyle=0;strokeColor=default;fontSize=16;" parent="1" vertex="1">
          <mxGeometry x="1850" y="1750" width="200" height="250.0000000000009" as="geometry" />
        </mxCell>
        <mxCell id="NpHVf7ny2RbtNi30LPNa-490" value="" style="shape=tableRow;horizontal=0;startSize=0;swimlaneHead=0;swimlaneBody=0;top=0;left=0;bottom=0;right=0;collapsible=0;dropTarget=0;fillColor=none;points=[[0,0.5],[1,0.5]];portConstraint=eastwest;strokeColor=inherit;fontSize=16;" parent="NpHVf7ny2RbtNi30LPNa-489" vertex="1">
          <mxGeometry y="30" width="200" height="40" as="geometry" />
        </mxCell>
        <mxCell id="NpHVf7ny2RbtNi30LPNa-491" value="FK, PK" style="shape=partialRectangle;html=1;whiteSpace=wrap;connectable=0;fillColor=none;top=0;left=0;bottom=0;right=0;overflow=hidden;pointerEvents=1;strokeColor=inherit;fontSize=16;" parent="NpHVf7ny2RbtNi30LPNa-490" vertex="1">
          <mxGeometry width="60" height="40" as="geometry">
            <mxRectangle width="60" height="40" as="alternateBounds" />
          </mxGeometry>
        </mxCell>
        <mxCell id="NpHVf7ny2RbtNi30LPNa-492" value="&lt;div&gt;id_arma_pesada&lt;/div&gt;" style="shape=partialRectangle;html=1;whiteSpace=wrap;connectable=0;fillColor=none;top=0;left=0;bottom=0;right=0;align=left;spacingLeft=6;overflow=hidden;strokeColor=inherit;fontSize=16;horizontal=1;" parent="NpHVf7ny2RbtNi30LPNa-490" vertex="1">
          <mxGeometry x="60" width="140" height="40" as="geometry">
            <mxRectangle width="140" height="40" as="alternateBounds" />
          </mxGeometry>
        </mxCell>
        <mxCell id="NpHVf7ny2RbtNi30LPNa-493" value="" style="shape=tableRow;horizontal=0;startSize=0;swimlaneHead=0;swimlaneBody=0;top=0;left=0;bottom=0;right=0;collapsible=0;dropTarget=0;fillColor=none;points=[[0,0.5],[1,0.5]];portConstraint=eastwest;strokeColor=inherit;fontSize=16;verticalAlign=top;" parent="NpHVf7ny2RbtNi30LPNa-489" vertex="1">
          <mxGeometry y="70" width="200" height="180" as="geometry" />
        </mxCell>
        <mxCell id="NpHVf7ny2RbtNi30LPNa-494" value="" style="shape=partialRectangle;html=1;whiteSpace=wrap;connectable=0;fillColor=none;top=1;left=0;bottom=1;right=0;overflow=hidden;strokeColor=inherit;fontSize=16;noLabel=0;snapToPoint=0;" parent="NpHVf7ny2RbtNi30LPNa-493" vertex="1">
          <mxGeometry width="60" height="180" as="geometry">
            <mxRectangle width="60" height="180" as="alternateBounds" />
          </mxGeometry>
        </mxCell>
        <mxCell id="NpHVf7ny2RbtNi30LPNa-495" value="&lt;div&gt;&lt;span style=&quot;background-color: initial;&quot;&gt;dano&lt;/span&gt;&lt;br&gt;&lt;/div&gt;&lt;div&gt;critico&lt;/div&gt;&lt;div&gt;habilidade&lt;/div&gt;&lt;div&gt;&lt;div&gt;requisitos&lt;/div&gt;&lt;div&gt;melhoria&lt;/div&gt;&lt;div&gt;peso&lt;/div&gt;&lt;/div&gt;&lt;div&gt;&lt;span style=&quot;background-color: initial;&quot;&gt;custo_melhoria&lt;/span&gt;&lt;/div&gt;&lt;div&gt;&lt;span style=&quot;background-color: initial;&quot;&gt;força&lt;/span&gt;&lt;br&gt;&lt;/div&gt;" style="shape=partialRectangle;html=1;whiteSpace=wrap;connectable=0;fillColor=none;top=1;left=0;bottom=1;right=0;align=left;spacingLeft=6;overflow=hidden;strokeColor=inherit;fontSize=16;noLabel=0;snapToPoint=0;horizontal=1;verticalAlign=top;" parent="NpHVf7ny2RbtNi30LPNa-493" vertex="1">
          <mxGeometry x="60" width="140" height="180" as="geometry">
            <mxRectangle width="140" height="180" as="alternateBounds" />
          </mxGeometry>
        </mxCell>
        <mxCell id="NpHVf7ny2RbtNi30LPNa-496" value="Consumivel" style="shape=table;startSize=30;container=1;collapsible=0;childLayout=tableLayout;fixedRows=1;rowLines=0;fontStyle=0;strokeColor=default;fontSize=16;" parent="1" vertex="1">
          <mxGeometry x="3696" y="1820" width="180" height="170" as="geometry" />
        </mxCell>
        <mxCell id="NpHVf7ny2RbtNi30LPNa-497" value="" style="shape=tableRow;horizontal=0;startSize=0;swimlaneHead=0;swimlaneBody=0;top=0;left=0;bottom=0;right=0;collapsible=0;dropTarget=0;fillColor=none;points=[[0,0.5],[1,0.5]];portConstraint=eastwest;strokeColor=inherit;fontSize=16;" parent="NpHVf7ny2RbtNi30LPNa-496" vertex="1">
          <mxGeometry y="30" width="180" height="70" as="geometry" />
        </mxCell>
        <mxCell id="NpHVf7ny2RbtNi30LPNa-498" value="&lt;div&gt;FK, PK&lt;/div&gt;" style="shape=partialRectangle;html=1;whiteSpace=wrap;connectable=0;fillColor=none;top=0;left=0;bottom=0;right=0;overflow=hidden;pointerEvents=1;strokeColor=inherit;fontSize=16;" parent="NpHVf7ny2RbtNi30LPNa-497" vertex="1">
          <mxGeometry width="60" height="70" as="geometry">
            <mxRectangle width="60" height="70" as="alternateBounds" />
          </mxGeometry>
        </mxCell>
        <mxCell id="NpHVf7ny2RbtNi30LPNa-499" value="id_consumivel" style="shape=partialRectangle;html=1;whiteSpace=wrap;connectable=0;fillColor=none;top=0;left=0;bottom=0;right=0;align=left;spacingLeft=6;overflow=hidden;strokeColor=inherit;fontSize=16;horizontal=1;" parent="NpHVf7ny2RbtNi30LPNa-497" vertex="1">
          <mxGeometry x="60" width="120" height="70" as="geometry">
            <mxRectangle width="120" height="70" as="alternateBounds" />
          </mxGeometry>
        </mxCell>
        <mxCell id="NpHVf7ny2RbtNi30LPNa-500" value="" style="shape=tableRow;horizontal=0;startSize=0;swimlaneHead=0;swimlaneBody=0;top=0;left=0;bottom=0;right=0;collapsible=0;dropTarget=0;fillColor=none;points=[[0,0.5],[1,0.5]];portConstraint=eastwest;strokeColor=inherit;fontSize=16;verticalAlign=top;" parent="NpHVf7ny2RbtNi30LPNa-496" vertex="1">
          <mxGeometry y="100" width="180" height="70" as="geometry" />
        </mxCell>
        <mxCell id="NpHVf7ny2RbtNi30LPNa-501" value="" style="shape=partialRectangle;html=1;whiteSpace=wrap;connectable=0;fillColor=none;top=1;left=0;bottom=1;right=0;overflow=hidden;strokeColor=inherit;fontSize=16;noLabel=0;snapToPoint=0;" parent="NpHVf7ny2RbtNi30LPNa-500" vertex="1">
          <mxGeometry width="60" height="70" as="geometry">
            <mxRectangle width="60" height="70" as="alternateBounds" />
          </mxGeometry>
        </mxCell>
        <mxCell id="NpHVf7ny2RbtNi30LPNa-502" value="&lt;div&gt;efeito&lt;/div&gt;&lt;div&gt;descricao&lt;/div&gt;&lt;div&gt;qtd_do_efeito&lt;/div&gt;" style="shape=partialRectangle;html=1;whiteSpace=wrap;connectable=0;fillColor=none;top=1;left=0;bottom=1;right=0;align=left;spacingLeft=6;overflow=hidden;strokeColor=inherit;fontSize=16;noLabel=0;snapToPoint=0;horizontal=1;verticalAlign=top;" parent="NpHVf7ny2RbtNi30LPNa-500" vertex="1">
          <mxGeometry x="60" width="120" height="70" as="geometry">
            <mxRectangle width="120" height="70" as="alternateBounds" />
          </mxGeometry>
        </mxCell>
        <mxCell id="NpHVf7ny2RbtNi30LPNa-503" style="edgeStyle=orthogonalEdgeStyle;rounded=0;orthogonalLoop=1;jettySize=auto;html=1;exitX=0.5;exitY=0;exitDx=0;exitDy=0;entryX=0;entryY=0.5;entryDx=0;entryDy=0;" parent="1" source="NpHVf7ny2RbtNi30LPNa-504" target="NpHVf7ny2RbtNi30LPNa-514" edge="1">
          <mxGeometry relative="1" as="geometry" />
        </mxCell>
        <mxCell id="NpHVf7ny2RbtNi30LPNa-504" value="NPC" style="shape=table;startSize=30;container=1;collapsible=0;childLayout=tableLayout;fixedRows=1;rowLines=0;fontStyle=0;strokeColor=default;fontSize=16;" parent="1" vertex="1">
          <mxGeometry x="3026" y="2900" width="200" height="240" as="geometry" />
        </mxCell>
        <mxCell id="NpHVf7ny2RbtNi30LPNa-505" value="" style="shape=tableRow;horizontal=0;startSize=0;swimlaneHead=0;swimlaneBody=0;top=0;left=0;bottom=0;right=0;collapsible=0;dropTarget=0;fillColor=none;points=[[0,0.5],[1,0.5]];portConstraint=eastwest;strokeColor=inherit;fontSize=16;" parent="NpHVf7ny2RbtNi30LPNa-504" vertex="1">
          <mxGeometry y="30" width="200" height="30" as="geometry" />
        </mxCell>
        <mxCell id="NpHVf7ny2RbtNi30LPNa-506" value="PK, FK" style="shape=partialRectangle;html=1;whiteSpace=wrap;connectable=0;fillColor=none;top=0;left=0;bottom=0;right=0;overflow=hidden;pointerEvents=1;strokeColor=inherit;fontSize=16;" parent="NpHVf7ny2RbtNi30LPNa-505" vertex="1">
          <mxGeometry width="70" height="30" as="geometry">
            <mxRectangle width="70" height="30" as="alternateBounds" />
          </mxGeometry>
        </mxCell>
        <mxCell id="NpHVf7ny2RbtNi30LPNa-507" value="id_npc" style="shape=partialRectangle;html=1;whiteSpace=wrap;connectable=0;fillColor=none;top=0;left=0;bottom=0;right=0;align=left;spacingLeft=6;overflow=hidden;strokeColor=inherit;fontSize=16;horizontal=1;" parent="NpHVf7ny2RbtNi30LPNa-505" vertex="1">
          <mxGeometry x="70" width="130" height="30" as="geometry">
            <mxRectangle width="130" height="30" as="alternateBounds" />
          </mxGeometry>
        </mxCell>
        <mxCell id="NpHVf7ny2RbtNi30LPNa-508" value="" style="shape=tableRow;horizontal=0;startSize=0;swimlaneHead=0;swimlaneBody=0;top=0;left=0;bottom=0;right=0;collapsible=0;dropTarget=0;fillColor=none;points=[[0,0.5],[1,0.5]];portConstraint=eastwest;strokeColor=inherit;fontSize=16;verticalAlign=top;" parent="NpHVf7ny2RbtNi30LPNa-504" vertex="1">
          <mxGeometry y="60" width="200" height="180" as="geometry" />
        </mxCell>
        <mxCell id="NpHVf7ny2RbtNi30LPNa-509" value="" style="shape=partialRectangle;html=1;whiteSpace=wrap;connectable=0;fillColor=none;top=1;left=0;bottom=1;right=0;overflow=hidden;strokeColor=inherit;fontSize=16;noLabel=0;snapToPoint=0;" parent="NpHVf7ny2RbtNi30LPNa-508" vertex="1">
          <mxGeometry width="70" height="180" as="geometry">
            <mxRectangle width="70" height="180" as="alternateBounds" />
          </mxGeometry>
        </mxCell>
        <mxCell id="NpHVf7ny2RbtNi30LPNa-510" value="&lt;p style=&quot;line-height: 16px; margin-top: 2px; margin-bottom: 2px;&quot;&gt;&lt;span id=&quot;docs-internal-guid-1afb51a7-7fff-adfa-c0f6-048096027afc&quot;&gt;&lt;span style=&quot;font-size: 11pt; font-family: Arial, sans-serif; background-color: transparent; font-variant-numeric: normal; font-variant-east-asian: normal; font-variant-alternates: normal; font-variant-position: normal; vertical-align: baseline; white-space-collapse: preserve;&quot;&gt;funcao&lt;/span&gt;&lt;/span&gt;&lt;br&gt;&lt;/p&gt;&lt;p style=&quot;line-height: 16px; margin-top: 2px; margin-bottom: 2px;&quot;&gt;&lt;span id=&quot;docs-internal-guid-c318ecd9-7fff-c42d-f135-e6895eb064d3&quot;&gt;&lt;span style=&quot;font-size: 11pt; font-family: Arial, sans-serif; background-color: transparent; font-variant-numeric: normal; font-variant-east-asian: normal; font-variant-alternates: normal; font-variant-position: normal; vertical-align: baseline; white-space-collapse: preserve;&quot;&gt;esta_hostil&lt;/span&gt;&lt;/span&gt;&lt;span style=&quot;font-size: 11pt; font-family: Arial, sans-serif; background-color: transparent; font-variant-numeric: normal; font-variant-east-asian: normal; font-variant-alternates: normal; font-variant-position: normal; vertical-align: baseline; white-space-collapse: preserve;&quot;&gt;&lt;br&gt;&lt;/span&gt;&lt;/p&gt;&lt;p style=&quot;line-height: 16px; margin-top: 2px; margin-bottom: 2px;&quot;&gt;&lt;span id=&quot;docs-internal-guid-128dbace-7fff-d433-2f5d-5eabf77b7272&quot;&gt;&lt;span style=&quot;font-size: 11pt; font-family: Arial, sans-serif; background-color: transparent; font-variant-numeric: normal; font-variant-east-asian: normal; font-variant-alternates: normal; font-variant-position: normal; vertical-align: baseline; white-space-collapse: preserve;&quot;&gt;resistencia&lt;/span&gt;&lt;/span&gt;&lt;span style=&quot;font-size: 11pt; font-family: Arial, sans-serif; background-color: transparent; font-variant-numeric: normal; font-variant-east-asian: normal; font-variant-alternates: normal; font-variant-position: normal; vertical-align: baseline; white-space-collapse: preserve;&quot;&gt;&lt;br&gt;&lt;/span&gt;&lt;/p&gt;&lt;p style=&quot;line-height: 16px; margin-top: 2px; margin-bottom: 2px;&quot;&gt;&lt;span id=&quot;docs-internal-guid-0ccb7a14-7fff-df71-784e-f1c155ebce9b&quot;&gt;&lt;span style=&quot;font-size: 11pt; font-family: Arial, sans-serif; background-color: transparent; font-variant-numeric: normal; font-variant-east-asian: normal; font-variant-alternates: normal; font-variant-position: normal; vertical-align: baseline; white-space-collapse: preserve;&quot;&gt;fraqueza&lt;/span&gt;&lt;/span&gt;&lt;span style=&quot;font-size: 11pt; font-family: Arial, sans-serif; background-color: transparent; font-variant-numeric: normal; font-variant-east-asian: normal; font-variant-alternates: normal; font-variant-position: normal; vertical-align: baseline; white-space-collapse: preserve;&quot;&gt;&lt;br&gt;&lt;/span&gt;&lt;/p&gt;&lt;p style=&quot;line-height: 16px; margin-top: 2px; margin-bottom: 2px;&quot;&gt;&lt;span id=&quot;docs-internal-guid-047b7ae8-7fff-ef1c-21b9-ed77b8745935&quot;&gt;&lt;span style=&quot;font-size: 11pt; font-family: Arial, sans-serif; background-color: transparent; font-variant-numeric: normal; font-variant-east-asian: normal; font-variant-alternates: normal; font-variant-position: normal; vertical-align: baseline; white-space-collapse: preserve;&quot;&gt;drop_runas&lt;/span&gt;&lt;/span&gt;&lt;span style=&quot;font-size: 11pt; font-family: Arial, sans-serif; background-color: transparent; font-variant-numeric: normal; font-variant-east-asian: normal; font-variant-alternates: normal; font-variant-position: normal; vertical-align: baseline; white-space-collapse: preserve;&quot;&gt;&lt;br&gt;&lt;/span&gt;&lt;/p&gt;&lt;p style=&quot;line-height: 16px; margin-top: 2px; margin-bottom: 2px;&quot;&gt;&lt;span id=&quot;docs-internal-guid-6d2343f9-7fff-1b7c-17f2-91c780a77ade&quot;&gt;&lt;span style=&quot;font-size: 11pt; font-family: Arial, sans-serif; background-color: transparent; font-variant-numeric: normal; font-variant-east-asian: normal; font-variant-alternates: normal; font-variant-position: normal; vertical-align: baseline; white-space-collapse: preserve;&quot;&gt;nome&lt;/span&gt;&lt;/span&gt;&lt;br&gt;&lt;/p&gt;&lt;p style=&quot;line-height: 16px; margin-top: 2px; margin-bottom: 2px;&quot;&gt;&lt;span id=&quot;docs-internal-guid-c55acf81-7fff-244a-fdf5-20c4c6c7b7da&quot;&gt;&lt;span style=&quot;font-size: 11pt; font-family: Arial, sans-serif; background-color: transparent; font-variant-numeric: normal; font-variant-east-asian: normal; font-variant-alternates: normal; font-variant-position: normal; vertical-align: baseline; white-space-collapse: preserve;&quot;&gt;hp&lt;/span&gt;&lt;/span&gt;&lt;span style=&quot;font-size: 11pt; font-family: Arial, sans-serif; background-color: transparent; font-variant-numeric: normal; font-variant-east-asian: normal; font-variant-alternates: normal; font-variant-position: normal; vertical-align: baseline; white-space-collapse: preserve;&quot;&gt;&lt;br&gt;&lt;/span&gt;&lt;/p&gt;&lt;p style=&quot;line-height: 16px; margin-top: 2px; margin-bottom: 2px;&quot;&gt;&lt;span&gt;&lt;span style=&quot;font-size: 11pt; font-family: Arial, sans-serif; background-color: transparent; font-variant-numeric: normal; font-variant-east-asian: normal; font-variant-alternates: normal; font-variant-position: normal; vertical-align: baseline; white-space-collapse: preserve;&quot;&gt;tipo&lt;/span&gt;&lt;/span&gt;&lt;/p&gt;" style="shape=partialRectangle;html=1;whiteSpace=wrap;connectable=0;fillColor=none;top=1;left=0;bottom=1;right=0;align=left;spacingLeft=6;overflow=hidden;strokeColor=inherit;fontSize=16;noLabel=0;snapToPoint=0;horizontal=1;verticalAlign=top;" parent="NpHVf7ny2RbtNi30LPNa-508" vertex="1">
          <mxGeometry x="70" width="130" height="180" as="geometry">
            <mxRectangle width="130" height="180" as="alternateBounds" />
          </mxGeometry>
        </mxCell>
        <mxCell id="NpHVf7ny2RbtNi30LPNa-511" style="edgeStyle=orthogonalEdgeStyle;rounded=0;orthogonalLoop=1;jettySize=auto;html=1;exitX=1;exitY=0.5;exitDx=0;exitDy=0;entryX=-0.021;entryY=0.039;entryDx=0;entryDy=0;entryPerimeter=0;" parent="1" source="NpHVf7ny2RbtNi30LPNa-444" target="NpHVf7ny2RbtNi30LPNa-508" edge="1">
          <mxGeometry relative="1" as="geometry" />
        </mxCell>
        <mxCell id="NpHVf7ny2RbtNi30LPNa-512" style="edgeStyle=orthogonalEdgeStyle;rounded=0;orthogonalLoop=1;jettySize=auto;html=1;entryX=0;entryY=0.5;entryDx=0;entryDy=0;" parent="1" source="NpHVf7ny2RbtNi30LPNa-513" target="NpHVf7ny2RbtNi30LPNa-524" edge="1">
          <mxGeometry relative="1" as="geometry" />
        </mxCell>
        <mxCell id="NpHVf7ny2RbtNi30LPNa-513" value="função_npc" style="shape=table;startSize=30;container=1;collapsible=0;childLayout=tableLayout;fixedRows=1;rowLines=0;fontStyle=0;strokeColor=default;fontSize=16;" parent="1" vertex="1">
          <mxGeometry x="3170" y="2760" width="200" height="120" as="geometry" />
        </mxCell>
        <mxCell id="NpHVf7ny2RbtNi30LPNa-514" value="" style="shape=tableRow;horizontal=0;startSize=0;swimlaneHead=0;swimlaneBody=0;top=0;left=0;bottom=0;right=0;collapsible=0;dropTarget=0;fillColor=none;points=[[0,0.5],[1,0.5]];portConstraint=eastwest;strokeColor=inherit;fontSize=16;" parent="NpHVf7ny2RbtNi30LPNa-513" vertex="1">
          <mxGeometry y="30" width="200" height="60" as="geometry" />
        </mxCell>
        <mxCell id="NpHVf7ny2RbtNi30LPNa-515" value="FK, PK" style="shape=partialRectangle;html=1;whiteSpace=wrap;connectable=0;fillColor=none;top=0;left=0;bottom=0;right=0;overflow=hidden;pointerEvents=1;strokeColor=inherit;fontSize=16;" parent="NpHVf7ny2RbtNi30LPNa-514" vertex="1">
          <mxGeometry width="70" height="60" as="geometry">
            <mxRectangle width="70" height="60" as="alternateBounds" />
          </mxGeometry>
        </mxCell>
        <mxCell id="NpHVf7ny2RbtNi30LPNa-516" value="id_npc&lt;div&gt;função&lt;/div&gt;" style="shape=partialRectangle;html=1;whiteSpace=wrap;connectable=0;fillColor=none;top=0;left=0;bottom=0;right=0;align=left;spacingLeft=6;overflow=hidden;strokeColor=inherit;fontSize=16;horizontal=1;" parent="NpHVf7ny2RbtNi30LPNa-514" vertex="1">
          <mxGeometry x="70" width="130" height="60" as="geometry">
            <mxRectangle width="130" height="60" as="alternateBounds" />
          </mxGeometry>
        </mxCell>
        <mxCell id="NpHVf7ny2RbtNi30LPNa-517" value="" style="shape=tableRow;horizontal=0;startSize=0;swimlaneHead=0;swimlaneBody=0;top=0;left=0;bottom=0;right=0;collapsible=0;dropTarget=0;fillColor=none;points=[[0,0.5],[1,0.5]];portConstraint=eastwest;strokeColor=inherit;fontSize=16;verticalAlign=top;" parent="NpHVf7ny2RbtNi30LPNa-513" vertex="1">
          <mxGeometry y="90" width="200" height="30" as="geometry" />
        </mxCell>
        <mxCell id="NpHVf7ny2RbtNi30LPNa-518" value="" style="shape=partialRectangle;html=1;whiteSpace=wrap;connectable=0;fillColor=none;top=1;left=0;bottom=1;right=0;overflow=hidden;strokeColor=inherit;fontSize=16;noLabel=0;snapToPoint=0;" parent="NpHVf7ny2RbtNi30LPNa-517" vertex="1">
          <mxGeometry width="70" height="30" as="geometry">
            <mxRectangle width="70" height="30" as="alternateBounds" />
          </mxGeometry>
        </mxCell>
        <mxCell id="NpHVf7ny2RbtNi30LPNa-519" value="&lt;p style=&quot;line-height: 16px; margin-top: 2px; margin-bottom: 2px;&quot;&gt;&lt;br&gt;&lt;/p&gt;" style="shape=partialRectangle;html=1;whiteSpace=wrap;connectable=0;fillColor=none;top=1;left=0;bottom=1;right=0;align=left;spacingLeft=6;overflow=hidden;strokeColor=inherit;fontSize=16;noLabel=0;snapToPoint=0;horizontal=1;verticalAlign=top;" parent="NpHVf7ny2RbtNi30LPNa-517" vertex="1">
          <mxGeometry x="70" width="130" height="30" as="geometry">
            <mxRectangle width="130" height="30" as="alternateBounds" />
          </mxGeometry>
        </mxCell>
        <mxCell id="NpHVf7ny2RbtNi30LPNa-520" style="edgeStyle=orthogonalEdgeStyle;rounded=0;orthogonalLoop=1;jettySize=auto;html=1;exitX=0.75;exitY=0;exitDx=0;exitDy=0;entryX=0.263;entryY=1.003;entryDx=0;entryDy=0;entryPerimeter=0;" parent="1" source="NpHVf7ny2RbtNi30LPNa-380" target="NpHVf7ny2RbtNi30LPNa-508" edge="1">
          <mxGeometry relative="1" as="geometry" />
        </mxCell>
        <mxCell id="NpHVf7ny2RbtNi30LPNa-522" style="edgeStyle=orthogonalEdgeStyle;rounded=0;orthogonalLoop=1;jettySize=auto;html=1;exitX=-0.004;exitY=0.781;exitDx=0;exitDy=0;entryX=1;entryY=0.5;entryDx=0;entryDy=0;exitPerimeter=0;" parent="1" source="NpHVf7ny2RbtNi30LPNa-347" target="NpHVf7ny2RbtNi30LPNa-359" edge="1">
          <mxGeometry relative="1" as="geometry" />
        </mxCell>
        <mxCell id="NpHVf7ny2RbtNi30LPNa-523" value="Personagem" style="shape=table;startSize=30;container=1;collapsible=0;childLayout=tableLayout;fixedRows=1;rowLines=0;fontStyle=0;strokeColor=default;fontSize=16;" parent="1" vertex="1">
          <mxGeometry x="3326" y="2640" width="200" height="100" as="geometry" />
        </mxCell>
        <mxCell id="NpHVf7ny2RbtNi30LPNa-524" value="" style="shape=tableRow;horizontal=0;startSize=0;swimlaneHead=0;swimlaneBody=0;top=0;left=0;bottom=0;right=0;collapsible=0;dropTarget=0;fillColor=none;points=[[0,0.5],[1,0.5]];portConstraint=eastwest;strokeColor=inherit;fontSize=16;" parent="NpHVf7ny2RbtNi30LPNa-523" vertex="1">
          <mxGeometry y="30" width="200" height="30" as="geometry" />
        </mxCell>
        <mxCell id="NpHVf7ny2RbtNi30LPNa-525" value="PK" style="shape=partialRectangle;html=1;whiteSpace=wrap;connectable=0;fillColor=none;top=0;left=0;bottom=0;right=0;overflow=hidden;pointerEvents=1;strokeColor=inherit;fontSize=16;" parent="NpHVf7ny2RbtNi30LPNa-524" vertex="1">
          <mxGeometry width="60" height="30" as="geometry">
            <mxRectangle width="60" height="30" as="alternateBounds" />
          </mxGeometry>
        </mxCell>
        <mxCell id="NpHVf7ny2RbtNi30LPNa-526" value="id_personagem" style="shape=partialRectangle;html=1;whiteSpace=wrap;connectable=0;fillColor=none;top=0;left=0;bottom=0;right=0;align=left;spacingLeft=6;overflow=hidden;strokeColor=inherit;fontSize=16;horizontal=1;" parent="NpHVf7ny2RbtNi30LPNa-524" vertex="1">
          <mxGeometry x="60" width="140" height="30" as="geometry">
            <mxRectangle width="140" height="30" as="alternateBounds" />
          </mxGeometry>
        </mxCell>
        <mxCell id="NpHVf7ny2RbtNi30LPNa-527" value="" style="shape=tableRow;horizontal=0;startSize=0;swimlaneHead=0;swimlaneBody=0;top=0;left=0;bottom=0;right=0;collapsible=0;dropTarget=0;fillColor=none;points=[[0,0.5],[1,0.5]];portConstraint=eastwest;strokeColor=inherit;fontSize=16;verticalAlign=top;" parent="NpHVf7ny2RbtNi30LPNa-523" vertex="1">
          <mxGeometry y="60" width="200" height="40" as="geometry" />
        </mxCell>
        <mxCell id="NpHVf7ny2RbtNi30LPNa-528" value="" style="shape=partialRectangle;html=1;whiteSpace=wrap;connectable=0;fillColor=none;top=1;left=0;bottom=1;right=0;overflow=hidden;strokeColor=inherit;fontSize=16;noLabel=0;snapToPoint=0;" parent="NpHVf7ny2RbtNi30LPNa-527" vertex="1">
          <mxGeometry width="60" height="40" as="geometry">
            <mxRectangle width="60" height="40" as="alternateBounds" />
          </mxGeometry>
        </mxCell>
        <mxCell id="NpHVf7ny2RbtNi30LPNa-529" value="&lt;p style=&quot;line-height: 16px; margin-top: 2px; margin-bottom: 2px;&quot;&gt;tipo&lt;/p&gt;" style="shape=partialRectangle;html=1;whiteSpace=wrap;connectable=0;fillColor=none;top=1;left=0;bottom=1;right=0;align=left;spacingLeft=6;overflow=hidden;strokeColor=inherit;fontSize=16;noLabel=0;snapToPoint=0;horizontal=1;verticalAlign=top;" parent="NpHVf7ny2RbtNi30LPNa-527" vertex="1">
          <mxGeometry x="60" width="140" height="40" as="geometry">
            <mxRectangle width="140" height="40" as="alternateBounds" />
          </mxGeometry>
        </mxCell>
        <mxCell id="NpHVf7ny2RbtNi30LPNa-530" style="edgeStyle=orthogonalEdgeStyle;rounded=0;orthogonalLoop=1;jettySize=auto;html=1;exitX=0;exitY=0.5;exitDx=0;exitDy=0;entryX=1;entryY=0.5;entryDx=0;entryDy=0;" parent="1" source="NpHVf7ny2RbtNi30LPNa-344" target="NpHVf7ny2RbtNi30LPNa-524" edge="1">
          <mxGeometry relative="1" as="geometry">
            <Array as="points">
              <mxPoint x="4266" y="2560" />
              <mxPoint x="3896" y="2560" />
              <mxPoint x="3896" y="2685" />
            </Array>
          </mxGeometry>
        </mxCell>
        <mxCell id="NpHVf7ny2RbtNi30LPNa-533" value="Item" style="shape=table;startSize=30;container=1;collapsible=0;childLayout=tableLayout;fixedRows=1;rowLines=0;fontStyle=0;strokeColor=default;fontSize=16;" parent="1" vertex="1">
          <mxGeometry x="3061" y="1880" width="250" height="200" as="geometry" />
        </mxCell>
        <mxCell id="NpHVf7ny2RbtNi30LPNa-534" value="" style="shape=tableRow;horizontal=0;startSize=0;swimlaneHead=0;swimlaneBody=0;top=0;left=0;bottom=0;right=0;collapsible=0;dropTarget=0;fillColor=none;points=[[0,0.5],[1,0.5]];portConstraint=eastwest;strokeColor=inherit;fontSize=16;" parent="NpHVf7ny2RbtNi30LPNa-533" vertex="1">
          <mxGeometry y="30" width="250" height="50" as="geometry" />
        </mxCell>
        <mxCell id="NpHVf7ny2RbtNi30LPNa-535" value="PK" style="shape=partialRectangle;html=1;whiteSpace=wrap;connectable=0;fillColor=none;top=0;left=0;bottom=0;right=0;overflow=hidden;pointerEvents=1;strokeColor=inherit;fontSize=16;" parent="NpHVf7ny2RbtNi30LPNa-534" vertex="1">
          <mxGeometry width="55" height="50" as="geometry">
            <mxRectangle width="55" height="50" as="alternateBounds" />
          </mxGeometry>
        </mxCell>
        <mxCell id="NpHVf7ny2RbtNi30LPNa-536" value="id_item" style="shape=partialRectangle;html=1;whiteSpace=wrap;connectable=0;fillColor=none;top=0;left=0;bottom=0;right=0;align=left;spacingLeft=6;overflow=hidden;strokeColor=inherit;fontSize=16;horizontal=1;" parent="NpHVf7ny2RbtNi30LPNa-534" vertex="1">
          <mxGeometry x="55" width="195" height="50" as="geometry">
            <mxRectangle width="195" height="50" as="alternateBounds" />
          </mxGeometry>
        </mxCell>
        <mxCell id="NpHVf7ny2RbtNi30LPNa-537" value="" style="shape=tableRow;horizontal=0;startSize=0;swimlaneHead=0;swimlaneBody=0;top=0;left=0;bottom=0;right=0;collapsible=0;dropTarget=0;fillColor=none;points=[[0,0.5],[1,0.5]];portConstraint=eastwest;strokeColor=inherit;fontSize=16;verticalAlign=top;" parent="NpHVf7ny2RbtNi30LPNa-533" vertex="1">
          <mxGeometry y="80" width="250" height="120" as="geometry" />
        </mxCell>
        <mxCell id="NpHVf7ny2RbtNi30LPNa-538" value="" style="shape=partialRectangle;html=1;whiteSpace=wrap;connectable=0;fillColor=none;top=1;left=0;bottom=1;right=0;overflow=hidden;strokeColor=inherit;fontSize=16;noLabel=0;snapToPoint=0;" parent="NpHVf7ny2RbtNi30LPNa-537" vertex="1">
          <mxGeometry width="55" height="120" as="geometry">
            <mxRectangle width="55" height="120" as="alternateBounds" />
          </mxGeometry>
        </mxCell>
        <mxCell id="NpHVf7ny2RbtNi30LPNa-539" value="&lt;div&gt;raridade&lt;/div&gt;&lt;div&gt;é_chave&lt;/div&gt;&lt;div&gt;nome&lt;/div&gt;&lt;div&gt;valor&lt;/div&gt;&lt;div&gt;tipo&lt;/div&gt;" style="shape=partialRectangle;html=1;whiteSpace=wrap;connectable=0;fillColor=none;top=1;left=0;bottom=1;right=0;align=left;spacingLeft=6;overflow=hidden;strokeColor=inherit;fontSize=16;noLabel=0;snapToPoint=0;horizontal=1;verticalAlign=top;" parent="NpHVf7ny2RbtNi30LPNa-537" vertex="1">
          <mxGeometry x="55" width="195" height="120" as="geometry">
            <mxRectangle width="195" height="120" as="alternateBounds" />
          </mxGeometry>
        </mxCell>
        <mxCell id="NpHVf7ny2RbtNi30LPNa-540" style="edgeStyle=orthogonalEdgeStyle;rounded=0;orthogonalLoop=1;jettySize=auto;html=1;exitX=0.5;exitY=0;exitDx=0;exitDy=0;entryX=0.46;entryY=0.993;entryDx=0;entryDy=0;entryPerimeter=0;" parent="1" source="NpHVf7ny2RbtNi30LPNa-413" target="NpHVf7ny2RbtNi30LPNa-537" edge="1">
          <mxGeometry relative="1" as="geometry" />
        </mxCell>
        <mxCell id="NpHVf7ny2RbtNi30LPNa-541" style="edgeStyle=orthogonalEdgeStyle;rounded=0;orthogonalLoop=1;jettySize=auto;html=1;exitX=0;exitY=0.5;exitDx=0;exitDy=0;entryX=1;entryY=0.5;entryDx=0;entryDy=0;" parent="1" source="NpHVf7ny2RbtNi30LPNa-497" target="NpHVf7ny2RbtNi30LPNa-534" edge="1">
          <mxGeometry relative="1" as="geometry" />
        </mxCell>
        <mxCell id="NpHVf7ny2RbtNi30LPNa-542" value="Equipamento" style="shape=table;startSize=30;container=1;collapsible=0;childLayout=tableLayout;fixedRows=1;rowLines=0;fontStyle=0;strokeColor=default;fontSize=16;" parent="1" vertex="1">
          <mxGeometry x="2666" y="1650" width="260" height="120.00000000000023" as="geometry" />
        </mxCell>
        <mxCell id="NpHVf7ny2RbtNi30LPNa-543" value="" style="shape=tableRow;horizontal=0;startSize=0;swimlaneHead=0;swimlaneBody=0;top=0;left=0;bottom=0;right=0;collapsible=0;dropTarget=0;fillColor=none;points=[[0,0.5],[1,0.5]];portConstraint=eastwest;strokeColor=inherit;fontSize=16;" parent="NpHVf7ny2RbtNi30LPNa-542" vertex="1">
          <mxGeometry y="30" width="260" height="50" as="geometry" />
        </mxCell>
        <mxCell id="NpHVf7ny2RbtNi30LPNa-544" value="&lt;div&gt;PK, FK&lt;/div&gt;" style="shape=partialRectangle;html=1;whiteSpace=wrap;connectable=0;fillColor=none;top=0;left=0;bottom=0;right=0;overflow=hidden;pointerEvents=1;strokeColor=inherit;fontSize=16;" parent="NpHVf7ny2RbtNi30LPNa-543" vertex="1">
          <mxGeometry width="57" height="50" as="geometry">
            <mxRectangle width="57" height="50" as="alternateBounds" />
          </mxGeometry>
        </mxCell>
        <mxCell id="NpHVf7ny2RbtNi30LPNa-545" value="&lt;div&gt;id_equipamento&lt;/div&gt;" style="shape=partialRectangle;html=1;whiteSpace=wrap;connectable=0;fillColor=none;top=0;left=0;bottom=0;right=0;align=left;spacingLeft=6;overflow=hidden;strokeColor=inherit;fontSize=16;horizontal=1;" parent="NpHVf7ny2RbtNi30LPNa-543" vertex="1">
          <mxGeometry x="57" width="203" height="50" as="geometry">
            <mxRectangle width="203" height="50" as="alternateBounds" />
          </mxGeometry>
        </mxCell>
        <mxCell id="NpHVf7ny2RbtNi30LPNa-546" value="" style="shape=tableRow;horizontal=0;startSize=0;swimlaneHead=0;swimlaneBody=0;top=0;left=0;bottom=0;right=0;collapsible=0;dropTarget=0;fillColor=none;points=[[0,0.5],[1,0.5]];portConstraint=eastwest;strokeColor=inherit;fontSize=16;verticalAlign=top;" parent="NpHVf7ny2RbtNi30LPNa-542" vertex="1">
          <mxGeometry y="80" width="260" height="40" as="geometry" />
        </mxCell>
        <mxCell id="NpHVf7ny2RbtNi30LPNa-547" value="" style="shape=partialRectangle;html=1;whiteSpace=wrap;connectable=0;fillColor=none;top=1;left=0;bottom=1;right=0;overflow=hidden;strokeColor=inherit;fontSize=16;noLabel=0;snapToPoint=0;" parent="NpHVf7ny2RbtNi30LPNa-546" vertex="1">
          <mxGeometry width="57" height="40" as="geometry">
            <mxRectangle width="57" height="40" as="alternateBounds" />
          </mxGeometry>
        </mxCell>
        <mxCell id="NpHVf7ny2RbtNi30LPNa-548" value="tipo&lt;div&gt;&lt;br&gt;&lt;/div&gt;&lt;div&gt;&lt;br&gt;&lt;/div&gt;&lt;div&gt;&lt;br&gt;&lt;/div&gt;" style="shape=partialRectangle;html=1;whiteSpace=wrap;connectable=0;fillColor=none;top=1;left=0;bottom=1;right=0;align=left;spacingLeft=6;overflow=hidden;strokeColor=inherit;fontSize=16;noLabel=0;snapToPoint=0;horizontal=1;verticalAlign=top;" parent="NpHVf7ny2RbtNi30LPNa-546" vertex="1">
          <mxGeometry x="57" width="203" height="40" as="geometry">
            <mxRectangle width="203" height="40" as="alternateBounds" />
          </mxGeometry>
        </mxCell>
        <mxCell id="NpHVf7ny2RbtNi30LPNa-549" style="edgeStyle=orthogonalEdgeStyle;rounded=0;orthogonalLoop=1;jettySize=auto;html=1;exitX=1;exitY=0.5;exitDx=0;exitDy=0;entryX=0.412;entryY=-0.003;entryDx=0;entryDy=0;entryPerimeter=0;" parent="1" source="NpHVf7ny2RbtNi30LPNa-546" target="NpHVf7ny2RbtNi30LPNa-533" edge="1">
          <mxGeometry relative="1" as="geometry" />
        </mxCell>
        <mxCell id="NpHVf7ny2RbtNi30LPNa-550" style="edgeStyle=orthogonalEdgeStyle;rounded=0;orthogonalLoop=1;jettySize=auto;html=1;exitX=1;exitY=0.5;exitDx=0;exitDy=0;entryX=-0.001;entryY=0.787;entryDx=0;entryDy=0;entryPerimeter=0;" parent="1" source="NpHVf7ny2RbtNi30LPNa-451" target="NpHVf7ny2RbtNi30LPNa-543" edge="1">
          <mxGeometry relative="1" as="geometry">
            <Array as="points">
              <mxPoint x="2400" y="1395" />
              <mxPoint x="2400" y="1719" />
            </Array>
          </mxGeometry>
        </mxCell>
        <mxCell id="NpHVf7ny2RbtNi30LPNa-551" style="edgeStyle=orthogonalEdgeStyle;rounded=0;orthogonalLoop=1;jettySize=auto;html=1;exitX=1;exitY=0.5;exitDx=0;exitDy=0;entryX=0.5;entryY=0;entryDx=0;entryDy=0;" parent="1" source="NpHVf7ny2RbtNi30LPNa-458" target="NpHVf7ny2RbtNi30LPNa-542" edge="1">
          <mxGeometry relative="1" as="geometry" />
        </mxCell>
        <mxCell id="NpHVf7ny2RbtNi30LPNa-552" style="edgeStyle=orthogonalEdgeStyle;rounded=0;orthogonalLoop=1;jettySize=auto;html=1;exitX=0.5;exitY=0;exitDx=0;exitDy=0;entryX=0.475;entryY=0.991;entryDx=0;entryDy=0;entryPerimeter=0;" parent="1" source="NpHVf7ny2RbtNi30LPNa-461" target="NpHVf7ny2RbtNi30LPNa-546" edge="1">
          <mxGeometry relative="1" as="geometry">
            <mxPoint x="2367.9400000000005" y="2209.49" as="targetPoint" />
          </mxGeometry>
        </mxCell>
        <mxCell id="NpHVf7ny2RbtNi30LPNa-553" style="edgeStyle=orthogonalEdgeStyle;rounded=0;orthogonalLoop=1;jettySize=auto;html=1;exitX=0.5;exitY=0;exitDx=0;exitDy=0;entryX=0.496;entryY=1.007;entryDx=0;entryDy=0;entryPerimeter=0;" parent="1" source="NpHVf7ny2RbtNi30LPNa-329" target="NpHVf7ny2RbtNi30LPNa-340" edge="1">
          <mxGeometry relative="1" as="geometry" />
        </mxCell>
        <mxCell id="NpHVf7ny2RbtNi30LPNa-554" style="edgeStyle=orthogonalEdgeStyle;rounded=0;orthogonalLoop=1;jettySize=auto;html=1;exitX=0;exitY=0.5;exitDx=0;exitDy=0;entryX=1;entryY=0.5;entryDx=0;entryDy=0;" parent="1" source="NpHVf7ny2RbtNi30LPNa-344" target="NpHVf7ny2RbtNi30LPNa-340" edge="1">
          <mxGeometry relative="1" as="geometry">
            <Array as="points">
              <mxPoint x="4266" y="2670" />
              <mxPoint x="4146" y="2670" />
              <mxPoint x="4146" y="2245" />
            </Array>
          </mxGeometry>
        </mxCell>
        <mxCell id="NpHVf7ny2RbtNi30LPNa-555" style="edgeStyle=orthogonalEdgeStyle;rounded=0;orthogonalLoop=1;jettySize=auto;html=1;exitX=0;exitY=0.5;exitDx=0;exitDy=0;entryX=1;entryY=0.5;entryDx=0;entryDy=0;" parent="1" source="NpHVf7ny2RbtNi30LPNa-369" target="NpHVf7ny2RbtNi30LPNa-337" edge="1">
          <mxGeometry relative="1" as="geometry" />
        </mxCell>
        <mxCell id="NpHVf7ny2RbtNi30LPNa-556" style="edgeStyle=orthogonalEdgeStyle;rounded=0;orthogonalLoop=1;jettySize=auto;html=1;exitX=1;exitY=0.5;exitDx=0;exitDy=0;entryX=0.75;entryY=0;entryDx=0;entryDy=0;" parent="1" source="NpHVf7ny2RbtNi30LPNa-366" target="NpHVf7ny2RbtNi30LPNa-343" edge="1">
          <mxGeometry relative="1" as="geometry" />
        </mxCell>
        <mxCell id="NpHVf7ny2RbtNi30LPNa-557" value="Conecta_Área" style="shape=table;startSize=30;container=1;collapsible=0;childLayout=tableLayout;fixedRows=1;rowLines=0;fontStyle=0;strokeColor=default;fontSize=16;" parent="1" vertex="1">
          <mxGeometry x="4026" y="1910" width="200" height="130" as="geometry" />
        </mxCell>
        <mxCell id="NpHVf7ny2RbtNi30LPNa-558" value="" style="shape=tableRow;horizontal=0;startSize=0;swimlaneHead=0;swimlaneBody=0;top=0;left=0;bottom=0;right=0;collapsible=0;dropTarget=0;fillColor=none;points=[[0,0.5],[1,0.5]];portConstraint=eastwest;strokeColor=inherit;fontSize=16;" parent="NpHVf7ny2RbtNi30LPNa-557" vertex="1">
          <mxGeometry y="30" width="200" height="60" as="geometry" />
        </mxCell>
        <mxCell id="NpHVf7ny2RbtNi30LPNa-559" value="PK, FK&lt;div&gt;PK, FK&lt;/div&gt;" style="shape=partialRectangle;html=1;whiteSpace=wrap;connectable=0;fillColor=none;top=0;left=0;bottom=0;right=0;overflow=hidden;pointerEvents=1;strokeColor=inherit;fontSize=16;" parent="NpHVf7ny2RbtNi30LPNa-558" vertex="1">
          <mxGeometry width="64" height="60" as="geometry">
            <mxRectangle width="64" height="60" as="alternateBounds" />
          </mxGeometry>
        </mxCell>
        <mxCell id="NpHVf7ny2RbtNi30LPNa-560" value="&lt;span id=&quot;docs-internal-guid-b573afe4-7fff-6cf1-a72c-a2d62d699c4b&quot;&gt;&lt;span style=&quot;font-size: 11pt; font-family: Arial, sans-serif; background-color: transparent; font-variant-numeric: normal; font-variant-east-asian: normal; font-variant-alternates: normal; font-variant-position: normal; vertical-align: baseline; white-space-collapse: preserve;&quot;&gt;id_origem&lt;/span&gt;&lt;/span&gt;&lt;div&gt;&lt;span id=&quot;docs-internal-guid-5008f0fb-7fff-fd4a-83f7-17b81c33ce65&quot;&gt;&lt;span style=&quot;font-size: 11pt; font-family: Arial, sans-serif; background-color: transparent; font-variant-numeric: normal; font-variant-east-asian: normal; font-variant-alternates: normal; font-variant-position: normal; vertical-align: baseline; white-space-collapse: preserve;&quot;&gt;id_destino&lt;/span&gt;&lt;/span&gt;&lt;br&gt;&lt;/div&gt;" style="shape=partialRectangle;html=1;whiteSpace=wrap;connectable=0;fillColor=none;top=0;left=0;bottom=0;right=0;align=left;spacingLeft=6;overflow=hidden;strokeColor=inherit;fontSize=16;horizontal=1;" parent="NpHVf7ny2RbtNi30LPNa-558" vertex="1">
          <mxGeometry x="64" width="136" height="60" as="geometry">
            <mxRectangle width="136" height="60" as="alternateBounds" />
          </mxGeometry>
        </mxCell>
        <mxCell id="NpHVf7ny2RbtNi30LPNa-561" value="" style="shape=tableRow;horizontal=0;startSize=0;swimlaneHead=0;swimlaneBody=0;top=0;left=0;bottom=0;right=0;collapsible=0;dropTarget=0;fillColor=none;points=[[0,0.5],[1,0.5]];portConstraint=eastwest;strokeColor=inherit;fontSize=16;verticalAlign=top;" parent="NpHVf7ny2RbtNi30LPNa-557" vertex="1">
          <mxGeometry y="90" width="200" height="40" as="geometry" />
        </mxCell>
        <mxCell id="NpHVf7ny2RbtNi30LPNa-562" value="" style="shape=partialRectangle;html=1;whiteSpace=wrap;connectable=0;fillColor=none;top=1;left=0;bottom=1;right=0;overflow=hidden;strokeColor=inherit;fontSize=16;noLabel=0;snapToPoint=0;" parent="NpHVf7ny2RbtNi30LPNa-561" vertex="1">
          <mxGeometry width="64" height="40" as="geometry">
            <mxRectangle width="64" height="40" as="alternateBounds" />
          </mxGeometry>
        </mxCell>
        <mxCell id="NpHVf7ny2RbtNi30LPNa-563" value="&lt;p style=&quot;line-height: 100%; margin-top: 2px; margin-bottom: 2px;&quot;&gt;&lt;br&gt;&lt;/p&gt;" style="shape=partialRectangle;html=1;whiteSpace=wrap;connectable=0;fillColor=none;top=1;left=0;bottom=1;right=0;align=left;spacingLeft=6;overflow=hidden;strokeColor=inherit;fontSize=16;noLabel=0;snapToPoint=0;horizontal=1;verticalAlign=top;" parent="NpHVf7ny2RbtNi30LPNa-561" vertex="1">
          <mxGeometry x="64" width="136" height="40" as="geometry">
            <mxRectangle width="136" height="40" as="alternateBounds" />
          </mxGeometry>
        </mxCell>
        <mxCell id="NpHVf7ny2RbtNi30LPNa-564" style="edgeStyle=orthogonalEdgeStyle;rounded=0;orthogonalLoop=1;jettySize=auto;html=1;exitX=0;exitY=0.5;exitDx=0;exitDy=0;entryX=0.5;entryY=0;entryDx=0;entryDy=0;" parent="1" source="NpHVf7ny2RbtNi30LPNa-558" target="NpHVf7ny2RbtNi30LPNa-336" edge="1">
          <mxGeometry relative="1" as="geometry" />
        </mxCell>
        <mxCell id="NpHVf7ny2RbtNi30LPNa-581" style="edgeStyle=orthogonalEdgeStyle;rounded=0;orthogonalLoop=1;jettySize=auto;html=1;entryX=-0.007;entryY=0.761;entryDx=0;entryDy=0;entryPerimeter=0;" parent="1" source="NpHVf7ny2RbtNi30LPNa-482" target="NpHVf7ny2RbtNi30LPNa-543" edge="1">
          <mxGeometry relative="1" as="geometry" />
        </mxCell>
        <mxCell id="NpHVf7ny2RbtNi30LPNa-582" style="edgeStyle=orthogonalEdgeStyle;rounded=0;orthogonalLoop=1;jettySize=auto;html=1;entryX=0.001;entryY=0.74;entryDx=0;entryDy=0;entryPerimeter=0;" parent="1" source="NpHVf7ny2RbtNi30LPNa-468" target="NpHVf7ny2RbtNi30LPNa-543" edge="1">
          <mxGeometry relative="1" as="geometry" />
        </mxCell>
        <mxCell id="NpHVf7ny2RbtNi30LPNa-583" style="edgeStyle=orthogonalEdgeStyle;rounded=0;orthogonalLoop=1;jettySize=auto;html=1;endArrow=none;endFill=0;" parent="1" source="NpHVf7ny2RbtNi30LPNa-479" edge="1">
          <mxGeometry relative="1" as="geometry">
            <mxPoint x="2400" y="1635" as="targetPoint" />
          </mxGeometry>
        </mxCell>
        <mxCell id="NpHVf7ny2RbtNi30LPNa-584" style="edgeStyle=orthogonalEdgeStyle;rounded=0;orthogonalLoop=1;jettySize=auto;html=1;endArrow=none;endFill=0;" parent="1" source="NpHVf7ny2RbtNi30LPNa-493" edge="1">
          <mxGeometry relative="1" as="geometry">
            <mxPoint x="2230" y="1720" as="targetPoint" />
            <Array as="points">
              <mxPoint x="2140" y="1840" />
              <mxPoint x="2140" y="1720" />
            </Array>
          </mxGeometry>
        </mxCell>
        <mxCell id="NpHVf7ny2RbtNi30LPNa-588" style="edgeStyle=orthogonalEdgeStyle;rounded=0;orthogonalLoop=1;jettySize=auto;html=1;exitX=1;exitY=0.5;exitDx=0;exitDy=0;entryX=1;entryY=0.5;entryDx=0;entryDy=0;" parent="1" source="NpHVf7ny2RbtNi30LPNa-431" target="NpHVf7ny2RbtNi30LPNa-543" edge="1">
          <mxGeometry relative="1" as="geometry" />
        </mxCell>
        <mxCell id="NpHVf7ny2RbtNi30LPNa-590" style="edgeStyle=orthogonalEdgeStyle;rounded=0;orthogonalLoop=1;jettySize=auto;html=1;exitX=0;exitY=0.5;exitDx=0;exitDy=0;entryX=1;entryY=0.5;entryDx=0;entryDy=0;" parent="1" source="NpHVf7ny2RbtNi30LPNa-431" target="NpHVf7ny2RbtNi30LPNa-344" edge="1">
          <mxGeometry relative="1" as="geometry">
            <Array as="points">
              <mxPoint x="4590" y="2510" />
              <mxPoint x="4530" y="2510" />
              <mxPoint x="4530" y="2565" />
            </Array>
          </mxGeometry>
        </mxCell>
        <mxCell id="NpHVf7ny2RbtNi30LPNa-598" value="Localização_da_Instancia_de_Item" style="shape=table;startSize=30;container=1;collapsible=0;childLayout=tableLayout;fixedRows=1;rowLines=0;fontStyle=0;strokeColor=default;fontSize=16;" parent="1" vertex="1">
          <mxGeometry x="3290" y="2380" width="300" height="130" as="geometry" />
        </mxCell>
        <mxCell id="NpHVf7ny2RbtNi30LPNa-599" value="" style="shape=tableRow;horizontal=0;startSize=0;swimlaneHead=0;swimlaneBody=0;top=0;left=0;bottom=0;right=0;collapsible=0;dropTarget=0;fillColor=none;points=[[0,0.5],[1,0.5]];portConstraint=eastwest;strokeColor=inherit;fontSize=16;" parent="NpHVf7ny2RbtNi30LPNa-598" vertex="1">
          <mxGeometry y="30" width="300" height="50" as="geometry" />
        </mxCell>
        <mxCell id="NpHVf7ny2RbtNi30LPNa-600" value="PK, FK" style="shape=partialRectangle;html=1;whiteSpace=wrap;connectable=0;fillColor=none;top=0;left=0;bottom=0;right=0;overflow=hidden;pointerEvents=1;strokeColor=inherit;fontSize=16;" parent="NpHVf7ny2RbtNi30LPNa-599" vertex="1">
          <mxGeometry width="60" height="50" as="geometry">
            <mxRectangle width="60" height="50" as="alternateBounds" />
          </mxGeometry>
        </mxCell>
        <mxCell id="NpHVf7ny2RbtNi30LPNa-601" value="&lt;div&gt;&lt;font face=&quot;Arial, sans-serif&quot;&gt;&lt;span style=&quot;font-size: 14.6667px; white-space-collapse: preserve;&quot;&gt;id_instancia_item&lt;/span&gt;&lt;/font&gt;&lt;/div&gt;" style="shape=partialRectangle;html=1;whiteSpace=wrap;connectable=0;fillColor=none;top=0;left=0;bottom=0;right=0;align=left;spacingLeft=6;overflow=hidden;strokeColor=inherit;fontSize=16;horizontal=1;" parent="NpHVf7ny2RbtNi30LPNa-599" vertex="1">
          <mxGeometry x="60" width="240" height="50" as="geometry">
            <mxRectangle width="240" height="50" as="alternateBounds" />
          </mxGeometry>
        </mxCell>
        <mxCell id="NpHVf7ny2RbtNi30LPNa-602" value="" style="shape=tableRow;horizontal=0;startSize=0;swimlaneHead=0;swimlaneBody=0;top=0;left=0;bottom=0;right=0;collapsible=0;dropTarget=0;fillColor=none;points=[[0,0.5],[1,0.5]];portConstraint=eastwest;strokeColor=inherit;fontSize=16;verticalAlign=top;" parent="NpHVf7ny2RbtNi30LPNa-598" vertex="1">
          <mxGeometry y="80" width="300" height="50" as="geometry" />
        </mxCell>
        <mxCell id="NpHVf7ny2RbtNi30LPNa-603" value="FK&lt;div&gt;FK&lt;/div&gt;" style="shape=partialRectangle;html=1;whiteSpace=wrap;connectable=0;fillColor=none;top=1;left=0;bottom=1;right=0;overflow=hidden;strokeColor=inherit;fontSize=16;noLabel=0;snapToPoint=0;" parent="NpHVf7ny2RbtNi30LPNa-602" vertex="1">
          <mxGeometry width="60" height="50" as="geometry">
            <mxRectangle width="60" height="50" as="alternateBounds" />
          </mxGeometry>
        </mxCell>
        <mxCell id="NpHVf7ny2RbtNi30LPNa-604" value="&lt;p style=&quot;line-height: 100%; margin-top: 2px; margin-bottom: 2px;&quot;&gt;id_area&lt;/p&gt;&lt;p style=&quot;line-height: 100%; margin-top: 2px; margin-bottom: 2px;&quot;&gt;id_inventario_jogador&lt;/p&gt;" style="shape=partialRectangle;html=1;whiteSpace=wrap;connectable=0;fillColor=none;top=1;left=0;bottom=1;right=0;align=left;spacingLeft=6;overflow=hidden;strokeColor=inherit;fontSize=16;noLabel=0;snapToPoint=0;horizontal=1;verticalAlign=top;" parent="NpHVf7ny2RbtNi30LPNa-602" vertex="1">
          <mxGeometry x="60" width="240" height="50" as="geometry">
            <mxRectangle width="240" height="50" as="alternateBounds" />
          </mxGeometry>
        </mxCell>
        <mxCell id="NpHVf7ny2RbtNi30LPNa-606" style="edgeStyle=orthogonalEdgeStyle;rounded=0;orthogonalLoop=1;jettySize=auto;html=1;entryX=0;entryY=0.5;entryDx=0;entryDy=0;" parent="1" source="NpHVf7ny2RbtNi30LPNa-599" target="NpHVf7ny2RbtNi30LPNa-414" edge="1">
          <mxGeometry relative="1" as="geometry">
            <mxPoint x="3000" y="2270" as="targetPoint" />
          </mxGeometry>
        </mxCell>
        <mxCell id="NpHVf7ny2RbtNi30LPNa-608" style="edgeStyle=orthogonalEdgeStyle;rounded=0;orthogonalLoop=1;jettySize=auto;html=1;entryX=0.461;entryY=0;entryDx=0;entryDy=0;entryPerimeter=0;" parent="1" target="NpHVf7ny2RbtNi30LPNa-343" edge="1">
          <mxGeometry relative="1" as="geometry">
            <mxPoint x="3590" y="2500" as="sourcePoint" />
            <mxPoint x="4355.352" y="2536.0499999999997" as="targetPoint" />
          </mxGeometry>
        </mxCell>
        <mxCell id="NpHVf7ny2RbtNi30LPNa-610" style="edgeStyle=orthogonalEdgeStyle;rounded=0;orthogonalLoop=1;jettySize=auto;html=1;entryX=0.006;entryY=0.258;entryDx=0;entryDy=0;entryPerimeter=0;exitX=1.002;exitY=0.07;exitDx=0;exitDy=0;exitPerimeter=0;" parent="1" source="NpHVf7ny2RbtNi30LPNa-599" target="NpHVf7ny2RbtNi30LPNa-337" edge="1">
          <mxGeometry relative="1" as="geometry">
            <mxPoint x="3780" y="2170" as="targetPoint" />
            <Array as="points">
              <mxPoint x="3591" y="2410" />
              <mxPoint x="3780" y="2410" />
              <mxPoint x="3780" y="2180" />
            </Array>
          </mxGeometry>
        </mxCell>
        <mxCell id="NpHVf7ny2RbtNi30LPNa-611" style="edgeStyle=orthogonalEdgeStyle;rounded=0;orthogonalLoop=1;jettySize=auto;html=1;entryX=0.43;entryY=1.001;entryDx=0;entryDy=0;entryPerimeter=0;endArrow=none;endFill=0;" parent="1" source="NpHVf7ny2RbtNi30LPNa-598" target="NpHVf7ny2RbtNi30LPNa-435" edge="1">
          <mxGeometry relative="1" as="geometry">
            <Array as="points">
              <mxPoint x="3438" y="2340" />
            </Array>
          </mxGeometry>
        </mxCell>
      </root>
    </mxGraphModel>
  </diagram>
</mxfile>
